{"glyphs":{"0":{"ha":744,"x_min":83,"x_max":661,"o":"m 372 -15 q 156 90 228 -15 q 83 394 83 196 q 156 688 83 581 q 372 796 228 796 q 589 689 517 796 q 661 394 661 582 q 589 90 661 196 q 372 -15 517 -15 m 372 58 q 510 144 463 58 q 558 394 558 231 q 510 639 558 556 q 372 722 463 722 q 234 639 282 722 q 186 394 186 556 q 234 144 186 231 q 372 58 282 58 z "},"1":{"ha":433,"x_min":61,"x_max":392,"o":"m 65 0 l 65 74 l 182 74 l 182 692 l 64 672 l 61 746 l 282 782 l 282 74 l 392 74 l 392 0 l 65 0 z "},"2":{"ha":635,"x_min":56,"x_max":571,"o":"m 56 0 l 56 69 l 281 297 q 419 453 376 394 q 461 585 461 511 q 428 681 461 640 q 319 722 394 722 q 207 683 249 722 q 165 567 165 643 q 176 481 165 532 l 82 481 q 69 568 69 525 q 140 733 69 671 q 333 796 211 796 q 503 740 442 796 q 564 596 564 683 q 506 433 564 507 q 343 254 447 358 l 124 33 l 106 78 l 478 78 l 478 226 l 569 226 l 571 0 l 56 0 z "},"3":{"ha":664,"x_min":42,"x_max":608,"o":"m 331 -14 q 156 29 228 -14 q 42 149 85 72 l 124 194 q 208 101 157 135 q 335 67 260 67 q 460 105 415 67 q 506 210 506 143 q 260 369 506 369 l 260 449 q 494 593 494 449 q 454 682 494 649 q 338 715 414 715 q 140 581 188 715 l 57 619 q 165 749 92 701 q 339 796 239 796 q 523 742 454 796 q 592 597 592 688 q 529 460 592 514 q 375 404 467 406 l 375 419 q 542 363 476 419 q 608 210 608 306 q 534 46 608 106 q 331 -14 460 -14 z "},"4":{"ha":629,"x_min":0,"x_max":588,"o":"m 249 0 l 249 74 l 371 74 l 371 206 l 10 206 l 0 275 l 369 782 l 465 782 l 465 279 l 588 279 l 588 206 l 465 206 l 465 74 l 560 74 l 560 0 l 249 0 m 93 279 l 371 279 l 371 658 l 93 279 z "},"5":{"ha":682,"x_min":56,"x_max":628,"o":"m 340 -15 q 178 21 247 -15 q 56 115 108 57 l 121 182 q 216 102 163 133 q 339 71 269 71 q 476 117 428 71 q 525 239 525 164 q 479 363 525 317 q 350 408 433 408 q 253 389 297 408 q 174 335 208 369 l 92 368 l 101 782 l 582 782 l 582 582 l 485 582 l 485 700 l 189 700 l 179 368 l 153 408 q 247 474 189 451 q 368 497 304 497 q 561 425 494 497 q 628 242 628 353 q 549 53 628 121 q 340 -15 471 -15 z "},"6":{"ha":639,"x_min":53,"x_max":592,"o":"m 326 -14 q 131 58 208 -14 q 53 247 53 131 q 81 398 53 332 q 192 590 108 464 l 363 849 l 444 793 l 168 386 l 158 406 q 235 469 185 442 q 356 496 286 496 q 522 428 451 496 q 592 249 592 360 q 517 60 592 133 q 326 -14 442 -14 m 326 65 q 451 116 406 65 q 496 246 496 167 q 453 372 496 324 q 333 419 410 419 q 209 374 263 419 q 156 242 156 328 q 199 117 156 169 q 326 65 242 65 z "},"7":{"ha":603,"x_min":17,"x_max":547,"o":"m 178 0 l 440 704 l 117 704 l 117 571 l 17 571 l 17 782 l 547 782 l 547 711 l 278 0 l 178 0 z "},"8":{"ha":644,"x_min":42,"x_max":603,"o":"m 324 -15 q 113 49 185 -15 q 42 208 42 114 q 82 332 42 281 q 196 408 122 383 q 97 485 126 439 q 67 592 67 531 q 135 740 67 683 q 322 796 204 796 q 510 740 440 796 q 579 592 579 685 q 548 481 579 529 q 447 407 517 433 q 564 333 525 385 q 603 210 603 282 q 530 49 603 113 q 324 -15 457 -15 m 324 64 q 446 104 400 64 q 492 213 492 144 q 433 325 492 290 q 260 378 374 360 q 190 326 228 369 q 153 214 153 282 q 199 105 153 146 q 324 64 244 64 m 381 435 q 439 481 404 443 q 474 583 474 519 q 434 681 474 644 q 322 718 394 718 q 212 681 251 718 q 172 583 172 644 q 228 480 172 514 q 381 435 283 446 z "},"9":{"ha":639,"x_min":47,"x_max":586,"o":"m 276 -65 l 194 -10 l 471 397 l 481 378 q 403 315 454 342 q 283 288 353 288 q 117 356 188 288 q 47 535 47 424 q 122 724 47 650 q 313 797 197 797 q 508 725 431 797 q 586 536 586 653 q 558 385 586 451 q 447 193 531 319 l 276 -65 m 306 364 q 430 410 376 364 q 483 542 483 456 q 440 666 483 614 q 313 718 397 718 q 188 667 233 718 q 143 538 143 617 q 186 412 143 460 q 306 364 229 364 z "},"A":{"ha":938,"x_min":39,"x_max":897,"o":"m 39 0 l 39 74 l 139 74 l 365 708 l 278 708 l 278 782 l 660 782 l 660 708 l 569 708 l 803 74 l 897 74 l 897 0 l 579 0 l 579 74 l 683 74 l 604 301 l 321 301 l 243 74 l 347 74 l 347 0 l 39 0 m 343 375 l 582 375 l 468 707 l 460 707 l 343 375 z "},"Á":{"ha":938,"x_min":39,"x_max":897,"o":"m 39 0 l 39 74 l 139 74 l 365 708 l 278 708 l 278 782 l 660 782 l 660 708 l 569 708 l 803 74 l 897 74 l 897 0 l 579 0 l 579 74 l 683 74 l 604 301 l 321 301 l 243 74 l 347 74 l 347 0 l 39 0 m 343 375 l 582 375 l 468 707 l 460 707 l 343 375 m 438 899 l 511 1100 l 628 1100 l 503 899 l 438 899 z "},"Ă":{"ha":938,"x_min":39,"x_max":897,"o":"m 39 0 l 39 74 l 139 74 l 365 708 l 278 708 l 278 782 l 660 782 l 660 708 l 569 708 l 803 74 l 897 74 l 897 0 l 579 0 l 579 74 l 683 74 l 604 301 l 321 301 l 243 74 l 347 74 l 347 0 l 39 0 m 343 375 l 582 375 l 468 707 l 460 707 l 343 375 m 469 861 q 365 898 407 860 q 317 1000 324 936 l 385 1000 q 469 924 400 924 q 553 1000 540 924 l 622 1000 q 469 861 607 864 z "},"Ắ":{"ha":938,"x_min":39,"x_max":897,"o":"m 39 0 l 39 74 l 139 74 l 365 708 l 278 708 l 278 782 l 660 782 l 660 708 l 569 708 l 803 74 l 897 74 l 897 0 l 579 0 l 579 74 l 683 74 l 604 301 l 321 301 l 243 74 l 347 74 l 347 0 l 39 0 m 343 375 l 582 375 l 468 707 l 460 707 l 343 375 m 469 861 q 365 898 407 860 q 317 1000 324 936 l 385 1000 q 469 924 400 924 q 553 1000 540 924 l 622 1000 q 469 861 607 864 m 429 1019 l 483 1165 l 600 1165 l 494 1019 l 429 1019 z "},"Ặ":{"ha":938,"x_min":39,"x_max":897,"o":"m 39 0 l 39 74 l 139 74 l 365 708 l 278 708 l 278 782 l 660 782 l 660 708 l 569 708 l 803 74 l 897 74 l 897 0 l 579 0 l 579 74 l 683 74 l 604 301 l 321 301 l 243 74 l 347 74 l 347 0 l 39 0 m 343 375 l 582 375 l 468 707 l 460 707 l 343 375 m 469 861 q 365 898 407 860 q 317 1000 324 936 l 385 1000 q 469 924 400 924 q 553 1000 540 924 l 622 1000 q 469 861 607 864 m 464 -194 q 417 -176 436 -194 q 397 -132 397 -157 q 464 -69 397 -69 q 510 -86 492 -69 q 529 -132 529 -103 q 513 -175 531 -156 q 464 -194 494 -194 z "},"Ằ":{"ha":938,"x_min":39,"x_max":897,"o":"m 39 0 l 39 74 l 139 74 l 365 708 l 278 708 l 278 782 l 660 782 l 660 708 l 569 708 l 803 74 l 897 74 l 897 0 l 579 0 l 579 74 l 683 74 l 604 301 l 321 301 l 243 74 l 347 74 l 347 0 l 39 0 m 343 375 l 582 375 l 468 707 l 460 707 l 343 375 m 469 861 q 365 898 407 860 q 317 1000 324 936 l 385 1000 q 469 924 400 924 q 553 1000 540 924 l 622 1000 q 469 861 607 864 m 443 1019 l 338 1165 l 454 1165 l 508 1019 l 443 1019 z "},"Ẳ":{"ha":938,"x_min":39,"x_max":897,"o":"m 39 0 l 39 74 l 139 74 l 365 708 l 278 708 l 278 782 l 660 782 l 660 708 l 569 708 l 803 74 l 897 74 l 897 0 l 579 0 l 579 74 l 683 74 l 604 301 l 321 301 l 243 74 l 347 74 l 347 0 l 39 0 m 343 375 l 582 375 l 468 707 l 460 707 l 343 375 m 460 999 l 440 1060 q 488 1110 488 1075 q 440 1147 488 1147 q 381 1129 413 1147 l 360 1188 q 398 1204 376 1197 q 447 1211 419 1211 q 530 1183 499 1211 q 561 1113 561 1156 q 460 999 561 1026 m 469 861 q 365 898 407 860 q 317 1000 324 936 l 385 1000 q 469 924 400 924 q 553 1000 540 924 l 622 1000 q 469 861 607 864 z "},"Ẵ":{"ha":938,"x_min":39,"x_max":897,"o":"m 39 0 l 39 74 l 139 74 l 365 708 l 278 708 l 278 782 l 660 782 l 660 708 l 569 708 l 803 74 l 897 74 l 897 0 l 579 0 l 579 74 l 683 74 l 604 301 l 321 301 l 243 74 l 347 74 l 347 0 l 39 0 m 343 375 l 582 375 l 468 707 l 460 707 l 343 375 m 557 1051 q 459 1077 510 1051 q 372 1103 408 1103 q 329 1057 336 1103 l 286 1057 q 319 1150 292 1121 q 388 1179 346 1179 q 479 1153 428 1179 q 563 1128 531 1128 q 614 1176 603 1128 l 654 1176 q 628 1088 650 1125 q 557 1051 606 1051 m 469 861 q 365 898 407 860 q 317 1000 324 936 l 385 1000 q 469 924 400 924 q 553 1000 540 924 l 622 1000 q 469 861 607 864 z "},"Ǎ":{"ha":938,"x_min":39,"x_max":897,"o":"m 39 0 l 39 74 l 139 74 l 365 708 l 278 708 l 278 782 l 660 782 l 660 708 l 569 708 l 803 74 l 897 74 l 897 0 l 579 0 l 579 74 l 683 74 l 604 301 l 321 301 l 243 74 l 347 74 l 347 0 l 39 0 m 343 375 l 582 375 l 468 707 l 460 707 l 343 375 m 421 858 l 308 1068 l 382 1068 l 471 917 l 557 1068 l 629 1068 l 519 858 l 421 858 z "},"Â":{"ha":938,"x_min":39,"x_max":897,"o":"m 39 0 l 39 74 l 139 74 l 365 708 l 278 708 l 278 782 l 660 782 l 660 708 l 569 708 l 803 74 l 897 74 l 897 0 l 579 0 l 579 74 l 683 74 l 604 301 l 321 301 l 243 74 l 347 74 l 347 0 l 39 0 m 343 375 l 582 375 l 468 707 l 460 707 l 343 375 m 300 860 l 415 1078 l 524 1078 l 639 860 l 561 860 l 469 1033 l 378 860 l 300 860 z "},"Ấ":{"ha":938,"x_min":39,"x_max":897,"o":"m 39 0 l 39 74 l 139 74 l 365 708 l 278 708 l 278 782 l 660 782 l 660 708 l 569 708 l 803 74 l 897 74 l 897 0 l 579 0 l 579 74 l 683 74 l 604 301 l 321 301 l 243 74 l 347 74 l 347 0 l 39 0 m 343 375 l 582 375 l 468 707 l 460 707 l 343 375 m 300 860 l 415 1036 l 524 1036 l 639 860 l 561 860 l 469 992 l 378 860 l 300 860 m 600 986 l 660 1146 l 763 1146 l 665 986 l 600 986 z "},"Ậ":{"ha":938,"x_min":39,"x_max":897,"o":"m 39 0 l 39 74 l 139 74 l 365 708 l 278 708 l 278 782 l 660 782 l 660 708 l 569 708 l 803 74 l 897 74 l 897 0 l 579 0 l 579 74 l 683 74 l 604 301 l 321 301 l 243 74 l 347 74 l 347 0 l 39 0 m 343 375 l 582 375 l 468 707 l 460 707 l 343 375 m 300 860 l 415 1078 l 524 1078 l 639 860 l 561 860 l 469 1033 l 378 860 l 300 860 m 464 -194 q 417 -176 436 -194 q 397 -132 397 -157 q 464 -69 397 -69 q 510 -86 492 -69 q 529 -132 529 -103 q 513 -175 531 -156 q 464 -194 494 -194 z "},"Ầ":{"ha":938,"x_min":39,"x_max":897,"o":"m 39 0 l 39 74 l 139 74 l 365 708 l 278 708 l 278 782 l 660 782 l 660 708 l 569 708 l 803 74 l 897 74 l 897 0 l 579 0 l 579 74 l 683 74 l 604 301 l 321 301 l 243 74 l 347 74 l 347 0 l 39 0 m 343 375 l 582 375 l 468 707 l 460 707 l 343 375 m 300 860 l 415 1036 l 524 1036 l 639 860 l 561 860 l 469 992 l 378 860 l 300 860 m 693 986 l 628 986 l 531 1146 l 633 1146 l 693 986 z "},"Ẩ":{"ha":938,"x_min":39,"x_max":897,"o":"m 39 0 l 39 74 l 139 74 l 365 708 l 278 708 l 278 782 l 660 782 l 660 708 l 569 708 l 803 74 l 897 74 l 897 0 l 579 0 l 579 74 l 683 74 l 604 301 l 321 301 l 243 74 l 347 74 l 347 0 l 39 0 m 343 375 l 582 375 l 468 707 l 460 707 l 343 375 m 300 860 l 415 1036 l 524 1036 l 639 860 l 561 860 l 469 992 l 378 860 l 300 860 m 606 972 l 586 1033 q 633 1083 633 1049 q 586 1121 633 1121 q 526 1103 558 1121 l 506 1161 q 544 1178 522 1171 q 593 1185 567 1185 q 676 1157 644 1185 q 707 1086 707 1129 q 606 972 707 1000 z "},"Ẫ":{"ha":938,"x_min":39,"x_max":897,"o":"m 39 0 l 39 74 l 139 74 l 365 708 l 278 708 l 278 782 l 660 782 l 660 708 l 569 708 l 803 74 l 897 74 l 897 0 l 579 0 l 579 74 l 683 74 l 604 301 l 321 301 l 243 74 l 347 74 l 347 0 l 39 0 m 343 375 l 582 375 l 468 707 l 460 707 l 343 375 m 300 860 l 415 1036 l 524 1036 l 639 860 l 561 860 l 469 992 l 378 860 l 300 860 m 557 1072 q 459 1098 510 1072 q 372 1124 408 1124 q 329 1078 336 1124 l 286 1078 q 319 1171 292 1142 q 388 1200 346 1200 q 479 1174 428 1200 q 563 1149 531 1149 q 614 1197 603 1149 l 654 1197 q 628 1108 650 1144 q 557 1072 606 1072 z "},"Ȁ":{"ha":938,"x_min":39,"x_max":897,"o":"m 39 0 l 39 74 l 139 74 l 365 708 l 278 708 l 278 782 l 660 782 l 660 708 l 569 708 l 803 74 l 897 74 l 897 0 l 579 0 l 579 74 l 683 74 l 604 301 l 321 301 l 243 74 l 347 74 l 347 0 l 39 0 m 343 375 l 582 375 l 468 707 l 460 707 l 343 375 m 326 899 l 196 1110 l 313 1110 l 392 899 l 326 899 m 514 899 l 385 1110 l 501 1110 l 579 899 l 514 899 z "},"Ä":{"ha":938,"x_min":39,"x_max":897,"o":"m 39 0 l 39 74 l 139 74 l 365 708 l 278 708 l 278 782 l 660 782 l 660 708 l 569 708 l 803 74 l 897 74 l 897 0 l 579 0 l 579 74 l 683 74 l 604 301 l 321 301 l 243 74 l 347 74 l 347 0 l 39 0 m 343 375 l 582 375 l 468 707 l 460 707 l 343 375 m 336 871 q 291 887 308 871 q 274 931 274 903 q 291 974 274 958 q 336 990 308 990 q 381 974 364 990 q 399 931 399 958 q 381 887 399 903 q 336 871 364 871 m 603 871 q 558 887 575 871 q 542 931 542 903 q 558 974 542 958 q 603 990 575 990 q 648 974 631 990 q 665 931 665 958 q 648 887 665 903 q 603 871 631 871 z "},"Ȧ":{"ha":938,"x_min":39,"x_max":897,"o":"m 39 0 l 39 74 l 139 74 l 365 708 l 278 708 l 278 782 l 660 782 l 660 708 l 569 708 l 803 74 l 897 74 l 897 0 l 579 0 l 579 74 l 683 74 l 604 301 l 321 301 l 243 74 l 347 74 l 347 0 l 39 0 m 343 375 l 582 375 l 468 707 l 460 707 l 343 375 z "},"Ạ":{"ha":938,"x_min":39,"x_max":897,"o":"m 39 0 l 39 74 l 139 74 l 365 708 l 278 708 l 278 782 l 660 782 l 660 708 l 569 708 l 803 74 l 897 74 l 897 0 l 579 0 l 579 74 l 683 74 l 604 301 l 321 301 l 243 74 l 347 74 l 347 0 l 39 0 m 343 375 l 582 375 l 468 707 l 460 707 l 343 375 m 464 -194 q 417 -176 436 -194 q 397 -132 397 -157 q 464 -69 397 -69 q 510 -86 492 -69 q 529 -132 529 -103 q 513 -175 531 -156 q 464 -194 494 -194 z "},"À":{"ha":938,"x_min":39,"x_max":897,"o":"m 39 0 l 39 74 l 139 74 l 365 708 l 278 708 l 278 782 l 660 782 l 660 708 l 569 708 l 803 74 l 897 74 l 897 0 l 579 0 l 579 74 l 683 74 l 604 301 l 321 301 l 243 74 l 347 74 l 347 0 l 39 0 m 343 375 l 582 375 l 468 707 l 460 707 l 343 375 m 436 899 l 311 1100 l 428 1100 l 501 899 l 436 899 z "},"Ả":{"ha":938,"x_min":39,"x_max":897,"o":"m 39 0 l 39 74 l 139 74 l 365 708 l 278 708 l 278 782 l 660 782 l 660 708 l 569 708 l 803 74 l 897 74 l 897 0 l 579 0 l 579 74 l 683 74 l 604 301 l 321 301 l 243 74 l 347 74 l 347 0 l 39 0 m 343 375 l 582 375 l 468 707 l 460 707 l 343 375 m 469 842 l 450 903 q 497 953 497 918 q 450 990 497 990 q 390 972 422 990 l 369 1031 q 408 1047 386 1040 q 457 1054 431 1054 q 540 1026 508 1054 q 571 956 571 999 q 469 842 571 869 z "},"Ȃ":{"ha":938,"x_min":39,"x_max":897,"o":"m 39 0 l 39 74 l 139 74 l 365 708 l 278 708 l 278 782 l 660 782 l 660 708 l 569 708 l 803 74 l 897 74 l 897 0 l 579 0 l 579 74 l 683 74 l 604 301 l 321 301 l 243 74 l 347 74 l 347 0 l 39 0 m 343 375 l 582 375 l 468 707 l 460 707 l 343 375 m 307 861 q 358 969 314 929 q 469 1010 401 1010 q 580 969 536 1010 q 631 861 624 929 l 549 861 q 469 932 536 932 q 389 861 401 932 l 307 861 z "},"Ā":{"ha":938,"x_min":39,"x_max":897,"o":"m 39 0 l 39 74 l 139 74 l 365 708 l 278 708 l 278 782 l 660 782 l 660 708 l 569 708 l 803 74 l 897 74 l 897 0 l 579 0 l 579 74 l 683 74 l 604 301 l 321 301 l 243 74 l 347 74 l 347 0 l 39 0 m 343 375 l 582 375 l 468 707 l 460 707 l 343 375 m 324 893 l 324 956 l 615 956 l 615 893 l 324 893 z "},"Ą":{"ha":938,"x_min":39,"x_max":897,"o":"m 39 0 l 39 74 l 139 74 l 365 708 l 278 708 l 278 782 l 660 782 l 660 708 l 569 708 l 803 74 l 897 74 l 897 0 l 579 0 l 579 74 l 683 74 l 604 301 l 321 301 l 243 74 l 347 74 l 347 0 l 39 0 m 343 375 l 582 375 l 468 707 l 460 707 l 343 375 m 757 -235 q 678 -206 710 -235 q 646 -132 646 -178 q 719 0 646 -69 l 779 0 q 733 -58 750 -31 q 717 -111 717 -86 q 782 -171 717 -171 q 843 -153 813 -171 l 843 -208 q 757 -235 800 -235 z "},"Å":{"ha":938,"x_min":39,"x_max":897,"o":"m 39 0 l 39 74 l 139 74 l 365 708 l 278 708 l 278 782 l 660 782 l 660 708 l 569 708 l 803 74 l 897 74 l 897 0 l 579 0 l 579 74 l 683 74 l 604 301 l 321 301 l 243 74 l 347 74 l 347 0 l 39 0 m 343 375 l 582 375 l 468 707 l 460 707 l 343 375 m 469 831 q 389 861 418 831 q 360 935 360 892 q 388 1007 360 978 q 469 1036 417 1036 q 551 1007 522 1036 q 579 935 579 978 q 550 861 579 892 q 469 831 521 831 m 469 874 q 531 935 531 874 q 469 994 531 994 q 407 935 407 994 q 469 874 407 874 z "},"Ǻ":{"ha":938,"x_min":39,"x_max":897,"o":"m 39 0 l 39 74 l 139 74 l 365 708 l 278 708 l 278 782 l 660 782 l 660 708 l 569 708 l 803 74 l 897 74 l 897 0 l 579 0 l 579 74 l 683 74 l 604 301 l 321 301 l 243 74 l 347 74 l 347 0 l 39 0 m 343 375 l 582 375 l 468 707 l 460 707 l 343 375 m 469 831 q 389 861 418 831 q 360 935 360 892 q 388 1007 360 978 q 469 1036 417 1036 q 551 1007 522 1036 q 579 935 579 978 q 550 861 579 892 q 469 831 521 831 m 469 874 q 531 935 531 874 q 469 994 531 994 q 407 935 407 994 q 469 874 407 874 m 438 1086 l 511 1288 l 628 1288 l 503 1086 l 438 1086 z "},"Ã":{"ha":938,"x_min":39,"x_max":897,"o":"m 39 0 l 39 74 l 139 74 l 365 708 l 278 708 l 278 782 l 660 782 l 660 708 l 569 708 l 803 74 l 897 74 l 897 0 l 579 0 l 579 74 l 683 74 l 604 301 l 321 301 l 243 74 l 347 74 l 347 0 l 39 0 m 343 375 l 582 375 l 468 707 l 460 707 l 343 375 m 557 889 q 459 915 510 889 q 372 940 408 940 q 329 894 336 940 l 286 894 q 319 988 292 958 q 388 1017 346 1017 q 479 991 428 1017 q 563 965 531 965 q 614 1014 603 965 l 654 1014 q 628 925 650 961 q 557 889 606 889 z "},"Æ":{"ha":1347,"x_min":31,"x_max":1267,"o":"m 31 0 l 31 74 l 136 74 l 525 708 l 440 708 l 440 782 l 1215 782 l 1228 535 l 1142 535 l 1129 708 l 751 708 l 768 438 l 1015 438 l 1010 529 l 1065 529 l 1082 265 l 1025 265 l 1017 360 l 769 360 l 786 74 l 1178 74 l 1167 249 l 1253 249 l 1267 0 l 568 0 l 568 74 l 674 74 l 661 285 l 376 285 l 256 74 l 350 74 l 350 0 l 31 0 m 413 354 l 660 354 l 639 708 l 626 708 l 413 354 z "},"Ǽ":{"ha":1347,"x_min":31,"x_max":1267,"o":"m 31 0 l 31 74 l 136 74 l 525 708 l 440 708 l 440 782 l 1215 782 l 1228 535 l 1142 535 l 1129 708 l 751 708 l 768 438 l 1015 438 l 1010 529 l 1065 529 l 1082 265 l 1025 265 l 1017 360 l 769 360 l 786 74 l 1178 74 l 1167 249 l 1253 249 l 1267 0 l 568 0 l 568 74 l 674 74 l 661 285 l 376 285 l 256 74 l 350 74 l 350 0 l 31 0 m 413 354 l 660 354 l 639 708 l 626 708 l 413 354 m 774 899 l 847 1100 l 964 1100 l 839 899 l 774 899 z "},"Ǣ":{"ha":1347,"x_min":31,"x_max":1267,"o":"m 31 0 l 31 74 l 136 74 l 525 708 l 440 708 l 440 782 l 1215 782 l 1228 535 l 1142 535 l 1129 708 l 751 708 l 768 438 l 1015 438 l 1010 529 l 1065 529 l 1082 265 l 1025 265 l 1017 360 l 769 360 l 786 74 l 1178 74 l 1167 249 l 1253 249 l 1267 0 l 568 0 l 568 74 l 674 74 l 661 285 l 376 285 l 256 74 l 350 74 l 350 0 l 31 0 m 413 354 l 660 354 l 639 708 l 626 708 l 413 354 m 660 893 l 660 956 l 951 956 l 951 893 l 660 893 z "},"B":{"ha":806,"x_min":54,"x_max":751,"o":"m 54 0 l 54 74 l 163 74 l 163 708 l 54 708 l 54 782 l 442 782 q 641 733 572 782 q 710 588 710 683 q 677 478 710 522 q 592 417 644 435 q 711 344 671 397 q 751 221 751 292 q 690 69 751 138 q 471 0 628 0 l 54 0 m 276 74 l 451 74 q 593 114 550 74 q 636 225 636 154 q 590 331 636 290 q 447 372 544 372 l 276 372 l 276 74 m 276 449 l 435 449 q 559 485 521 449 q 597 583 597 521 q 553 681 597 653 q 410 708 508 708 l 276 708 l 276 449 z "},"Ḃ":{"ha":806,"x_min":54,"x_max":751,"o":"m 54 0 l 54 74 l 163 74 l 163 708 l 54 708 l 54 782 l 442 782 q 641 733 572 782 q 710 588 710 683 q 677 478 710 522 q 592 417 644 435 q 711 344 671 397 q 751 221 751 292 q 690 69 751 138 q 471 0 628 0 l 54 0 m 276 74 l 451 74 q 593 114 550 74 q 636 225 636 154 q 590 331 636 290 q 447 372 544 372 l 276 372 l 276 74 m 276 449 l 435 449 q 559 485 521 449 q 597 583 597 521 q 553 681 597 653 q 410 708 508 708 l 276 708 l 276 449 z "},"C":{"ha":924,"x_min":68,"x_max":844,"o":"m 478 -15 q 263 38 356 -14 q 119 181 171 89 q 68 392 68 272 q 180 681 68 567 q 479 796 292 796 q 669 745 592 796 q 775 613 747 694 l 744 613 l 744 782 l 828 782 l 828 546 l 753 543 q 643 673 708 633 q 485 713 578 713 q 263 620 344 713 q 182 393 182 528 q 222 222 182 294 q 329 108 261 149 q 485 68 397 68 q 649 110 572 68 q 761 253 725 151 l 844 211 q 696 35 794 83 q 478 -15 597 -14 z "},"Ć":{"ha":924,"x_min":68,"x_max":844,"o":"m 478 -15 q 263 38 356 -14 q 119 181 171 89 q 68 392 68 272 q 180 681 68 567 q 479 796 292 796 q 669 745 592 796 q 775 613 747 694 l 744 613 l 744 782 l 828 782 l 828 546 l 753 543 q 643 673 708 633 q 485 713 578 713 q 263 620 344 713 q 182 393 182 528 q 222 222 182 294 q 329 108 261 149 q 485 68 397 68 q 649 110 572 68 q 761 253 725 151 l 844 211 q 696 35 794 83 q 478 -15 597 -14 m 453 899 l 526 1100 l 643 1100 l 518 899 l 453 899 z "},"Č":{"ha":924,"x_min":68,"x_max":844,"o":"m 478 -15 q 263 38 356 -14 q 119 181 171 89 q 68 392 68 272 q 180 681 68 567 q 479 796 292 796 q 669 745 592 796 q 775 613 747 694 l 744 613 l 744 782 l 828 782 l 828 546 l 753 543 q 643 673 708 633 q 485 713 578 713 q 263 620 344 713 q 182 393 182 528 q 222 222 182 294 q 329 108 261 149 q 485 68 397 68 q 649 110 572 68 q 761 253 725 151 l 844 211 q 696 35 794 83 q 478 -15 597 -14 m 436 858 l 324 1068 l 397 1068 l 486 917 l 572 1068 l 644 1068 l 535 858 l 436 858 z "},"Ç":{"ha":924,"x_min":68,"x_max":844,"o":"m 478 -15 q 263 38 356 -14 q 119 181 171 89 q 68 392 68 272 q 180 681 68 567 q 479 796 292 796 q 669 745 592 796 q 775 613 747 694 l 744 613 l 744 782 l 828 782 l 828 546 l 753 543 q 643 673 708 633 q 485 713 578 713 q 263 620 344 713 q 182 393 182 528 q 222 222 182 294 q 329 108 261 149 q 485 68 397 68 q 649 110 572 68 q 761 253 725 151 l 844 211 q 696 35 794 83 q 478 -15 597 -14 m 471 -243 q 350 -217 411 -243 l 350 -176 q 392 -187 372 -183 q 429 -190 413 -190 q 482 -154 482 -190 q 463 -125 482 -136 q 403 -111 444 -114 l 446 0 l 492 0 l 469 -81 q 546 -110 522 -86 q 569 -164 569 -133 q 540 -225 569 -207 q 471 -243 511 -243 z "},"Ḉ":{"ha":924,"x_min":68,"x_max":844,"o":"m 478 -15 q 263 38 356 -14 q 119 181 171 89 q 68 392 68 272 q 180 681 68 567 q 479 796 292 796 q 669 745 592 796 q 775 613 747 694 l 744 613 l 744 782 l 828 782 l 828 546 l 753 543 q 643 673 708 633 q 485 713 578 713 q 263 620 344 713 q 182 393 182 528 q 222 222 182 294 q 329 108 261 149 q 485 68 397 68 q 649 110 572 68 q 761 253 725 151 l 844 211 q 696 35 794 83 q 478 -15 597 -14 m 471 -243 q 350 -217 411 -243 l 350 -176 q 392 -187 372 -183 q 429 -190 413 -190 q 482 -154 482 -190 q 463 -125 482 -136 q 403 -111 444 -114 l 446 0 l 492 0 l 469 -81 q 546 -110 522 -86 q 569 -164 569 -133 q 540 -225 569 -207 q 471 -243 511 -243 m 453 899 l 526 1100 l 643 1100 l 518 899 l 453 899 z "},"Ĉ":{"ha":924,"x_min":68,"x_max":844,"o":"m 478 -15 q 263 38 356 -14 q 119 181 171 89 q 68 392 68 272 q 180 681 68 567 q 479 796 292 796 q 669 745 592 796 q 775 613 747 694 l 744 613 l 744 782 l 828 782 l 828 546 l 753 543 q 643 673 708 633 q 485 713 578 713 q 263 620 344 713 q 182 393 182 528 q 222 222 182 294 q 329 108 261 149 q 485 68 397 68 q 649 110 572 68 q 761 253 725 151 l 844 211 q 696 35 794 83 q 478 -15 597 -14 m 315 860 l 431 1078 l 539 1078 l 654 860 l 576 860 l 485 1033 l 393 860 l 315 860 z "},"Ċ":{"ha":924,"x_min":68,"x_max":844,"o":"m 478 -15 q 263 38 356 -14 q 119 181 171 89 q 68 392 68 272 q 180 681 68 567 q 479 796 292 796 q 669 745 592 796 q 775 613 747 694 l 744 613 l 744 782 l 828 782 l 828 546 l 753 543 q 643 673 708 633 q 485 713 578 713 q 263 620 344 713 q 182 393 182 528 q 222 222 182 294 q 329 108 261 149 q 485 68 397 68 q 649 110 572 68 q 761 253 725 151 l 844 211 q 696 35 794 83 q 478 -15 597 -14 z "},"D":{"ha":950,"x_min":56,"x_max":882,"o":"m 56 0 l 56 74 l 164 74 l 164 708 l 56 708 l 56 782 l 481 782 q 706 726 617 782 q 838 582 794 669 q 882 399 882 494 q 838 193 882 283 q 704 51 793 103 q 482 0 615 0 l 56 0 m 278 74 l 471 74 q 640 117 575 74 q 735 233 706 160 q 765 396 765 306 q 735 547 765 475 q 640 663 704 618 q 475 708 575 708 l 278 708 l 278 74 z "},"Ǳ":{"ha":1750,"x_min":56,"x_max":1676,"o":"m 56 0 l 56 74 l 164 74 l 164 708 l 56 708 l 56 782 l 481 782 q 706 726 617 782 q 838 582 794 669 q 882 399 882 494 q 838 193 882 283 q 704 51 793 103 q 482 0 615 0 l 56 0 m 278 74 l 471 74 q 640 117 575 74 q 735 233 706 160 q 765 396 765 306 q 735 547 765 475 q 640 663 704 618 q 475 708 575 708 l 278 708 l 278 74 m 1036 0 l 1036 79 l 1529 708 l 1140 708 l 1140 524 l 1057 524 l 1057 782 l 1667 782 l 1667 711 l 1169 74 l 1593 74 l 1593 271 l 1676 271 l 1676 0 l 1036 0 z "},"Ǆ":{"ha":1750,"x_min":56,"x_max":1676,"o":"m 56 0 l 56 74 l 164 74 l 164 708 l 56 708 l 56 782 l 481 782 q 706 726 617 782 q 838 582 794 669 q 882 399 882 494 q 838 193 882 283 q 704 51 793 103 q 482 0 615 0 l 56 0 m 278 74 l 471 74 q 640 117 575 74 q 735 233 706 160 q 765 396 765 306 q 735 547 765 475 q 640 663 704 618 q 475 708 575 708 l 278 708 l 278 74 z "},"Ð":{"ha":950,"x_min":56,"x_max":882,"o":"m 56 0 l 56 74 l 164 74 l 164 708 l 56 708 l 56 782 l 481 782 q 706 726 617 782 q 838 582 794 669 q 882 399 882 494 q 838 193 882 283 q 704 51 793 103 q 482 0 615 0 l 56 0 m 278 74 l 471 74 q 640 117 575 74 q 735 233 706 160 q 765 396 765 306 q 735 547 765 475 q 640 663 704 618 q 475 708 575 708 l 278 708 l 278 74 m 56 363 l 56 440 l 388 440 l 388 363 l 56 363 z "},"Ď":{"ha":950,"x_min":56,"x_max":882,"o":"m 56 0 l 56 74 l 164 74 l 164 708 l 56 708 l 56 782 l 481 782 q 706 726 617 782 q 838 582 794 669 q 882 399 882 494 q 838 193 882 283 q 704 51 793 103 q 482 0 615 0 l 56 0 m 278 74 l 471 74 q 640 117 575 74 q 735 233 706 160 q 765 396 765 306 q 735 547 765 475 q 640 663 704 618 q 475 708 575 708 l 278 708 l 278 74 m 468 858 l 356 1068 l 429 1068 l 518 917 l 604 1068 l 676 1068 l 567 858 l 468 858 z "},"Đ":{"ha":950,"x_min":56,"x_max":882,"o":"m 56 0 l 56 74 l 164 74 l 164 708 l 56 708 l 56 782 l 481 782 q 706 726 617 782 q 838 582 794 669 q 882 399 882 494 q 838 193 882 283 q 704 51 793 103 q 482 0 615 0 l 56 0 m 278 74 l 471 74 q 640 117 575 74 q 735 233 706 160 q 765 396 765 306 q 735 547 765 475 q 640 663 704 618 q 475 708 575 708 l 278 708 l 278 74 m 56 363 l 56 440 l 388 440 l 388 363 l 56 363 z "},"Ḋ":{"ha":950,"x_min":56,"x_max":882,"o":"m 56 0 l 56 74 l 164 74 l 164 708 l 56 708 l 56 782 l 481 782 q 706 726 617 782 q 838 582 794 669 q 882 399 882 494 q 838 193 882 283 q 704 51 793 103 q 482 0 615 0 l 56 0 m 278 74 l 471 74 q 640 117 575 74 q 735 233 706 160 q 765 396 765 306 q 735 547 765 475 q 640 663 704 618 q 475 708 575 708 l 278 708 l 278 74 z "},"Ḍ":{"ha":950,"x_min":56,"x_max":882,"o":"m 56 0 l 56 74 l 164 74 l 164 708 l 56 708 l 56 782 l 481 782 q 706 726 617 782 q 838 582 794 669 q 882 399 882 494 q 838 193 882 283 q 704 51 793 103 q 482 0 615 0 l 56 0 m 278 74 l 471 74 q 640 117 575 74 q 735 233 706 160 q 765 396 765 306 q 735 547 765 475 q 640 663 704 618 q 475 708 575 708 l 278 708 l 278 74 m 521 -194 q 474 -176 493 -194 q 454 -132 454 -157 q 521 -69 454 -69 q 567 -86 549 -69 q 586 -132 586 -103 q 569 -175 588 -156 q 521 -194 551 -194 z "},"Ḏ":{"ha":950,"x_min":56,"x_max":882,"o":"m 56 0 l 56 74 l 164 74 l 164 708 l 56 708 l 56 782 l 481 782 q 706 726 617 782 q 838 582 794 669 q 882 399 882 494 q 838 193 882 283 q 704 51 793 103 q 482 0 615 0 l 56 0 m 278 74 l 471 74 q 640 117 575 74 q 735 233 706 160 q 765 396 765 306 q 735 547 765 475 q 640 663 704 618 q 475 708 575 708 l 278 708 l 278 74 z "},"ǲ":{"ha":1503,"x_min":56,"x_max":1444,"o":"m 56 0 l 56 74 l 164 74 l 164 708 l 56 708 l 56 782 l 481 782 q 706 726 617 782 q 838 582 794 669 q 882 399 882 494 q 838 193 882 283 q 704 51 793 103 q 482 0 615 0 l 56 0 m 278 74 l 471 74 q 640 117 575 74 q 735 233 706 160 q 765 396 765 306 q 735 547 765 475 q 640 663 704 618 q 475 708 575 708 l 278 708 l 278 74 m 965 0 l 965 72 l 1317 475 l 1050 475 l 1050 363 l 972 363 l 972 546 l 1436 546 l 1436 469 l 1085 69 l 1364 69 l 1364 194 l 1444 194 l 1444 0 l 965 0 z "},"ǅ":{"ha":1558,"x_min":56,"x_max":1500,"o":"m 56 0 l 56 74 l 164 74 l 164 708 l 56 708 l 56 782 l 481 782 q 706 726 617 782 q 838 582 794 669 q 882 399 882 494 q 838 193 882 283 q 704 51 793 103 q 482 0 615 0 l 56 0 m 278 74 l 471 74 q 640 117 575 74 q 735 233 706 160 q 765 396 765 306 q 735 547 765 475 q 640 663 704 618 q 475 708 575 708 l 278 708 l 278 74 z "},"E":{"ha":808,"x_min":54,"x_max":742,"o":"m 54 0 l 54 74 l 163 74 l 163 708 l 54 708 l 54 782 l 735 782 l 735 550 l 647 550 l 647 708 l 276 708 l 276 443 l 519 443 l 519 535 l 576 535 l 576 274 l 519 274 l 519 367 l 276 367 l 276 74 l 654 74 l 654 236 l 742 236 l 742 0 l 54 0 z "},"É":{"ha":808,"x_min":54,"x_max":742,"o":"m 54 0 l 54 74 l 163 74 l 163 708 l 54 708 l 54 782 l 735 782 l 735 550 l 647 550 l 647 708 l 276 708 l 276 443 l 519 443 l 519 535 l 576 535 l 576 274 l 519 274 l 519 367 l 276 367 l 276 74 l 654 74 l 654 236 l 742 236 l 742 0 l 54 0 m 399 899 l 472 1100 l 589 1100 l 464 899 l 399 899 z "},"Ĕ":{"ha":808,"x_min":54,"x_max":742,"o":"m 54 0 l 54 74 l 163 74 l 163 708 l 54 708 l 54 782 l 735 782 l 735 550 l 647 550 l 647 708 l 276 708 l 276 443 l 519 443 l 519 535 l 576 535 l 576 274 l 519 274 l 519 367 l 276 367 l 276 74 l 654 74 l 654 236 l 742 236 l 742 0 l 54 0 m 431 861 q 326 898 368 860 q 278 1000 285 936 l 346 1000 q 431 924 361 924 q 514 1000 501 924 l 583 1000 q 431 861 568 864 z "},"Ě":{"ha":808,"x_min":54,"x_max":742,"o":"m 54 0 l 54 74 l 163 74 l 163 708 l 54 708 l 54 782 l 735 782 l 735 550 l 647 550 l 647 708 l 276 708 l 276 443 l 519 443 l 519 535 l 576 535 l 576 274 l 519 274 l 519 367 l 276 367 l 276 74 l 654 74 l 654 236 l 742 236 l 742 0 l 54 0 m 382 858 l 269 1068 l 343 1068 l 432 917 l 518 1068 l 590 1068 l 481 858 l 382 858 z "},"Ȩ":{"ha":808,"x_min":54,"x_max":742,"o":"m 54 0 l 54 74 l 163 74 l 163 708 l 54 708 l 54 782 l 735 782 l 735 550 l 647 550 l 647 708 l 276 708 l 276 443 l 519 443 l 519 535 l 576 535 l 576 274 l 519 274 l 519 367 l 276 367 l 276 74 l 654 74 l 654 236 l 742 236 l 742 0 l 54 0 m 457 -243 q 336 -217 397 -243 l 336 -176 q 378 -187 358 -183 q 415 -190 399 -190 q 468 -154 468 -190 q 449 -125 468 -136 q 389 -111 431 -114 l 432 0 l 478 0 l 456 -81 q 532 -110 508 -86 q 556 -164 556 -133 q 526 -225 556 -207 q 457 -243 497 -243 z "},"Ḝ":{"ha":808,"x_min":54,"x_max":742,"o":"m 54 0 l 54 74 l 163 74 l 163 708 l 54 708 l 54 782 l 735 782 l 735 550 l 647 550 l 647 708 l 276 708 l 276 443 l 519 443 l 519 535 l 576 535 l 576 274 l 519 274 l 519 367 l 276 367 l 276 74 l 654 74 l 654 236 l 742 236 l 742 0 l 54 0 m 457 -243 q 336 -217 397 -243 l 336 -176 q 378 -187 358 -183 q 415 -190 399 -190 q 468 -154 468 -190 q 449 -125 468 -136 q 389 -111 431 -114 l 432 0 l 478 0 l 456 -81 q 532 -110 508 -86 q 556 -164 556 -133 q 526 -225 556 -207 q 457 -243 497 -243 m 431 861 q 326 898 368 860 q 278 1000 285 936 l 346 1000 q 431 924 361 924 q 514 1000 501 924 l 583 1000 q 431 861 568 864 z "},"Ê":{"ha":808,"x_min":54,"x_max":742,"o":"m 54 0 l 54 74 l 163 74 l 163 708 l 54 708 l 54 782 l 735 782 l 735 550 l 647 550 l 647 708 l 276 708 l 276 443 l 519 443 l 519 535 l 576 535 l 576 274 l 519 274 l 519 367 l 276 367 l 276 74 l 654 74 l 654 236 l 742 236 l 742 0 l 54 0 m 261 860 l 376 1078 l 485 1078 l 600 860 l 522 860 l 431 1033 l 339 860 l 261 860 z "},"Ế":{"ha":808,"x_min":54,"x_max":742,"o":"m 54 0 l 54 74 l 163 74 l 163 708 l 54 708 l 54 782 l 735 782 l 735 550 l 647 550 l 647 708 l 276 708 l 276 443 l 519 443 l 519 535 l 576 535 l 576 274 l 519 274 l 519 367 l 276 367 l 276 74 l 654 74 l 654 236 l 742 236 l 742 0 l 54 0 m 261 860 l 376 1036 l 485 1036 l 600 860 l 522 860 l 431 992 l 339 860 l 261 860 m 561 986 l 621 1146 l 724 1146 l 626 986 l 561 986 z "},"Ệ":{"ha":808,"x_min":54,"x_max":742,"o":"m 54 0 l 54 74 l 163 74 l 163 708 l 54 708 l 54 782 l 735 782 l 735 550 l 647 550 l 647 708 l 276 708 l 276 443 l 519 443 l 519 535 l 576 535 l 576 274 l 519 274 l 519 367 l 276 367 l 276 74 l 654 74 l 654 236 l 742 236 l 742 0 l 54 0 m 261 860 l 376 1078 l 485 1078 l 600 860 l 522 860 l 431 1033 l 339 860 l 261 860 m 454 -194 q 407 -176 426 -194 q 388 -132 388 -157 q 454 -69 388 -69 q 501 -86 482 -69 q 519 -132 519 -103 q 503 -175 521 -156 q 454 -194 485 -194 z "},"Ề":{"ha":808,"x_min":54,"x_max":742,"o":"m 54 0 l 54 74 l 163 74 l 163 708 l 54 708 l 54 782 l 735 782 l 735 550 l 647 550 l 647 708 l 276 708 l 276 443 l 519 443 l 519 535 l 576 535 l 576 274 l 519 274 l 519 367 l 276 367 l 276 74 l 654 74 l 654 236 l 742 236 l 742 0 l 54 0 m 261 860 l 376 1036 l 485 1036 l 600 860 l 522 860 l 431 992 l 339 860 l 261 860 m 654 986 l 589 986 l 492 1146 l 594 1146 l 654 986 z "},"Ể":{"ha":808,"x_min":54,"x_max":742,"o":"m 54 0 l 54 74 l 163 74 l 163 708 l 54 708 l 54 782 l 735 782 l 735 550 l 647 550 l 647 708 l 276 708 l 276 443 l 519 443 l 519 535 l 576 535 l 576 274 l 519 274 l 519 367 l 276 367 l 276 74 l 654 74 l 654 236 l 742 236 l 742 0 l 54 0 m 261 860 l 376 1036 l 485 1036 l 600 860 l 522 860 l 431 992 l 339 860 l 261 860 m 567 972 l 547 1033 q 594 1083 594 1049 q 547 1121 594 1121 q 488 1103 519 1121 l 467 1161 q 506 1178 483 1171 q 554 1185 528 1185 q 637 1157 606 1185 q 668 1086 668 1129 q 567 972 668 1000 z "},"Ễ":{"ha":808,"x_min":54,"x_max":742,"o":"m 54 0 l 54 74 l 163 74 l 163 708 l 54 708 l 54 782 l 735 782 l 735 550 l 647 550 l 647 708 l 276 708 l 276 443 l 519 443 l 519 535 l 576 535 l 576 274 l 519 274 l 519 367 l 276 367 l 276 74 l 654 74 l 654 236 l 742 236 l 742 0 l 54 0 m 261 860 l 376 1036 l 485 1036 l 600 860 l 522 860 l 431 992 l 339 860 l 261 860 m 518 1072 q 420 1098 471 1072 q 333 1124 369 1124 q 290 1078 297 1124 l 247 1078 q 280 1171 253 1142 q 349 1200 307 1200 q 440 1174 389 1200 q 524 1149 492 1149 q 575 1197 564 1149 l 615 1197 q 589 1108 611 1144 q 518 1072 567 1072 z "},"Ȅ":{"ha":808,"x_min":54,"x_max":742,"o":"m 54 0 l 54 74 l 163 74 l 163 708 l 54 708 l 54 782 l 735 782 l 735 550 l 647 550 l 647 708 l 276 708 l 276 443 l 519 443 l 519 535 l 576 535 l 576 274 l 519 274 l 519 367 l 276 367 l 276 74 l 654 74 l 654 236 l 742 236 l 742 0 l 54 0 m 288 899 l 157 1110 l 274 1110 l 353 899 l 288 899 m 475 899 l 346 1110 l 463 1110 l 540 899 l 475 899 z "},"Ë":{"ha":808,"x_min":54,"x_max":742,"o":"m 54 0 l 54 74 l 163 74 l 163 708 l 54 708 l 54 782 l 735 782 l 735 550 l 647 550 l 647 708 l 276 708 l 276 443 l 519 443 l 519 535 l 576 535 l 576 274 l 519 274 l 519 367 l 276 367 l 276 74 l 654 74 l 654 236 l 742 236 l 742 0 l 54 0 m 297 871 q 252 887 269 871 q 235 931 235 903 q 252 974 235 958 q 297 990 269 990 q 342 974 325 990 q 360 931 360 958 q 342 887 360 903 q 297 871 325 871 m 564 871 q 519 887 536 871 q 503 931 503 903 q 519 974 503 958 q 564 990 536 990 q 609 974 592 990 q 626 931 626 958 q 609 887 626 903 q 564 871 592 871 z "},"Ė":{"ha":808,"x_min":54,"x_max":742,"o":"m 54 0 l 54 74 l 163 74 l 163 708 l 54 708 l 54 782 l 735 782 l 735 550 l 647 550 l 647 708 l 276 708 l 276 443 l 519 443 l 519 535 l 576 535 l 576 274 l 519 274 l 519 367 l 276 367 l 276 74 l 654 74 l 654 236 l 742 236 l 742 0 l 54 0 z "},"Ẹ":{"ha":808,"x_min":54,"x_max":742,"o":"m 54 0 l 54 74 l 163 74 l 163 708 l 54 708 l 54 782 l 735 782 l 735 550 l 647 550 l 647 708 l 276 708 l 276 443 l 519 443 l 519 535 l 576 535 l 576 274 l 519 274 l 519 367 l 276 367 l 276 74 l 654 74 l 654 236 l 742 236 l 742 0 l 54 0 m 454 -194 q 407 -176 426 -194 q 388 -132 388 -157 q 454 -69 388 -69 q 501 -86 482 -69 q 519 -132 519 -103 q 503 -175 521 -156 q 454 -194 485 -194 z "},"È":{"ha":808,"x_min":54,"x_max":742,"o":"m 54 0 l 54 74 l 163 74 l 163 708 l 54 708 l 54 782 l 735 782 l 735 550 l 647 550 l 647 708 l 276 708 l 276 443 l 519 443 l 519 535 l 576 535 l 576 274 l 519 274 l 519 367 l 276 367 l 276 74 l 654 74 l 654 236 l 742 236 l 742 0 l 54 0 m 397 899 l 272 1100 l 389 1100 l 463 899 l 397 899 z "},"Ẻ":{"ha":808,"x_min":54,"x_max":742,"o":"m 54 0 l 54 74 l 163 74 l 163 708 l 54 708 l 54 782 l 735 782 l 735 550 l 647 550 l 647 708 l 276 708 l 276 443 l 519 443 l 519 535 l 576 535 l 576 274 l 519 274 l 519 367 l 276 367 l 276 74 l 654 74 l 654 236 l 742 236 l 742 0 l 54 0 m 431 842 l 411 903 q 458 953 458 918 q 411 990 458 990 q 351 972 383 990 l 331 1031 q 369 1047 347 1040 q 418 1054 392 1054 q 501 1026 469 1054 q 532 956 532 999 q 431 842 532 869 z "},"Ȇ":{"ha":808,"x_min":54,"x_max":742,"o":"m 54 0 l 54 74 l 163 74 l 163 708 l 54 708 l 54 782 l 735 782 l 735 550 l 647 550 l 647 708 l 276 708 l 276 443 l 519 443 l 519 535 l 576 535 l 576 274 l 519 274 l 519 367 l 276 367 l 276 74 l 654 74 l 654 236 l 742 236 l 742 0 l 54 0 m 268 861 q 319 969 275 929 q 431 1010 363 1010 q 541 969 497 1010 q 592 861 585 929 l 510 861 q 431 932 497 932 q 350 861 363 932 l 268 861 z "},"Ē":{"ha":808,"x_min":54,"x_max":742,"o":"m 54 0 l 54 74 l 163 74 l 163 708 l 54 708 l 54 782 l 735 782 l 735 550 l 647 550 l 647 708 l 276 708 l 276 443 l 519 443 l 519 535 l 576 535 l 576 274 l 519 274 l 519 367 l 276 367 l 276 74 l 654 74 l 654 236 l 742 236 l 742 0 l 54 0 m 285 893 l 285 956 l 576 956 l 576 893 l 285 893 z "},"Ḗ":{"ha":808,"x_min":54,"x_max":742,"o":"m 54 0 l 54 74 l 163 74 l 163 708 l 54 708 l 54 782 l 735 782 l 735 550 l 647 550 l 647 708 l 276 708 l 276 443 l 519 443 l 519 535 l 576 535 l 576 274 l 519 274 l 519 367 l 276 367 l 276 74 l 654 74 l 654 236 l 742 236 l 742 0 l 54 0 m 285 893 l 285 956 l 576 956 l 576 893 l 285 893 m 399 1057 l 472 1258 l 589 1258 l 464 1057 l 399 1057 z "},"Ḕ":{"ha":808,"x_min":54,"x_max":742,"o":"m 54 0 l 54 74 l 163 74 l 163 708 l 54 708 l 54 782 l 735 782 l 735 550 l 647 550 l 647 708 l 276 708 l 276 443 l 519 443 l 519 535 l 576 535 l 576 274 l 519 274 l 519 367 l 276 367 l 276 74 l 654 74 l 654 236 l 742 236 l 742 0 l 54 0 m 285 893 l 285 956 l 576 956 l 576 893 l 285 893 m 397 1057 l 272 1258 l 389 1258 l 463 1057 l 397 1057 z "},"Ę":{"ha":808,"x_min":54,"x_max":742,"o":"m 54 0 l 54 74 l 163 74 l 163 708 l 54 708 l 54 782 l 735 782 l 735 550 l 647 550 l 647 708 l 276 708 l 276 443 l 519 443 l 519 535 l 576 535 l 576 274 l 519 274 l 519 367 l 276 367 l 276 74 l 654 74 l 654 236 l 742 236 l 742 0 l 54 0 m 636 -235 q 557 -206 589 -235 q 525 -132 525 -178 q 599 0 525 -69 l 658 0 q 613 -58 629 -31 q 596 -111 596 -86 q 661 -171 596 -171 q 722 -153 692 -171 l 722 -208 q 636 -235 679 -235 z "},"Ẽ":{"ha":808,"x_min":54,"x_max":742,"o":"m 54 0 l 54 74 l 163 74 l 163 708 l 54 708 l 54 782 l 735 782 l 735 550 l 647 550 l 647 708 l 276 708 l 276 443 l 519 443 l 519 535 l 576 535 l 576 274 l 519 274 l 519 367 l 276 367 l 276 74 l 654 74 l 654 236 l 742 236 l 742 0 l 54 0 m 518 889 q 420 915 471 889 q 333 940 369 940 q 290 894 297 940 l 247 894 q 280 988 253 958 q 349 1017 307 1017 q 440 991 389 1017 q 524 965 492 965 q 575 1014 564 965 l 615 1014 q 589 925 611 961 q 518 889 567 889 z "},"F":{"ha":753,"x_min":54,"x_max":722,"o":"m 54 0 l 54 74 l 163 74 l 163 708 l 54 708 l 54 782 l 722 782 l 722 544 l 635 544 l 635 708 l 276 708 l 276 446 l 513 446 l 513 531 l 571 531 l 571 276 l 513 276 l 513 367 l 276 367 l 276 74 l 385 74 l 385 0 l 54 0 z "},"Ḟ":{"ha":753,"x_min":54,"x_max":722,"o":"m 54 0 l 54 74 l 163 74 l 163 708 l 54 708 l 54 782 l 722 782 l 722 544 l 635 544 l 635 708 l 276 708 l 276 446 l 513 446 l 513 531 l 571 531 l 571 276 l 513 276 l 513 367 l 276 367 l 276 74 l 385 74 l 385 0 l 54 0 z "},"G":{"ha":950,"x_min":67,"x_max":888,"o":"m 494 -14 q 179 101 292 -14 q 67 393 67 215 q 185 685 67 575 q 492 796 304 796 q 683 747 606 796 q 801 621 761 699 l 760 621 l 760 782 l 850 782 l 850 540 l 769 540 q 660 669 732 625 q 496 714 589 714 q 272 629 354 714 q 189 400 189 544 q 272 158 189 247 q 499 69 356 69 q 638 98 575 71 q 739 181 701 125 q 776 326 776 236 l 839 317 l 611 317 l 611 394 l 888 394 l 888 353 q 842 159 888 242 q 708 31 796 76 q 494 -14 621 -14 z "},"Ǵ":{"ha":950,"x_min":67,"x_max":888,"o":"m 494 -14 q 179 101 292 -14 q 67 393 67 215 q 185 685 67 575 q 492 796 304 796 q 683 747 606 796 q 801 621 761 699 l 760 621 l 760 782 l 850 782 l 850 540 l 769 540 q 660 669 732 625 q 496 714 589 714 q 272 629 354 714 q 189 400 189 544 q 272 158 189 247 q 499 69 356 69 q 638 98 575 71 q 739 181 701 125 q 776 326 776 236 l 839 317 l 611 317 l 611 394 l 888 394 l 888 353 q 842 159 888 242 q 708 31 796 76 q 494 -14 621 -14 m 456 899 l 529 1100 l 646 1100 l 521 899 l 456 899 z "},"Ğ":{"ha":950,"x_min":67,"x_max":888,"o":"m 494 -14 q 179 101 292 -14 q 67 393 67 215 q 185 685 67 575 q 492 796 304 796 q 683 747 606 796 q 801 621 761 699 l 760 621 l 760 782 l 850 782 l 850 540 l 769 540 q 660 669 732 625 q 496 714 589 714 q 272 629 354 714 q 189 400 189 544 q 272 158 189 247 q 499 69 356 69 q 638 98 575 71 q 739 181 701 125 q 776 326 776 236 l 839 317 l 611 317 l 611 394 l 888 394 l 888 353 q 842 159 888 242 q 708 31 796 76 q 494 -14 621 -14 m 488 861 q 383 898 425 860 q 335 1000 342 936 l 403 1000 q 488 924 418 924 q 571 1000 558 924 l 640 1000 q 488 861 625 864 z "},"Ǧ":{"ha":950,"x_min":67,"x_max":888,"o":"m 494 -14 q 179 101 292 -14 q 67 393 67 215 q 185 685 67 575 q 492 796 304 796 q 683 747 606 796 q 801 621 761 699 l 760 621 l 760 782 l 850 782 l 850 540 l 769 540 q 660 669 732 625 q 496 714 589 714 q 272 629 354 714 q 189 400 189 544 q 272 158 189 247 q 499 69 356 69 q 638 98 575 71 q 739 181 701 125 q 776 326 776 236 l 839 317 l 611 317 l 611 394 l 888 394 l 888 353 q 842 159 888 242 q 708 31 796 76 q 494 -14 621 -14 m 439 858 l 326 1068 l 400 1068 l 489 917 l 575 1068 l 647 1068 l 538 858 l 439 858 z "},"Ĝ":{"ha":950,"x_min":67,"x_max":888,"o":"m 494 -14 q 179 101 292 -14 q 67 393 67 215 q 185 685 67 575 q 492 796 304 796 q 683 747 606 796 q 801 621 761 699 l 760 621 l 760 782 l 850 782 l 850 540 l 769 540 q 660 669 732 625 q 496 714 589 714 q 272 629 354 714 q 189 400 189 544 q 272 158 189 247 q 499 69 356 69 q 638 98 575 71 q 739 181 701 125 q 776 326 776 236 l 839 317 l 611 317 l 611 394 l 888 394 l 888 353 q 842 159 888 242 q 708 31 796 76 q 494 -14 621 -14 m 318 860 l 433 1078 l 542 1078 l 657 860 l 579 860 l 488 1033 l 396 860 l 318 860 z "},"Ģ":{"ha":950,"x_min":67,"x_max":888,"o":"m 494 -14 q 179 101 292 -14 q 67 393 67 215 q 185 685 67 575 q 492 796 304 796 q 683 747 606 796 q 801 621 761 699 l 760 621 l 760 782 l 850 782 l 850 540 l 769 540 q 660 669 732 625 q 496 714 589 714 q 272 629 354 714 q 189 400 189 544 q 272 158 189 247 q 499 69 356 69 q 638 98 575 71 q 739 181 701 125 q 776 326 776 236 l 839 317 l 611 317 l 611 394 l 888 394 l 888 353 q 842 159 888 242 q 708 31 796 76 q 494 -14 621 -14 m 415 -328 l 415 -283 q 474 -253 456 -276 q 493 -190 493 -231 l 418 -190 l 418 -69 l 550 -69 l 550 -193 q 517 -292 550 -256 q 415 -328 485 -328 z "},"Ġ":{"ha":950,"x_min":67,"x_max":888,"o":"m 494 -14 q 179 101 292 -14 q 67 393 67 215 q 185 685 67 575 q 492 796 304 796 q 683 747 606 796 q 801 621 761 699 l 760 621 l 760 782 l 850 782 l 850 540 l 769 540 q 660 669 732 625 q 496 714 589 714 q 272 629 354 714 q 189 400 189 544 q 272 158 189 247 q 499 69 356 69 q 638 98 575 71 q 739 181 701 125 q 776 326 776 236 l 839 317 l 611 317 l 611 394 l 888 394 l 888 353 q 842 159 888 242 q 708 31 796 76 q 494 -14 621 -14 z "},"Ḡ":{"ha":950,"x_min":67,"x_max":888,"o":"m 494 -14 q 179 101 292 -14 q 67 393 67 215 q 185 685 67 575 q 492 796 304 796 q 683 747 606 796 q 801 621 761 699 l 760 621 l 760 782 l 850 782 l 850 540 l 769 540 q 660 669 732 625 q 496 714 589 714 q 272 629 354 714 q 189 400 189 544 q 272 158 189 247 q 499 69 356 69 q 638 98 575 71 q 739 181 701 125 q 776 326 776 236 l 839 317 l 611 317 l 611 394 l 888 394 l 888 353 q 842 159 888 242 q 708 31 796 76 q 494 -14 621 -14 m 342 893 l 342 956 l 633 956 l 633 893 l 342 893 z "},"H":{"ha":968,"x_min":54,"x_max":914,"o":"m 54 0 l 54 74 l 163 74 l 163 708 l 54 708 l 54 782 l 385 782 l 385 708 l 276 708 l 276 442 l 693 442 l 693 708 l 583 708 l 583 782 l 914 782 l 914 708 l 806 708 l 806 74 l 914 74 l 914 0 l 583 0 l 583 74 l 693 74 l 693 363 l 276 363 l 276 74 l 385 74 l 385 0 l 54 0 z "},"Ħ":{"ha":968,"x_min":54,"x_max":914,"o":"m 54 0 l 54 74 l 163 74 l 163 708 l 54 708 l 54 782 l 385 782 l 385 708 l 276 708 l 276 442 l 693 442 l 693 708 l 583 708 l 583 782 l 914 782 l 914 708 l 806 708 l 806 74 l 914 74 l 914 0 l 583 0 l 583 74 l 693 74 l 693 363 l 276 363 l 276 74 l 385 74 l 385 0 l 54 0 m 76 611 l 894 611 l 894 544 l 76 544 l 76 611 z "},"Ḫ":{"ha":968,"x_min":54,"x_max":914,"o":"m 54 0 l 54 74 l 163 74 l 163 708 l 54 708 l 54 782 l 385 782 l 385 708 l 276 708 l 276 442 l 693 442 l 693 708 l 583 708 l 583 782 l 914 782 l 914 708 l 806 708 l 806 74 l 914 74 l 914 0 l 583 0 l 583 74 l 693 74 l 693 363 l 276 363 l 276 74 l 385 74 l 385 0 l 54 0 z "},"Ȟ":{"ha":968,"x_min":54,"x_max":914,"o":"m 54 0 l 54 74 l 163 74 l 163 708 l 54 708 l 54 782 l 385 782 l 385 708 l 276 708 l 276 442 l 693 442 l 693 708 l 583 708 l 583 782 l 914 782 l 914 708 l 806 708 l 806 74 l 914 74 l 914 0 l 583 0 l 583 74 l 693 74 l 693 363 l 276 363 l 276 74 l 385 74 l 385 0 l 54 0 m 440 858 l 328 1068 l 401 1068 l 490 917 l 576 1068 l 649 1068 l 539 858 l 440 858 z "},"Ĥ":{"ha":968,"x_min":54,"x_max":914,"o":"m 54 0 l 54 74 l 163 74 l 163 708 l 54 708 l 54 782 l 385 782 l 385 708 l 276 708 l 276 442 l 693 442 l 693 708 l 583 708 l 583 782 l 914 782 l 914 708 l 806 708 l 806 74 l 914 74 l 914 0 l 583 0 l 583 74 l 693 74 l 693 363 l 276 363 l 276 74 l 385 74 l 385 0 l 54 0 m 319 860 l 435 1078 l 543 1078 l 658 860 l 581 860 l 489 1033 l 397 860 l 319 860 z "},"Ḥ":{"ha":968,"x_min":54,"x_max":914,"o":"m 54 0 l 54 74 l 163 74 l 163 708 l 54 708 l 54 782 l 385 782 l 385 708 l 276 708 l 276 442 l 693 442 l 693 708 l 583 708 l 583 782 l 914 782 l 914 708 l 806 708 l 806 74 l 914 74 l 914 0 l 583 0 l 583 74 l 693 74 l 693 363 l 276 363 l 276 74 l 385 74 l 385 0 l 54 0 m 482 -194 q 435 -176 454 -194 q 415 -132 415 -157 q 482 -69 415 -69 q 528 -86 510 -69 q 547 -132 547 -103 q 531 -175 549 -156 q 482 -194 513 -194 z "},"I":{"ha":471,"x_min":69,"x_max":401,"o":"m 69 0 l 69 74 l 178 74 l 178 708 l 69 708 l 69 782 l 401 782 l 401 708 l 292 708 l 292 74 l 401 74 l 401 0 l 69 0 z "},"Ĳ":{"ha":924,"x_min":69,"x_max":893,"o":"m 69 0 l 69 74 l 178 74 l 178 708 l 69 708 l 69 782 l 401 782 l 401 708 l 292 708 l 292 74 l 401 74 l 401 0 l 69 0 m 517 -147 l 517 -58 l 600 -58 q 665 -28 651 -58 q 679 56 679 3 l 679 708 l 572 708 l 572 782 l 893 782 l 893 708 l 792 708 l 792 57 q 753 -96 792 -44 q 618 -147 714 -147 l 517 -147 z "},"Í":{"ha":471,"x_min":69,"x_max":401,"o":"m 69 0 l 69 74 l 178 74 l 178 708 l 69 708 l 69 782 l 401 782 l 401 708 l 292 708 l 292 74 l 401 74 l 401 0 l 69 0 m 204 899 l 278 1100 l 394 1100 l 269 899 l 204 899 z "},"Ĭ":{"ha":471,"x_min":69,"x_max":401,"o":"m 69 0 l 69 74 l 178 74 l 178 708 l 69 708 l 69 782 l 401 782 l 401 708 l 292 708 l 292 74 l 401 74 l 401 0 l 69 0 m 236 861 q 132 898 174 860 q 83 1000 90 936 l 151 1000 q 236 924 167 924 q 319 1000 307 924 l 389 1000 q 236 861 374 864 z "},"Ǐ":{"ha":471,"x_min":69,"x_max":401,"o":"m 69 0 l 69 74 l 178 74 l 178 708 l 69 708 l 69 782 l 401 782 l 401 708 l 292 708 l 292 74 l 401 74 l 401 0 l 69 0 m 188 858 l 75 1068 l 149 1068 l 238 917 l 324 1068 l 396 1068 l 286 858 l 188 858 z "},"Î":{"ha":471,"x_min":67,"x_max":406,"o":"m 69 0 l 69 74 l 178 74 l 178 708 l 69 708 l 69 782 l 401 782 l 401 708 l 292 708 l 292 74 l 401 74 l 401 0 l 69 0 m 67 860 l 182 1078 l 290 1078 l 406 860 l 328 860 l 236 1033 l 144 860 l 67 860 z "},"Ȉ":{"ha":471,"x_min":-37,"x_max":401,"o":"m 69 0 l 69 74 l 178 74 l 178 708 l 69 708 l 69 782 l 401 782 l 401 708 l 292 708 l 292 74 l 401 74 l 401 0 l 69 0 m 93 899 l -37 1110 l 79 1110 l 158 899 l 93 899 m 281 899 l 151 1110 l 268 1110 l 346 899 l 281 899 z "},"Ï":{"ha":471,"x_min":40,"x_max":432,"o":"m 69 0 l 69 74 l 178 74 l 178 708 l 69 708 l 69 782 l 401 782 l 401 708 l 292 708 l 292 74 l 401 74 l 401 0 l 69 0 m 103 871 q 58 887 75 871 q 40 931 40 903 q 58 974 40 958 q 103 990 75 990 q 148 974 131 990 q 165 931 165 958 q 148 887 165 903 q 103 871 131 871 m 369 871 q 325 887 342 871 q 308 931 308 903 q 325 974 308 958 q 369 990 342 990 q 415 974 397 990 q 432 931 432 958 q 415 887 432 903 q 369 871 397 871 z "},"Ḯ":{"ha":471,"x_min":40,"x_max":432,"o":"m 69 0 l 69 74 l 178 74 l 178 708 l 69 708 l 69 782 l 401 782 l 401 708 l 292 708 l 292 74 l 401 74 l 401 0 l 69 0 m 103 871 q 58 887 75 871 q 40 931 40 903 q 58 974 40 958 q 103 990 75 990 q 148 974 131 990 q 165 931 165 958 q 148 887 165 903 q 103 871 131 871 m 369 871 q 325 887 342 871 q 308 931 308 903 q 325 974 308 958 q 369 990 342 990 q 415 974 397 990 q 432 931 432 958 q 415 887 432 903 q 369 871 397 871 m 204 1107 l 278 1308 l 394 1308 l 269 1107 l 204 1107 z "},"İ":{"ha":471,"x_min":69,"x_max":401,"o":"m 69 0 l 69 74 l 178 74 l 178 708 l 69 708 l 69 782 l 401 782 l 401 708 l 292 708 l 292 74 l 401 74 l 401 0 l 69 0 m 236 875 q 189 894 208 875 q 169 938 169 913 q 188 982 169 964 q 236 1000 207 1000 q 283 983 264 1000 q 301 938 301 967 q 285 894 303 914 q 236 875 267 875 z "},"Ị":{"ha":471,"x_min":69,"x_max":401,"o":"m 69 0 l 69 74 l 178 74 l 178 708 l 69 708 l 69 782 l 401 782 l 401 708 l 292 708 l 292 74 l 401 74 l 401 0 l 69 0 m 235 -194 q 188 -176 207 -194 q 168 -132 168 -157 q 235 -69 168 -69 q 281 -86 263 -69 q 300 -132 300 -103 q 283 -175 301 -156 q 235 -194 265 -194 z "},"Ì":{"ha":471,"x_min":69,"x_max":401,"o":"m 69 0 l 69 74 l 178 74 l 178 708 l 69 708 l 69 782 l 401 782 l 401 708 l 292 708 l 292 74 l 401 74 l 401 0 l 69 0 m 203 899 l 78 1100 l 194 1100 l 268 899 l 203 899 z "},"Ỉ":{"ha":471,"x_min":69,"x_max":401,"o":"m 69 0 l 69 74 l 178 74 l 178 708 l 69 708 l 69 782 l 401 782 l 401 708 l 292 708 l 292 74 l 401 74 l 401 0 l 69 0 m 236 842 l 217 903 q 264 953 264 918 q 217 990 264 990 q 157 972 189 990 l 136 1031 q 175 1047 153 1040 q 224 1054 197 1054 q 306 1026 275 1054 q 338 956 338 999 q 236 842 338 869 z "},"Ȋ":{"ha":471,"x_min":69,"x_max":401,"o":"m 69 0 l 69 74 l 178 74 l 178 708 l 69 708 l 69 782 l 401 782 l 401 708 l 292 708 l 292 74 l 401 74 l 401 0 l 69 0 m 74 861 q 124 969 81 929 q 236 1010 168 1010 q 347 969 303 1010 q 397 861 390 929 l 315 861 q 236 932 303 932 q 156 861 168 932 l 74 861 z "},"Ī":{"ha":471,"x_min":69,"x_max":401,"o":"m 69 0 l 69 74 l 178 74 l 178 708 l 69 708 l 69 782 l 401 782 l 401 708 l 292 708 l 292 74 l 401 74 l 401 0 l 69 0 m 90 893 l 90 956 l 382 956 l 382 893 l 90 893 z "},"Į":{"ha":471,"x_min":69,"x_max":401,"o":"m 69 0 l 69 74 l 178 74 l 178 708 l 69 708 l 69 782 l 401 782 l 401 708 l 292 708 l 292 74 l 401 74 l 401 0 l 69 0 m 240 -235 q 161 -206 193 -235 q 129 -132 129 -178 q 203 0 129 -69 l 263 0 q 217 -58 233 -31 q 200 -111 200 -86 q 265 -171 200 -171 q 326 -153 296 -171 l 326 -208 q 240 -235 283 -235 z "},"Ĩ":{"ha":471,"x_min":53,"x_max":421,"o":"m 69 0 l 69 74 l 178 74 l 178 708 l 69 708 l 69 782 l 401 782 l 401 708 l 292 708 l 292 74 l 401 74 l 401 0 l 69 0 m 324 889 q 226 915 276 889 q 139 940 175 940 q 96 894 103 940 l 53 894 q 85 988 58 958 q 154 1017 113 1017 q 246 991 194 1017 q 329 965 297 965 q 381 1014 369 965 l 421 1014 q 394 925 417 961 q 324 889 372 889 z "},"J":{"ha":453,"x_min":46,"x_max":422,"o":"m 46 -147 l 46 -58 l 129 -58 q 194 -28 181 -58 q 208 56 208 3 l 208 708 l 101 708 l 101 782 l 422 782 l 422 708 l 321 708 l 321 57 q 282 -96 321 -44 q 147 -147 243 -147 l 46 -147 z "},"Ĵ":{"ha":453,"x_min":46,"x_max":435,"o":"m 46 -147 l 46 -58 l 129 -58 q 194 -28 181 -58 q 208 56 208 3 l 208 708 l 101 708 l 101 782 l 422 782 l 422 708 l 321 708 l 321 57 q 282 -96 321 -44 q 147 -147 243 -147 l 46 -147 m 96 860 l 211 1078 l 319 1078 l 435 860 l 357 860 l 265 1033 l 174 860 l 96 860 z "},"K":{"ha":879,"x_min":54,"x_max":840,"o":"m 54 0 l 54 74 l 163 74 l 163 708 l 54 708 l 54 782 l 385 782 l 385 708 l 276 708 l 276 410 l 599 708 l 510 708 l 510 782 l 833 782 l 833 708 l 731 708 l 392 394 l 736 74 l 840 74 l 840 0 l 506 0 l 506 74 l 597 74 l 276 371 l 276 74 l 385 74 l 385 0 l 54 0 z "},"Ǩ":{"ha":879,"x_min":54,"x_max":840,"o":"m 54 0 l 54 74 l 163 74 l 163 708 l 54 708 l 54 782 l 385 782 l 385 708 l 276 708 l 276 410 l 599 708 l 510 708 l 510 782 l 833 782 l 833 708 l 731 708 l 392 394 l 736 74 l 840 74 l 840 0 l 506 0 l 506 74 l 597 74 l 276 371 l 276 74 l 385 74 l 385 0 l 54 0 m 392 858 l 279 1068 l 353 1068 l 442 917 l 528 1068 l 600 1068 l 490 858 l 392 858 z "},"Ķ":{"ha":879,"x_min":54,"x_max":840,"o":"m 54 0 l 54 74 l 163 74 l 163 708 l 54 708 l 54 782 l 385 782 l 385 708 l 276 708 l 276 410 l 599 708 l 510 708 l 510 782 l 833 782 l 833 708 l 731 708 l 392 394 l 736 74 l 840 74 l 840 0 l 506 0 l 506 74 l 597 74 l 276 371 l 276 74 l 385 74 l 385 0 l 54 0 m 374 -328 l 374 -283 q 433 -253 414 -276 q 451 -190 451 -231 l 376 -190 l 376 -69 l 508 -69 l 508 -193 q 476 -292 508 -256 q 374 -328 443 -328 z "},"L":{"ha":729,"x_min":54,"x_max":693,"o":"m 54 0 l 54 74 l 163 74 l 163 708 l 54 708 l 54 782 l 385 782 l 385 708 l 276 708 l 276 74 l 601 74 l 601 314 l 693 314 l 693 0 l 54 0 z "},"Ǉ":{"ha":1182,"x_min":54,"x_max":1151,"o":"m 54 0 l 54 74 l 163 74 l 163 708 l 54 708 l 54 782 l 385 782 l 385 708 l 276 708 l 276 74 l 601 74 l 601 314 l 693 314 l 693 0 l 54 0 m 775 -147 l 775 -58 l 858 -58 q 924 -28 910 -58 q 938 56 938 3 l 938 708 l 831 708 l 831 782 l 1151 782 l 1151 708 l 1050 708 l 1050 57 q 1011 -96 1050 -44 q 876 -147 972 -147 l 775 -147 z "},"Ĺ":{"ha":729,"x_min":54,"x_max":693,"o":"m 54 0 l 54 74 l 163 74 l 163 708 l 54 708 l 54 782 l 385 782 l 385 708 l 276 708 l 276 74 l 601 74 l 601 314 l 693 314 l 693 0 l 54 0 m 188 899 l 261 1100 l 378 1100 l 253 899 l 188 899 z "},"Ľ":{"ha":729,"x_min":54,"x_max":693,"o":"m 54 0 l 54 74 l 163 74 l 163 708 l 54 708 l 54 782 l 385 782 l 385 708 l 276 708 l 276 74 l 601 74 l 601 314 l 693 314 l 693 0 l 54 0 z "},"Ļ":{"ha":729,"x_min":54,"x_max":693,"o":"m 54 0 l 54 74 l 163 74 l 163 708 l 54 708 l 54 782 l 385 782 l 385 708 l 276 708 l 276 74 l 601 74 l 601 314 l 693 314 l 693 0 l 54 0 m 317 -328 l 317 -283 q 376 -253 357 -276 q 394 -190 394 -231 l 319 -190 l 319 -69 l 451 -69 l 451 -193 q 419 -292 451 -256 q 317 -328 386 -328 z "},"Ŀ":{"ha":729,"x_min":54,"x_max":693,"o":"m 54 0 l 54 74 l 163 74 l 163 708 l 54 708 l 54 782 l 385 782 l 385 708 l 276 708 l 276 74 l 601 74 l 601 314 l 693 314 l 693 0 l 54 0 m 582 460 q 528 481 550 460 q 507 531 507 501 q 528 580 507 560 q 582 600 550 600 q 635 580 614 600 q 657 531 657 560 q 635 481 657 501 q 582 460 614 460 z "},"Ḷ":{"ha":729,"x_min":54,"x_max":693,"o":"m 54 0 l 54 74 l 163 74 l 163 708 l 54 708 l 54 782 l 385 782 l 385 708 l 276 708 l 276 74 l 601 74 l 601 314 l 693 314 l 693 0 l 54 0 m 383 -194 q 336 -176 356 -194 q 317 -132 317 -157 q 383 -69 317 -69 q 430 -86 411 -69 q 449 -132 449 -103 q 432 -175 450 -156 q 383 -194 414 -194 z "},"ǈ":{"ha":1075,"x_min":54,"x_max":990,"o":"m 54 0 l 54 74 l 163 74 l 163 708 l 54 708 l 54 782 l 385 782 l 385 708 l 276 708 l 276 74 l 601 74 l 601 314 l 693 314 l 693 0 l 54 0 m 736 -211 l 736 -131 l 794 -131 q 868 -103 851 -131 q 885 -19 885 -76 l 885 472 l 774 472 l 774 546 l 989 546 l 989 6 q 958 -149 989 -87 q 796 -211 928 -211 l 736 -211 m 915 665 q 863 685 885 665 q 840 738 840 706 q 863 787 840 767 q 915 807 885 807 q 969 787 947 807 q 990 738 990 767 q 969 685 990 706 q 915 665 947 665 z "},"Ḻ":{"ha":729,"x_min":54,"x_max":693,"o":"m 54 0 l 54 74 l 163 74 l 163 708 l 54 708 l 54 782 l 385 782 l 385 708 l 276 708 l 276 74 l 601 74 l 601 314 l 693 314 l 693 0 l 54 0 z "},"Ł":{"ha":729,"x_min":54,"x_max":693,"o":"m 54 276 l 54 347 l 469 557 l 469 482 l 54 276 m 54 0 l 54 74 l 163 74 l 163 708 l 54 708 l 54 782 l 385 782 l 385 708 l 276 708 l 276 74 l 601 74 l 601 314 l 693 314 l 693 0 l 54 0 z "},"M":{"ha":1144,"x_min":56,"x_max":1089,"o":"m 56 0 l 56 74 l 161 74 l 161 708 l 56 708 l 56 782 l 321 782 l 576 233 l 819 782 l 1089 782 l 1089 708 l 983 708 l 983 74 l 1089 74 l 1089 0 l 774 0 l 774 74 l 875 74 l 875 689 l 581 40 l 544 40 l 246 689 l 246 74 l 347 74 l 347 0 l 56 0 z "},"Ṁ":{"ha":1144,"x_min":56,"x_max":1089,"o":"m 56 0 l 56 74 l 161 74 l 161 708 l 56 708 l 56 782 l 321 782 l 576 233 l 819 782 l 1089 782 l 1089 708 l 983 708 l 983 74 l 1089 74 l 1089 0 l 774 0 l 774 74 l 875 74 l 875 689 l 581 40 l 544 40 l 246 689 l 246 74 l 347 74 l 347 0 l 56 0 z "},"Ṃ":{"ha":1144,"x_min":56,"x_max":1089,"o":"m 56 0 l 56 74 l 161 74 l 161 708 l 56 708 l 56 782 l 321 782 l 576 233 l 819 782 l 1089 782 l 1089 708 l 983 708 l 983 74 l 1089 74 l 1089 0 l 774 0 l 774 74 l 875 74 l 875 689 l 581 40 l 544 40 l 246 689 l 246 74 l 347 74 l 347 0 l 56 0 m 563 -194 q 515 -176 535 -194 q 496 -132 496 -157 q 563 -69 496 -69 q 609 -86 590 -69 q 628 -132 628 -103 q 611 -175 629 -156 q 563 -194 593 -194 z "},"N":{"ha":978,"x_min":57,"x_max":942,"o":"m 57 0 l 57 74 l 168 74 l 168 708 l 57 708 l 57 782 l 299 782 l 746 150 l 746 708 l 635 708 l 635 782 l 942 782 l 942 708 l 833 708 l 833 0 l 721 0 l 254 665 l 254 74 l 365 74 l 365 0 l 57 0 z "},"Ǌ":{"ha":1431,"x_min":57,"x_max":1400,"o":"m 57 0 l 57 74 l 168 74 l 168 708 l 57 708 l 57 782 l 299 782 l 746 150 l 746 708 l 635 708 l 635 782 l 942 782 l 942 708 l 833 708 l 833 0 l 721 0 l 254 665 l 254 74 l 365 74 l 365 0 l 57 0 m 1024 -147 l 1024 -58 l 1107 -58 q 1172 -28 1158 -58 q 1186 56 1186 3 l 1186 708 l 1079 708 l 1079 782 l 1400 782 l 1400 708 l 1299 708 l 1299 57 q 1260 -96 1299 -44 q 1125 -147 1221 -147 l 1024 -147 z "},"Ń":{"ha":978,"x_min":57,"x_max":942,"o":"m 57 0 l 57 74 l 168 74 l 168 708 l 57 708 l 57 782 l 299 782 l 746 150 l 746 708 l 635 708 l 635 782 l 942 782 l 942 708 l 833 708 l 833 0 l 721 0 l 254 665 l 254 74 l 365 74 l 365 0 l 57 0 m 456 899 l 529 1100 l 646 1100 l 521 899 l 456 899 z "},"Ň":{"ha":978,"x_min":57,"x_max":942,"o":"m 57 0 l 57 74 l 168 74 l 168 708 l 57 708 l 57 782 l 299 782 l 746 150 l 746 708 l 635 708 l 635 782 l 942 782 l 942 708 l 833 708 l 833 0 l 721 0 l 254 665 l 254 74 l 365 74 l 365 0 l 57 0 m 439 858 l 326 1068 l 400 1068 l 489 917 l 575 1068 l 647 1068 l 538 858 l 439 858 z "},"Ņ":{"ha":978,"x_min":57,"x_max":942,"o":"m 57 0 l 57 74 l 168 74 l 168 708 l 57 708 l 57 782 l 299 782 l 746 150 l 746 708 l 635 708 l 635 782 l 942 782 l 942 708 l 833 708 l 833 0 l 721 0 l 254 665 l 254 74 l 365 74 l 365 0 l 57 0 m 444 -328 l 444 -283 q 503 -253 485 -276 q 522 -190 522 -231 l 447 -190 l 447 -69 l 579 -69 l 579 -193 q 547 -292 579 -256 q 444 -328 514 -328 z "},"Ṅ":{"ha":978,"x_min":57,"x_max":942,"o":"m 57 0 l 57 74 l 168 74 l 168 708 l 57 708 l 57 782 l 299 782 l 746 150 l 746 708 l 635 708 l 635 782 l 942 782 l 942 708 l 833 708 l 833 0 l 721 0 l 254 665 l 254 74 l 365 74 l 365 0 l 57 0 m 488 875 q 440 894 460 875 q 421 938 421 913 q 440 982 421 964 q 488 1000 458 1000 q 534 983 515 1000 q 553 938 553 967 q 536 894 554 914 q 488 875 518 875 z "},"Ṇ":{"ha":978,"x_min":57,"x_max":942,"o":"m 57 0 l 57 74 l 168 74 l 168 708 l 57 708 l 57 782 l 299 782 l 746 150 l 746 708 l 635 708 l 635 782 l 942 782 l 942 708 l 833 708 l 833 0 l 721 0 l 254 665 l 254 74 l 365 74 l 365 0 l 57 0 m 511 -194 q 464 -176 483 -194 q 444 -132 444 -157 q 511 -69 444 -69 q 558 -86 539 -69 q 576 -132 576 -103 q 560 -175 578 -156 q 511 -194 542 -194 z "},"Ǹ":{"ha":978,"x_min":57,"x_max":942,"o":"m 57 0 l 57 74 l 168 74 l 168 708 l 57 708 l 57 782 l 299 782 l 746 150 l 746 708 l 635 708 l 635 782 l 942 782 l 942 708 l 833 708 l 833 0 l 721 0 l 254 665 l 254 74 l 365 74 l 365 0 l 57 0 m 454 899 l 329 1100 l 446 1100 l 519 899 l 454 899 z "},"Ŋ":{"ha":975,"x_min":54,"x_max":939,"o":"m 543 -256 l 543 -181 l 568 -181 q 699 -139 654 -181 q 743 -19 744 -97 l 251 665 l 251 74 l 363 74 l 363 0 l 54 0 l 54 74 l 165 74 l 165 708 l 54 708 l 54 782 l 296 782 l 743 150 l 743 708 l 632 708 l 632 782 l 939 782 l 939 708 l 831 708 l 831 -1 q 756 -194 831 -133 q 571 -256 681 -256 l 543 -256 z "},"ǋ":{"ha":1324,"x_min":57,"x_max":1239,"o":"m 57 0 l 57 74 l 168 74 l 168 708 l 57 708 l 57 782 l 299 782 l 746 150 l 746 708 l 635 708 l 635 782 l 942 782 l 942 708 l 833 708 l 833 0 l 721 0 l 254 665 l 254 74 l 365 74 l 365 0 l 57 0 m 985 -211 l 985 -131 l 1043 -131 q 1117 -103 1100 -131 q 1133 -19 1133 -76 l 1133 472 l 1022 472 l 1022 546 l 1238 546 l 1238 6 q 1207 -149 1238 -87 q 1044 -211 1176 -211 l 985 -211 m 1164 665 q 1111 685 1133 665 q 1089 738 1089 706 q 1111 787 1089 767 q 1164 807 1133 807 q 1217 787 1196 807 q 1239 738 1239 767 q 1217 685 1239 706 q 1164 665 1196 665 z "},"Ṉ":{"ha":978,"x_min":57,"x_max":942,"o":"m 57 0 l 57 74 l 168 74 l 168 708 l 57 708 l 57 782 l 299 782 l 746 150 l 746 708 l 635 708 l 635 782 l 942 782 l 942 708 l 833 708 l 833 0 l 721 0 l 254 665 l 254 74 l 365 74 l 365 0 l 57 0 z "},"Ñ":{"ha":978,"x_min":57,"x_max":942,"o":"m 57 0 l 57 74 l 168 74 l 168 708 l 57 708 l 57 782 l 299 782 l 746 150 l 746 708 l 635 708 l 635 782 l 942 782 l 942 708 l 833 708 l 833 0 l 721 0 l 254 665 l 254 74 l 365 74 l 365 0 l 57 0 m 575 889 q 477 915 528 889 q 390 940 426 940 q 347 894 354 940 l 304 894 q 337 988 310 958 q 406 1017 364 1017 q 497 991 446 1017 q 581 965 549 965 q 632 1014 621 965 l 672 1014 q 646 925 668 961 q 575 889 624 889 z "},"O":{"ha":985,"x_min":68,"x_max":915,"o":"m 492 -15 q 268 40 364 -15 q 120 188 172 96 q 68 389 68 281 q 120 591 68 499 q 268 740 172 683 q 492 796 364 796 q 715 740 619 796 q 863 591 811 683 q 915 389 915 499 q 863 188 915 279 q 716 40 811 96 q 492 -15 621 -15 m 492 68 q 654 112 586 68 q 758 228 722 156 q 794 389 794 300 q 758 551 794 478 q 654 669 722 625 q 492 714 586 714 q 328 669 396 714 q 226 551 261 625 q 190 388 190 478 q 226 226 190 299 q 328 111 261 154 q 492 68 396 68 z "},"Ó":{"ha":985,"x_min":68,"x_max":915,"o":"m 492 -15 q 268 40 364 -15 q 120 188 172 96 q 68 389 68 281 q 120 591 68 499 q 268 740 172 683 q 492 796 364 796 q 715 740 619 796 q 863 591 811 683 q 915 389 915 499 q 863 188 915 279 q 716 40 811 96 q 492 -15 621 -15 m 492 68 q 654 112 586 68 q 758 228 722 156 q 794 389 794 300 q 758 551 794 478 q 654 669 722 625 q 492 714 586 714 q 328 669 396 714 q 226 551 261 625 q 190 388 190 478 q 226 226 190 299 q 328 111 261 154 q 492 68 396 68 m 458 899 l 532 1100 l 649 1100 l 524 899 l 458 899 z "},"Ŏ":{"ha":985,"x_min":68,"x_max":915,"o":"m 492 -15 q 268 40 364 -15 q 120 188 172 96 q 68 389 68 281 q 120 591 68 499 q 268 740 172 683 q 492 796 364 796 q 715 740 619 796 q 863 591 811 683 q 915 389 915 499 q 863 188 915 279 q 716 40 811 96 q 492 -15 621 -15 m 492 68 q 654 112 586 68 q 758 228 722 156 q 794 389 794 300 q 758 551 794 478 q 654 669 722 625 q 492 714 586 714 q 328 669 396 714 q 226 551 261 625 q 190 388 190 478 q 226 226 190 299 q 328 111 261 154 q 492 68 396 68 m 490 861 q 386 898 428 860 q 338 1000 344 936 l 406 1000 q 490 924 421 924 q 574 1000 561 924 l 643 1000 q 490 861 628 864 z "},"Ǒ":{"ha":985,"x_min":68,"x_max":915,"o":"m 492 -15 q 268 40 364 -15 q 120 188 172 96 q 68 389 68 281 q 120 591 68 499 q 268 740 172 683 q 492 796 364 796 q 715 740 619 796 q 863 591 811 683 q 915 389 915 499 q 863 188 915 279 q 716 40 811 96 q 492 -15 621 -15 m 492 68 q 654 112 586 68 q 758 228 722 156 q 794 389 794 300 q 758 551 794 478 q 654 669 722 625 q 492 714 586 714 q 328 669 396 714 q 226 551 261 625 q 190 388 190 478 q 226 226 190 299 q 328 111 261 154 q 492 68 396 68 m 442 858 l 329 1068 l 403 1068 l 492 917 l 578 1068 l 650 1068 l 540 858 l 442 858 z "},"Ô":{"ha":985,"x_min":68,"x_max":915,"o":"m 492 -15 q 268 40 364 -15 q 120 188 172 96 q 68 389 68 281 q 120 591 68 499 q 268 740 172 683 q 492 796 364 796 q 715 740 619 796 q 863 591 811 683 q 915 389 915 499 q 863 188 915 279 q 716 40 811 96 q 492 -15 621 -15 m 492 68 q 654 112 586 68 q 758 228 722 156 q 794 389 794 300 q 758 551 794 478 q 654 669 722 625 q 492 714 586 714 q 328 669 396 714 q 226 551 261 625 q 190 388 190 478 q 226 226 190 299 q 328 111 261 154 q 492 68 396 68 m 321 860 l 436 1078 l 544 1078 l 660 860 l 582 860 l 490 1033 l 399 860 l 321 860 z "},"Ố":{"ha":985,"x_min":68,"x_max":915,"o":"m 492 -15 q 268 40 364 -15 q 120 188 172 96 q 68 389 68 281 q 120 591 68 499 q 268 740 172 683 q 492 796 364 796 q 715 740 619 796 q 863 591 811 683 q 915 389 915 499 q 863 188 915 279 q 716 40 811 96 q 492 -15 621 -15 m 492 68 q 654 112 586 68 q 758 228 722 156 q 794 389 794 300 q 758 551 794 478 q 654 669 722 625 q 492 714 586 714 q 328 669 396 714 q 226 551 261 625 q 190 388 190 478 q 226 226 190 299 q 328 111 261 154 q 492 68 396 68 m 321 860 l 436 1036 l 544 1036 l 660 860 l 582 860 l 490 992 l 399 860 l 321 860 m 621 986 l 681 1146 l 783 1146 l 686 986 l 621 986 z "},"Ộ":{"ha":985,"x_min":68,"x_max":915,"o":"m 492 -15 q 268 40 364 -15 q 120 188 172 96 q 68 389 68 281 q 120 591 68 499 q 268 740 172 683 q 492 796 364 796 q 715 740 619 796 q 863 591 811 683 q 915 389 915 499 q 863 188 915 279 q 716 40 811 96 q 492 -15 621 -15 m 492 68 q 654 112 586 68 q 758 228 722 156 q 794 389 794 300 q 758 551 794 478 q 654 669 722 625 q 492 714 586 714 q 328 669 396 714 q 226 551 261 625 q 190 388 190 478 q 226 226 190 299 q 328 111 261 154 q 492 68 396 68 m 493 -194 q 446 -176 465 -194 q 426 -132 426 -157 q 493 -69 426 -69 q 540 -86 521 -69 q 558 -132 558 -103 q 542 -175 560 -156 q 493 -194 524 -194 m 321 860 l 436 1078 l 544 1078 l 660 860 l 582 860 l 490 1033 l 399 860 l 321 860 z "},"Ồ":{"ha":985,"x_min":68,"x_max":915,"o":"m 492 -15 q 268 40 364 -15 q 120 188 172 96 q 68 389 68 281 q 120 591 68 499 q 268 740 172 683 q 492 796 364 796 q 715 740 619 796 q 863 591 811 683 q 915 389 915 499 q 863 188 915 279 q 716 40 811 96 q 492 -15 621 -15 m 492 68 q 654 112 586 68 q 758 228 722 156 q 794 389 794 300 q 758 551 794 478 q 654 669 722 625 q 492 714 586 714 q 328 669 396 714 q 226 551 261 625 q 190 388 190 478 q 226 226 190 299 q 328 111 261 154 q 492 68 396 68 m 321 860 l 436 1036 l 544 1036 l 660 860 l 582 860 l 490 992 l 399 860 l 321 860 m 714 986 l 649 986 l 551 1146 l 654 1146 l 714 986 z "},"Ổ":{"ha":985,"x_min":68,"x_max":915,"o":"m 492 -15 q 268 40 364 -15 q 120 188 172 96 q 68 389 68 281 q 120 591 68 499 q 268 740 172 683 q 492 796 364 796 q 715 740 619 796 q 863 591 811 683 q 915 389 915 499 q 863 188 915 279 q 716 40 811 96 q 492 -15 621 -15 m 492 68 q 654 112 586 68 q 758 228 722 156 q 794 389 794 300 q 758 551 794 478 q 654 669 722 625 q 492 714 586 714 q 328 669 396 714 q 226 551 261 625 q 190 388 190 478 q 226 226 190 299 q 328 111 261 154 q 492 68 396 68 m 321 860 l 436 1036 l 544 1036 l 660 860 l 582 860 l 490 992 l 399 860 l 321 860 m 626 972 l 607 1033 q 654 1083 654 1049 q 607 1121 654 1121 q 547 1103 579 1121 l 526 1161 q 565 1178 543 1171 q 614 1185 588 1185 q 697 1157 665 1185 q 728 1086 728 1129 q 626 972 728 1000 z "},"Ỗ":{"ha":985,"x_min":68,"x_max":915,"o":"m 492 -15 q 268 40 364 -15 q 120 188 172 96 q 68 389 68 281 q 120 591 68 499 q 268 740 172 683 q 492 796 364 796 q 715 740 619 796 q 863 591 811 683 q 915 389 915 499 q 863 188 915 279 q 716 40 811 96 q 492 -15 621 -15 m 492 68 q 654 112 586 68 q 758 228 722 156 q 794 389 794 300 q 758 551 794 478 q 654 669 722 625 q 492 714 586 714 q 328 669 396 714 q 226 551 261 625 q 190 388 190 478 q 226 226 190 299 q 328 111 261 154 q 492 68 396 68 m 321 860 l 436 1036 l 544 1036 l 660 860 l 582 860 l 490 992 l 399 860 l 321 860 m 578 1072 q 480 1098 531 1072 q 393 1124 429 1124 q 350 1078 357 1124 l 307 1078 q 340 1171 313 1142 q 408 1200 367 1200 q 500 1174 449 1200 q 583 1149 551 1149 q 635 1197 624 1149 l 675 1197 q 649 1108 671 1144 q 578 1072 626 1072 z "},"Ȍ":{"ha":985,"x_min":68,"x_max":915,"o":"m 492 -15 q 268 40 364 -15 q 120 188 172 96 q 68 389 68 281 q 120 591 68 499 q 268 740 172 683 q 492 796 364 796 q 715 740 619 796 q 863 591 811 683 q 915 389 915 499 q 863 188 915 279 q 716 40 811 96 q 492 -15 621 -15 m 492 68 q 654 112 586 68 q 758 228 722 156 q 794 389 794 300 q 758 551 794 478 q 654 669 722 625 q 492 714 586 714 q 328 669 396 714 q 226 551 261 625 q 190 388 190 478 q 226 226 190 299 q 328 111 261 154 q 492 68 396 68 m 347 899 l 217 1110 l 333 1110 l 413 899 l 347 899 m 535 899 l 406 1110 l 522 1110 l 600 899 l 535 899 z "},"Ö":{"ha":985,"x_min":68,"x_max":915,"o":"m 492 -15 q 268 40 364 -15 q 120 188 172 96 q 68 389 68 281 q 120 591 68 499 q 268 740 172 683 q 492 796 364 796 q 715 740 619 796 q 863 591 811 683 q 915 389 915 499 q 863 188 915 279 q 716 40 811 96 q 492 -15 621 -15 m 492 68 q 654 112 586 68 q 758 228 722 156 q 794 389 794 300 q 758 551 794 478 q 654 669 722 625 q 492 714 586 714 q 328 669 396 714 q 226 551 261 625 q 190 388 190 478 q 226 226 190 299 q 328 111 261 154 q 492 68 396 68 m 357 871 q 312 887 329 871 q 294 931 294 903 q 312 974 294 958 q 357 990 329 990 q 402 974 385 990 q 419 931 419 958 q 402 887 419 903 q 357 871 385 871 m 624 871 q 579 887 596 871 q 563 931 563 903 q 579 974 563 958 q 624 990 596 990 q 669 974 651 990 q 686 931 686 958 q 669 887 686 903 q 624 871 651 871 z "},"Ȫ":{"ha":985,"x_min":68,"x_max":915,"o":"m 492 -15 q 268 40 364 -15 q 120 188 172 96 q 68 389 68 281 q 120 591 68 499 q 268 740 172 683 q 492 796 364 796 q 715 740 619 796 q 863 591 811 683 q 915 389 915 499 q 863 188 915 279 q 716 40 811 96 q 492 -15 621 -15 m 492 68 q 654 112 586 68 q 758 228 722 156 q 794 389 794 300 q 758 551 794 478 q 654 669 722 625 q 492 714 586 714 q 328 669 396 714 q 226 551 261 625 q 190 388 190 478 q 226 226 190 299 q 328 111 261 154 q 492 68 396 68 m 357 871 q 312 887 329 871 q 294 931 294 903 q 312 974 294 958 q 357 990 329 990 q 402 974 385 990 q 419 931 419 958 q 402 887 419 903 q 357 871 385 871 m 624 871 q 579 887 596 871 q 563 931 563 903 q 579 974 563 958 q 624 990 596 990 q 669 974 651 990 q 686 931 686 958 q 669 887 686 903 q 624 871 651 871 m 344 1101 l 344 1164 l 636 1164 l 636 1101 l 344 1101 z "},"Ȯ":{"ha":985,"x_min":68,"x_max":915,"o":"m 492 -15 q 268 40 364 -15 q 120 188 172 96 q 68 389 68 281 q 120 591 68 499 q 268 740 172 683 q 492 796 364 796 q 715 740 619 796 q 863 591 811 683 q 915 389 915 499 q 863 188 915 279 q 716 40 811 96 q 492 -15 621 -15 m 492 68 q 654 112 586 68 q 758 228 722 156 q 794 389 794 300 q 758 551 794 478 q 654 669 722 625 q 492 714 586 714 q 328 669 396 714 q 226 551 261 625 q 190 388 190 478 q 226 226 190 299 q 328 111 261 154 q 492 68 396 68 z "},"Ȱ":{"ha":985,"x_min":68,"x_max":915,"o":"m 492 -15 q 268 40 364 -15 q 120 188 172 96 q 68 389 68 281 q 120 591 68 499 q 268 740 172 683 q 492 796 364 796 q 715 740 619 796 q 863 591 811 683 q 915 389 915 499 q 863 188 915 279 q 716 40 811 96 q 492 -15 621 -15 m 492 68 q 654 112 586 68 q 758 228 722 156 q 794 389 794 300 q 758 551 794 478 q 654 669 722 625 q 492 714 586 714 q 328 669 396 714 q 226 551 261 625 q 190 388 190 478 q 226 226 190 299 q 328 111 261 154 q 492 68 396 68 m 490 875 q 443 894 463 875 q 424 938 424 913 q 442 982 424 964 q 490 1000 461 1000 q 537 983 518 1000 q 556 938 556 967 q 539 894 557 914 q 490 875 521 875 m 344 1097 l 344 1160 l 636 1160 l 636 1097 l 344 1097 z "},"Ọ":{"ha":985,"x_min":68,"x_max":915,"o":"m 492 -15 q 268 40 364 -15 q 120 188 172 96 q 68 389 68 281 q 120 591 68 499 q 268 740 172 683 q 492 796 364 796 q 715 740 619 796 q 863 591 811 683 q 915 389 915 499 q 863 188 915 279 q 716 40 811 96 q 492 -15 621 -15 m 492 68 q 654 112 586 68 q 758 228 722 156 q 794 389 794 300 q 758 551 794 478 q 654 669 722 625 q 492 714 586 714 q 328 669 396 714 q 226 551 261 625 q 190 388 190 478 q 226 226 190 299 q 328 111 261 154 q 492 68 396 68 m 493 -194 q 446 -176 465 -194 q 426 -132 426 -157 q 493 -69 426 -69 q 540 -86 521 -69 q 558 -132 558 -103 q 542 -175 560 -156 q 493 -194 524 -194 z "},"Ò":{"ha":985,"x_min":68,"x_max":915,"o":"m 492 -15 q 268 40 364 -15 q 120 188 172 96 q 68 389 68 281 q 120 591 68 499 q 268 740 172 683 q 492 796 364 796 q 715 740 619 796 q 863 591 811 683 q 915 389 915 499 q 863 188 915 279 q 716 40 811 96 q 492 -15 621 -15 m 492 68 q 654 112 586 68 q 758 228 722 156 q 794 389 794 300 q 758 551 794 478 q 654 669 722 625 q 492 714 586 714 q 328 669 396 714 q 226 551 261 625 q 190 388 190 478 q 226 226 190 299 q 328 111 261 154 q 492 68 396 68 m 457 899 l 332 1100 l 449 1100 l 522 899 l 457 899 z "},"Ỏ":{"ha":985,"x_min":68,"x_max":915,"o":"m 492 -15 q 268 40 364 -15 q 120 188 172 96 q 68 389 68 281 q 120 591 68 499 q 268 740 172 683 q 492 796 364 796 q 715 740 619 796 q 863 591 811 683 q 915 389 915 499 q 863 188 915 279 q 716 40 811 96 q 492 -15 621 -15 m 492 68 q 654 112 586 68 q 758 228 722 156 q 794 389 794 300 q 758 551 794 478 q 654 669 722 625 q 492 714 586 714 q 328 669 396 714 q 226 551 261 625 q 190 388 190 478 q 226 226 190 299 q 328 111 261 154 q 492 68 396 68 m 490 842 l 471 903 q 518 953 518 918 q 471 990 518 990 q 411 972 443 990 l 390 1031 q 429 1047 407 1040 q 478 1054 451 1054 q 560 1026 529 1054 q 592 956 592 999 q 490 842 592 869 z "},"Ơ":{"ha":985,"x_min":68,"x_max":915,"o":"m 492 -15 q 268 40 364 -15 q 120 188 172 96 q 68 389 68 281 q 120 592 68 500 q 268 741 172 685 q 492 797 364 797 q 565 792 533 797 q 632 788 597 788 q 699 808 671 788 q 731 878 726 829 l 843 878 q 783 764 833 806 q 656 722 733 722 l 661 765 q 848 616 781 718 q 915 389 915 514 q 863 188 915 279 q 716 40 811 96 q 492 -15 621 -15 m 492 68 q 654 112 586 68 q 758 228 722 156 q 794 389 794 300 q 758 552 794 478 q 654 671 722 626 q 492 715 586 715 q 328 671 396 715 q 226 552 261 626 q 190 388 190 478 q 226 226 190 299 q 328 111 261 154 q 492 68 396 68 z "},"Ớ":{"ha":985,"x_min":68,"x_max":915,"o":"m 492 -15 q 268 40 364 -15 q 120 188 172 96 q 68 389 68 281 q 120 592 68 500 q 268 741 172 685 q 492 797 364 797 q 565 792 533 797 q 632 788 597 788 q 699 808 671 788 q 731 878 726 829 l 843 878 q 783 764 833 806 q 656 722 733 722 l 661 765 q 848 616 781 718 q 915 389 915 514 q 863 188 915 279 q 716 40 811 96 q 492 -15 621 -15 m 492 68 q 654 112 586 68 q 758 228 722 156 q 794 389 794 300 q 758 552 794 478 q 654 671 722 626 q 492 715 586 715 q 328 671 396 715 q 226 552 261 626 q 190 388 190 478 q 226 226 190 299 q 328 111 261 154 q 492 68 396 68 m 458 899 l 532 1100 l 649 1100 l 524 899 l 458 899 z "},"Ợ":{"ha":985,"x_min":68,"x_max":915,"o":"m 492 -15 q 268 40 364 -15 q 120 188 172 96 q 68 389 68 281 q 120 592 68 500 q 268 741 172 685 q 492 797 364 797 q 565 792 533 797 q 632 788 597 788 q 699 808 671 788 q 731 878 726 829 l 843 878 q 783 764 833 806 q 656 722 733 722 l 661 765 q 848 616 781 718 q 915 389 915 514 q 863 188 915 279 q 716 40 811 96 q 492 -15 621 -15 m 492 68 q 654 112 586 68 q 758 228 722 156 q 794 389 794 300 q 758 552 794 478 q 654 671 722 626 q 492 715 586 715 q 328 671 396 715 q 226 552 261 626 q 190 388 190 478 q 226 226 190 299 q 328 111 261 154 q 492 68 396 68 m 492 -194 q 444 -176 464 -194 q 425 -132 425 -157 q 492 -69 425 -69 q 538 -86 519 -69 q 557 -132 557 -103 q 540 -175 558 -156 q 492 -194 522 -194 z "},"Ờ":{"ha":985,"x_min":68,"x_max":915,"o":"m 492 -15 q 268 40 364 -15 q 120 188 172 96 q 68 389 68 281 q 120 592 68 500 q 268 741 172 685 q 492 797 364 797 q 565 792 533 797 q 632 788 597 788 q 699 808 671 788 q 731 878 726 829 l 843 878 q 783 764 833 806 q 656 722 733 722 l 661 765 q 848 616 781 718 q 915 389 915 514 q 863 188 915 279 q 716 40 811 96 q 492 -15 621 -15 m 492 68 q 654 112 586 68 q 758 228 722 156 q 794 389 794 300 q 758 552 794 478 q 654 671 722 626 q 492 715 586 715 q 328 671 396 715 q 226 552 261 626 q 190 388 190 478 q 226 226 190 299 q 328 111 261 154 q 492 68 396 68 m 457 899 l 332 1100 l 449 1100 l 522 899 l 457 899 z "},"Ở":{"ha":985,"x_min":68,"x_max":915,"o":"m 492 -15 q 268 40 364 -15 q 120 188 172 96 q 68 389 68 281 q 120 592 68 500 q 268 741 172 685 q 492 797 364 797 q 565 792 533 797 q 632 788 597 788 q 699 808 671 788 q 731 878 726 829 l 843 878 q 783 764 833 806 q 656 722 733 722 l 661 765 q 848 616 781 718 q 915 389 915 514 q 863 188 915 279 q 716 40 811 96 q 492 -15 621 -15 m 492 68 q 654 112 586 68 q 758 228 722 156 q 794 389 794 300 q 758 552 794 478 q 654 671 722 626 q 492 715 586 715 q 328 671 396 715 q 226 552 261 626 q 190 388 190 478 q 226 226 190 299 q 328 111 261 154 q 492 68 396 68 m 490 842 l 471 903 q 518 953 518 918 q 471 990 518 990 q 411 972 443 990 l 390 1031 q 429 1047 407 1040 q 478 1054 451 1054 q 560 1026 529 1054 q 592 956 592 999 q 490 842 592 869 z "},"Ỡ":{"ha":985,"x_min":68,"x_max":915,"o":"m 492 -15 q 268 40 364 -15 q 120 188 172 96 q 68 389 68 281 q 120 592 68 500 q 268 741 172 685 q 492 797 364 797 q 565 792 533 797 q 632 788 597 788 q 699 808 671 788 q 731 878 726 829 l 843 878 q 783 764 833 806 q 656 722 733 722 l 661 765 q 848 616 781 718 q 915 389 915 514 q 863 188 915 279 q 716 40 811 96 q 492 -15 621 -15 m 492 68 q 654 112 586 68 q 758 228 722 156 q 794 389 794 300 q 758 552 794 478 q 654 671 722 626 q 492 715 586 715 q 328 671 396 715 q 226 552 261 626 q 190 388 190 478 q 226 226 190 299 q 328 111 261 154 q 492 68 396 68 m 578 889 q 480 915 531 889 q 393 940 429 940 q 350 894 357 940 l 307 894 q 340 988 313 958 q 408 1017 367 1017 q 500 991 449 1017 q 583 965 551 965 q 635 1014 624 965 l 675 1014 q 649 925 671 961 q 578 889 626 889 z "},"Ő":{"ha":985,"x_min":68,"x_max":915,"o":"m 492 -15 q 268 40 364 -15 q 120 188 172 96 q 68 389 68 281 q 120 591 68 499 q 268 740 172 683 q 492 796 364 796 q 715 740 619 796 q 863 591 811 683 q 915 389 915 499 q 863 188 915 279 q 716 40 811 96 q 492 -15 621 -15 m 492 68 q 654 112 586 68 q 758 228 722 156 q 794 389 794 300 q 758 551 794 478 q 654 669 722 625 q 492 714 586 714 q 328 669 396 714 q 226 551 261 625 q 190 388 190 478 q 226 226 190 299 q 328 111 261 154 q 492 68 396 68 m 367 899 l 444 1110 l 561 1110 l 431 899 l 367 899 m 554 899 l 632 1110 l 749 1110 l 619 899 l 554 899 z "},"Ȏ":{"ha":985,"x_min":68,"x_max":915,"o":"m 492 -15 q 268 40 364 -15 q 120 188 172 96 q 68 389 68 281 q 120 591 68 499 q 268 740 172 683 q 492 796 364 796 q 715 740 619 796 q 863 591 811 683 q 915 389 915 499 q 863 188 915 279 q 716 40 811 96 q 492 -15 621 -15 m 492 68 q 654 112 586 68 q 758 228 722 156 q 794 389 794 300 q 758 551 794 478 q 654 669 722 625 q 492 714 586 714 q 328 669 396 714 q 226 551 261 625 q 190 388 190 478 q 226 226 190 299 q 328 111 261 154 q 492 68 396 68 m 328 861 q 378 969 335 929 q 490 1010 422 1010 q 601 969 557 1010 q 651 861 644 929 l 569 861 q 490 932 557 932 q 410 861 422 932 l 328 861 z "},"Ō":{"ha":985,"x_min":68,"x_max":915,"o":"m 492 -15 q 268 40 364 -15 q 120 188 172 96 q 68 389 68 281 q 120 591 68 499 q 268 740 172 683 q 492 796 364 796 q 715 740 619 796 q 863 591 811 683 q 915 389 915 499 q 863 188 915 279 q 716 40 811 96 q 492 -15 621 -15 m 492 68 q 654 112 586 68 q 758 228 722 156 q 794 389 794 300 q 758 551 794 478 q 654 669 722 625 q 492 714 586 714 q 328 669 396 714 q 226 551 261 625 q 190 388 190 478 q 226 226 190 299 q 328 111 261 154 q 492 68 396 68 m 344 893 l 344 956 l 636 956 l 636 893 l 344 893 z "},"Ṓ":{"ha":985,"x_min":68,"x_max":915,"o":"m 492 -15 q 268 40 364 -15 q 120 188 172 96 q 68 389 68 281 q 120 591 68 499 q 268 740 172 683 q 492 796 364 796 q 715 740 619 796 q 863 591 811 683 q 915 389 915 499 q 863 188 915 279 q 716 40 811 96 q 492 -15 621 -15 m 492 68 q 654 112 586 68 q 758 228 722 156 q 794 389 794 300 q 758 551 794 478 q 654 669 722 625 q 492 714 586 714 q 328 669 396 714 q 226 551 261 625 q 190 388 190 478 q 226 226 190 299 q 328 111 261 154 q 492 68 396 68 m 344 893 l 344 956 l 636 956 l 636 893 l 344 893 m 458 1057 l 532 1258 l 649 1258 l 524 1057 l 458 1057 z "},"Ṑ":{"ha":985,"x_min":68,"x_max":915,"o":"m 492 -15 q 268 40 364 -15 q 120 188 172 96 q 68 389 68 281 q 120 591 68 499 q 268 740 172 683 q 492 796 364 796 q 715 740 619 796 q 863 591 811 683 q 915 389 915 499 q 863 188 915 279 q 716 40 811 96 q 492 -15 621 -15 m 492 68 q 654 112 586 68 q 758 228 722 156 q 794 389 794 300 q 758 551 794 478 q 654 669 722 625 q 492 714 586 714 q 328 669 396 714 q 226 551 261 625 q 190 388 190 478 q 226 226 190 299 q 328 111 261 154 q 492 68 396 68 m 344 893 l 344 956 l 636 956 l 636 893 l 344 893 m 457 1057 l 332 1258 l 449 1258 l 522 1057 l 457 1057 z "},"Ǫ":{"ha":985,"x_min":68,"x_max":915,"o":"m 492 -15 q 268 40 364 -15 q 120 188 172 96 q 68 389 68 281 q 120 591 68 499 q 268 740 172 683 q 492 796 364 796 q 715 740 619 796 q 863 591 811 683 q 915 389 915 499 q 863 188 915 279 q 716 40 811 96 q 492 -15 621 -15 m 492 68 q 654 112 586 68 q 758 228 722 156 q 794 389 794 300 q 758 551 794 478 q 654 669 722 625 q 492 714 586 714 q 328 669 396 714 q 226 551 261 625 q 190 388 190 478 q 226 226 190 299 q 328 111 261 154 q 492 68 396 68 m 517 -235 q 438 -206 469 -235 q 406 -132 406 -178 q 479 0 406 -69 l 539 0 q 493 -58 510 -31 q 476 -111 476 -86 q 542 -171 476 -171 q 603 -153 572 -171 l 603 -208 q 517 -235 560 -235 z "},"Ø":{"ha":917,"x_min":35,"x_max":882,"o":"m 163 -51 l 110 -14 l 769 826 l 822 790 l 163 -51 m 458 -17 q 235 39 331 -17 q 87 186 139 94 q 35 388 35 278 q 87 590 35 497 q 235 738 139 682 q 458 794 331 794 q 682 738 586 794 q 830 590 778 682 q 882 388 882 497 q 830 186 882 278 q 683 39 778 94 q 458 -17 588 -17 m 458 67 q 621 110 553 67 q 725 227 689 154 q 761 388 761 300 q 725 550 761 476 q 621 668 689 624 q 458 713 553 713 q 295 668 363 713 q 192 549 228 624 q 157 386 157 475 q 192 225 157 297 q 295 110 228 153 q 458 67 363 67 z "},"Ǿ":{"ha":917,"x_min":35,"x_max":882,"o":"m 163 -51 l 110 -14 l 769 826 l 822 790 l 163 -51 m 458 -17 q 235 39 331 -17 q 87 186 139 94 q 35 388 35 278 q 87 590 35 497 q 235 738 139 682 q 458 794 331 794 q 682 738 586 794 q 830 590 778 682 q 882 388 882 497 q 830 186 882 278 q 683 39 778 94 q 458 -17 588 -17 m 458 67 q 621 110 553 67 q 725 227 689 154 q 761 388 761 300 q 725 550 761 476 q 621 668 689 624 q 458 713 553 713 q 295 668 363 713 q 192 549 228 624 q 157 386 157 475 q 192 225 157 297 q 295 110 228 153 q 458 67 363 67 m 426 899 l 500 1100 l 617 1100 l 492 899 l 426 899 z "},"Õ":{"ha":985,"x_min":68,"x_max":915,"o":"m 492 -15 q 268 40 364 -15 q 120 188 172 96 q 68 389 68 281 q 120 591 68 499 q 268 740 172 683 q 492 796 364 796 q 715 740 619 796 q 863 591 811 683 q 915 389 915 499 q 863 188 915 279 q 716 40 811 96 q 492 -15 621 -15 m 492 68 q 654 112 586 68 q 758 228 722 156 q 794 389 794 300 q 758 551 794 478 q 654 669 722 625 q 492 714 586 714 q 328 669 396 714 q 226 551 261 625 q 190 388 190 478 q 226 226 190 299 q 328 111 261 154 q 492 68 396 68 m 578 889 q 480 915 531 889 q 393 940 429 940 q 350 894 357 940 l 307 894 q 340 988 313 958 q 408 1017 367 1017 q 500 991 449 1017 q 583 965 551 965 q 635 1014 624 965 l 675 1014 q 649 925 671 961 q 578 889 626 889 z "},"Ṍ":{"ha":985,"x_min":68,"x_max":915,"o":"m 492 -15 q 268 40 364 -15 q 120 188 172 96 q 68 389 68 281 q 120 591 68 499 q 268 740 172 683 q 492 796 364 796 q 715 740 619 796 q 863 591 811 683 q 915 389 915 499 q 863 188 915 279 q 716 40 811 96 q 492 -15 621 -15 m 492 68 q 654 112 586 68 q 758 228 722 156 q 794 389 794 300 q 758 551 794 478 q 654 669 722 625 q 492 714 586 714 q 328 669 396 714 q 226 551 261 625 q 190 388 190 478 q 226 226 190 299 q 328 111 261 154 q 492 68 396 68 m 578 889 q 480 915 531 889 q 393 940 429 940 q 350 894 357 940 l 307 894 q 340 988 313 958 q 408 1017 367 1017 q 500 991 449 1017 q 583 965 551 965 q 635 1014 624 965 l 675 1014 q 649 925 671 961 q 578 889 626 889 m 460 1106 l 533 1307 l 650 1307 l 525 1106 l 460 1106 z "},"Ṏ":{"ha":985,"x_min":68,"x_max":915,"o":"m 492 -15 q 268 40 364 -15 q 120 188 172 96 q 68 389 68 281 q 120 591 68 499 q 268 740 172 683 q 492 796 364 796 q 715 740 619 796 q 863 591 811 683 q 915 389 915 499 q 863 188 915 279 q 716 40 811 96 q 492 -15 621 -15 m 492 68 q 654 112 586 68 q 758 228 722 156 q 794 389 794 300 q 758 551 794 478 q 654 669 722 625 q 492 714 586 714 q 328 669 396 714 q 226 551 261 625 q 190 388 190 478 q 226 226 190 299 q 328 111 261 154 q 492 68 396 68 m 578 889 q 480 915 531 889 q 393 940 429 940 q 350 894 357 940 l 307 894 q 340 988 313 958 q 408 1017 367 1017 q 500 991 449 1017 q 583 965 551 965 q 635 1014 624 965 l 675 1014 q 649 925 671 961 q 578 889 626 889 m 358 1078 q 313 1094 331 1078 q 296 1138 296 1110 q 313 1181 296 1165 q 358 1197 331 1197 q 403 1181 386 1197 q 421 1138 421 1165 q 403 1094 421 1110 q 358 1078 386 1078 m 625 1078 q 581 1094 597 1078 q 564 1138 564 1110 q 581 1181 564 1165 q 625 1197 597 1197 q 670 1181 653 1197 q 688 1138 688 1165 q 670 1094 688 1110 q 625 1078 653 1078 z "},"Ȭ":{"ha":985,"x_min":68,"x_max":915,"o":"m 492 -15 q 268 40 364 -15 q 120 188 172 96 q 68 389 68 281 q 120 591 68 499 q 268 740 172 683 q 492 796 364 796 q 715 740 619 796 q 863 591 811 683 q 915 389 915 499 q 863 188 915 279 q 716 40 811 96 q 492 -15 621 -15 m 492 68 q 654 112 586 68 q 758 228 722 156 q 794 389 794 300 q 758 551 794 478 q 654 669 722 625 q 492 714 586 714 q 328 669 396 714 q 226 551 261 625 q 190 388 190 478 q 226 226 190 299 q 328 111 261 154 q 492 68 396 68 m 578 889 q 480 915 531 889 q 393 940 429 940 q 350 894 357 940 l 307 894 q 340 988 313 958 q 408 1017 367 1017 q 500 991 449 1017 q 583 965 551 965 q 635 1014 624 965 l 675 1014 q 649 925 671 961 q 578 889 626 889 m 346 1100 l 346 1163 l 638 1163 l 638 1100 l 346 1100 z "},"Œ":{"ha":1322,"x_min":68,"x_max":1256,"o":"m 504 0 q 185 106 303 0 q 68 393 68 211 q 185 678 68 574 q 503 782 301 782 l 1249 782 l 1249 547 l 1161 547 l 1161 708 l 792 708 l 792 435 l 1038 435 l 1038 525 l 1094 525 l 1094 268 l 1038 268 l 1038 360 l 792 360 l 792 72 l 1168 72 l 1168 242 l 1256 242 l 1256 0 l 504 0 m 513 72 l 679 72 l 679 708 l 511 708 q 276 624 364 708 q 189 392 189 539 q 276 158 189 244 q 513 72 363 72 z "},"P":{"ha":782,"x_min":54,"x_max":733,"o":"m 54 0 l 54 74 l 163 74 l 163 708 l 54 708 l 54 782 l 440 782 q 658 725 583 782 q 733 560 733 668 q 656 384 733 444 q 433 324 579 324 l 329 324 l 329 397 l 429 397 q 568 439 519 397 q 617 558 617 481 q 453 708 617 708 l 276 708 l 276 74 l 385 74 l 385 0 l 54 0 z "},"Ṗ":{"ha":782,"x_min":54,"x_max":733,"o":"m 54 0 l 54 74 l 163 74 l 163 708 l 54 708 l 54 782 l 440 782 q 658 725 583 782 q 733 560 733 668 q 656 384 733 444 q 433 324 579 324 l 329 324 l 329 397 l 429 397 q 568 439 519 397 q 617 558 617 481 q 453 708 617 708 l 276 708 l 276 74 l 385 74 l 385 0 l 54 0 z "},"Þ":{"ha":771,"x_min":69,"x_max":722,"o":"m 69 0 l 69 74 l 178 74 l 178 708 l 69 708 l 69 782 l 401 782 l 401 708 l 292 708 l 292 606 l 269 619 l 460 619 q 654 568 586 619 q 722 425 722 517 q 655 274 722 326 q 463 222 588 222 l 333 222 l 333 289 l 463 289 q 614 425 614 289 q 460 547 614 547 l 269 547 l 292 565 l 292 74 l 401 74 l 401 0 l 69 0 z "},"Q":{"ha":981,"x_min":68,"x_max":915,"o":"m 729 -186 q 576 -140 644 -186 q 454 -12 507 -93 q 249 51 336 -6 q 115 197 163 108 q 68 389 68 286 q 120 591 68 499 q 268 740 172 683 q 492 796 364 796 q 715 740 619 796 q 863 591 811 683 q 915 389 915 499 q 872 203 915 289 q 747 60 828 117 q 553 -11 665 3 q 628 -82 589 -53 q 729 -111 668 -111 q 808 -100 761 -111 l 810 -174 q 729 -186 768 -186 m 492 68 q 654 112 586 68 q 758 228 722 156 q 794 389 794 300 q 758 551 794 478 q 654 669 722 625 q 492 714 586 714 q 328 669 396 714 q 226 551 261 625 q 190 388 190 478 q 226 226 190 299 q 328 111 261 154 q 492 68 396 68 z "},"R":{"ha":860,"x_min":54,"x_max":824,"o":"m 54 0 l 54 74 l 163 74 l 163 708 l 54 708 l 54 782 l 465 782 q 660 731 589 782 q 731 578 731 681 q 684 442 731 497 q 529 369 638 386 l 708 74 l 824 74 l 824 0 l 631 0 l 421 358 l 325 358 l 325 435 l 447 435 q 584 480 550 435 q 618 576 618 525 q 582 669 618 631 q 467 708 546 708 l 276 708 l 276 74 l 385 74 l 385 0 l 54 0 z "},"Ŕ":{"ha":860,"x_min":54,"x_max":824,"o":"m 54 0 l 54 74 l 163 74 l 163 708 l 54 708 l 54 782 l 465 782 q 660 731 589 782 q 731 578 731 681 q 684 442 731 497 q 529 369 638 386 l 708 74 l 824 74 l 824 0 l 631 0 l 421 358 l 325 358 l 325 435 l 447 435 q 584 480 550 435 q 618 576 618 525 q 582 669 618 631 q 467 708 546 708 l 276 708 l 276 74 l 385 74 l 385 0 l 54 0 m 374 899 l 447 1100 l 564 1100 l 439 899 l 374 899 z "},"Ř":{"ha":860,"x_min":54,"x_max":824,"o":"m 54 0 l 54 74 l 163 74 l 163 708 l 54 708 l 54 782 l 465 782 q 660 731 589 782 q 731 578 731 681 q 684 442 731 497 q 529 369 638 386 l 708 74 l 824 74 l 824 0 l 631 0 l 421 358 l 325 358 l 325 435 l 447 435 q 584 480 550 435 q 618 576 618 525 q 582 669 618 631 q 467 708 546 708 l 276 708 l 276 74 l 385 74 l 385 0 l 54 0 m 357 858 l 244 1068 l 318 1068 l 407 917 l 493 1068 l 565 1068 l 456 858 l 357 858 z "},"Ŗ":{"ha":860,"x_min":54,"x_max":824,"o":"m 54 0 l 54 74 l 163 74 l 163 708 l 54 708 l 54 782 l 465 782 q 660 731 589 782 q 731 578 731 681 q 684 442 731 497 q 529 369 638 386 l 708 74 l 824 74 l 824 0 l 631 0 l 421 358 l 325 358 l 325 435 l 447 435 q 584 480 550 435 q 618 576 618 525 q 582 669 618 631 q 467 708 546 708 l 276 708 l 276 74 l 385 74 l 385 0 l 54 0 m 383 -328 l 383 -283 q 442 -253 424 -276 q 461 -190 461 -231 l 386 -190 l 386 -69 l 518 -69 l 518 -193 q 485 -292 518 -256 q 383 -328 453 -328 z "},"Ȑ":{"ha":860,"x_min":54,"x_max":824,"o":"m 54 0 l 54 74 l 163 74 l 163 708 l 54 708 l 54 782 l 465 782 q 660 731 589 782 q 731 578 731 681 q 684 442 731 497 q 529 369 638 386 l 708 74 l 824 74 l 824 0 l 631 0 l 421 358 l 325 358 l 325 435 l 447 435 q 584 480 550 435 q 618 576 618 525 q 582 669 618 631 q 467 708 546 708 l 276 708 l 276 74 l 385 74 l 385 0 l 54 0 m 263 899 l 132 1110 l 249 1110 l 328 899 l 263 899 m 450 899 l 321 1110 l 438 1110 l 515 899 l 450 899 z "},"Ṛ":{"ha":860,"x_min":54,"x_max":824,"o":"m 54 0 l 54 74 l 163 74 l 163 708 l 54 708 l 54 782 l 465 782 q 660 731 589 782 q 731 578 731 681 q 684 442 731 497 q 529 369 638 386 l 708 74 l 824 74 l 824 0 l 631 0 l 421 358 l 325 358 l 325 435 l 447 435 q 584 480 550 435 q 618 576 618 525 q 582 669 618 631 q 467 708 546 708 l 276 708 l 276 74 l 385 74 l 385 0 l 54 0 m 450 -194 q 403 -176 422 -194 q 383 -132 383 -157 q 450 -69 383 -69 q 497 -86 478 -69 q 515 -132 515 -103 q 499 -175 517 -156 q 450 -194 481 -194 z "},"Ȓ":{"ha":860,"x_min":54,"x_max":824,"o":"m 54 0 l 54 74 l 163 74 l 163 708 l 54 708 l 54 782 l 465 782 q 660 731 589 782 q 731 578 731 681 q 684 442 731 497 q 529 369 638 386 l 708 74 l 824 74 l 824 0 l 631 0 l 421 358 l 325 358 l 325 435 l 447 435 q 584 480 550 435 q 618 576 618 525 q 582 669 618 631 q 467 708 546 708 l 276 708 l 276 74 l 385 74 l 385 0 l 54 0 m 243 861 q 294 969 250 929 q 406 1010 338 1010 q 516 969 472 1010 q 567 861 560 929 l 485 861 q 406 932 472 932 q 325 861 338 932 l 243 861 z "},"Ṟ":{"ha":860,"x_min":54,"x_max":824,"o":"m 54 0 l 54 74 l 163 74 l 163 708 l 54 708 l 54 782 l 465 782 q 660 731 589 782 q 731 578 731 681 q 684 442 731 497 q 529 369 638 386 l 708 74 l 824 74 l 824 0 l 631 0 l 421 358 l 325 358 l 325 435 l 447 435 q 584 480 550 435 q 618 576 618 525 q 582 669 618 631 q 467 708 546 708 l 276 708 l 276 74 l 385 74 l 385 0 l 54 0 z "},"S":{"ha":725,"x_min":94,"x_max":667,"o":"m 417 -14 q 268 24 332 -14 q 171 125 204 61 l 189 125 l 189 0 l 99 0 l 99 264 l 182 264 q 251 122 190 178 q 413 67 313 67 q 525 101 485 67 q 565 199 565 135 q 523 303 565 275 q 376 350 481 332 l 343 356 q 163 430 231 375 q 94 583 94 485 q 163 742 94 686 q 340 797 231 797 q 485 761 422 797 q 569 663 547 725 l 540 663 l 540 782 l 629 782 l 629 561 l 547 561 q 499 664 539 611 q 346 717 460 717 q 235 683 274 717 q 196 594 196 649 q 239 501 196 533 q 364 456 282 469 l 396 450 q 599 377 532 426 q 667 215 667 328 q 602 55 667 124 q 417 -14 538 -14 z "},"Ś":{"ha":725,"x_min":94,"x_max":667,"o":"m 417 -14 q 268 24 332 -14 q 171 125 204 61 l 189 125 l 189 0 l 99 0 l 99 264 l 182 264 q 251 122 190 178 q 413 67 313 67 q 525 101 485 67 q 565 199 565 135 q 523 303 565 275 q 376 350 481 332 l 343 356 q 163 430 231 375 q 94 583 94 485 q 163 742 94 686 q 340 797 231 797 q 485 761 422 797 q 569 663 547 725 l 540 663 l 540 782 l 629 782 l 629 561 l 547 561 q 499 664 539 611 q 346 717 460 717 q 235 683 274 717 q 196 594 196 649 q 239 501 196 533 q 364 456 282 469 l 396 450 q 599 377 532 426 q 667 215 667 328 q 602 55 667 124 q 417 -14 538 -14 m 347 899 l 421 1100 l 538 1100 l 413 899 l 347 899 z "},"Ṥ":{"ha":725,"x_min":94,"x_max":667,"o":"m 417 -14 q 268 24 332 -14 q 171 125 204 61 l 189 125 l 189 0 l 99 0 l 99 264 l 182 264 q 251 122 190 178 q 413 67 313 67 q 525 101 485 67 q 565 199 565 135 q 523 303 565 275 q 376 350 481 332 l 343 356 q 163 430 231 375 q 94 583 94 485 q 163 742 94 686 q 340 797 231 797 q 485 761 422 797 q 569 663 547 725 l 540 663 l 540 782 l 629 782 l 629 561 l 547 561 q 499 664 539 611 q 346 717 460 717 q 235 683 274 717 q 196 594 196 649 q 239 501 196 533 q 364 456 282 469 l 396 450 q 599 377 532 426 q 667 215 667 328 q 602 55 667 124 q 417 -14 538 -14 m 347 899 l 421 1100 l 538 1100 l 413 899 l 347 899 m 379 1199 q 332 1217 351 1199 q 313 1261 313 1236 q 331 1306 313 1288 q 379 1324 350 1324 q 426 1307 407 1324 q 444 1261 444 1290 q 428 1218 446 1238 q 379 1199 410 1199 z "},"Š":{"ha":725,"x_min":94,"x_max":667,"o":"m 417 -14 q 268 24 332 -14 q 171 125 204 61 l 189 125 l 189 0 l 99 0 l 99 264 l 182 264 q 251 122 190 178 q 413 67 313 67 q 525 101 485 67 q 565 199 565 135 q 523 303 565 275 q 376 350 481 332 l 343 356 q 163 430 231 375 q 94 583 94 485 q 163 742 94 686 q 340 797 231 797 q 485 761 422 797 q 569 663 547 725 l 540 663 l 540 782 l 629 782 l 629 561 l 547 561 q 499 664 539 611 q 346 717 460 717 q 235 683 274 717 q 196 594 196 649 q 239 501 196 533 q 364 456 282 469 l 396 450 q 599 377 532 426 q 667 215 667 328 q 602 55 667 124 q 417 -14 538 -14 m 331 858 l 218 1068 l 292 1068 l 381 917 l 467 1068 l 539 1068 l 429 858 l 331 858 z "},"Ṧ":{"ha":725,"x_min":94,"x_max":667,"o":"m 417 -14 q 268 24 332 -14 q 171 125 204 61 l 189 125 l 189 0 l 99 0 l 99 264 l 182 264 q 251 122 190 178 q 413 67 313 67 q 525 101 485 67 q 565 199 565 135 q 523 303 565 275 q 376 350 481 332 l 343 356 q 163 430 231 375 q 94 583 94 485 q 163 742 94 686 q 340 797 231 797 q 485 761 422 797 q 569 663 547 725 l 540 663 l 540 782 l 629 782 l 629 561 l 547 561 q 499 664 539 611 q 346 717 460 717 q 235 683 274 717 q 196 594 196 649 q 239 501 196 533 q 364 456 282 469 l 396 450 q 599 377 532 426 q 667 215 667 328 q 602 55 667 124 q 417 -14 538 -14 m 331 858 l 218 1068 l 292 1068 l 381 917 l 467 1068 l 539 1068 l 429 858 l 331 858 m 379 1161 q 332 1180 351 1161 q 313 1224 313 1199 q 331 1268 313 1250 q 379 1286 350 1286 q 426 1269 407 1286 q 444 1224 444 1253 q 428 1181 446 1200 q 379 1161 410 1161 z "},"Ş":{"ha":725,"x_min":94,"x_max":667,"o":"m 417 -14 q 268 24 332 -14 q 171 125 204 61 l 189 125 l 189 0 l 99 0 l 99 264 l 182 264 q 251 122 190 178 q 413 67 313 67 q 525 101 485 67 q 565 199 565 135 q 523 303 565 275 q 376 350 481 332 l 343 356 q 163 430 231 375 q 94 583 94 485 q 163 742 94 686 q 340 797 231 797 q 485 761 422 797 q 569 663 547 725 l 540 663 l 540 782 l 629 782 l 629 561 l 547 561 q 499 664 539 611 q 346 717 460 717 q 235 683 274 717 q 196 594 196 649 q 239 501 196 533 q 364 456 282 469 l 396 450 q 599 377 532 426 q 667 215 667 328 q 602 55 667 124 q 417 -14 538 -14 m 413 -243 q 292 -217 353 -243 l 292 -176 q 334 -187 314 -183 q 371 -190 354 -190 q 424 -154 424 -190 q 405 -125 424 -136 q 344 -111 386 -114 l 388 0 l 433 0 l 411 -81 q 488 -110 464 -86 q 511 -164 511 -133 q 482 -225 511 -207 q 413 -243 453 -243 z "},"Ŝ":{"ha":725,"x_min":94,"x_max":667,"o":"m 417 -14 q 268 24 332 -14 q 171 125 204 61 l 189 125 l 189 0 l 99 0 l 99 264 l 182 264 q 251 122 190 178 q 413 67 313 67 q 525 101 485 67 q 565 199 565 135 q 523 303 565 275 q 376 350 481 332 l 343 356 q 163 430 231 375 q 94 583 94 485 q 163 742 94 686 q 340 797 231 797 q 485 761 422 797 q 569 663 547 725 l 540 663 l 540 782 l 629 782 l 629 561 l 547 561 q 499 664 539 611 q 346 717 460 717 q 235 683 274 717 q 196 594 196 649 q 239 501 196 533 q 364 456 282 469 l 396 450 q 599 377 532 426 q 667 215 667 328 q 602 55 667 124 q 417 -14 538 -14 m 210 860 l 325 1078 l 433 1078 l 549 860 l 471 860 l 379 1033 l 288 860 l 210 860 z "},"Ș":{"ha":725,"x_min":94,"x_max":667,"o":"m 417 -14 q 268 24 332 -14 q 171 125 204 61 l 189 125 l 189 0 l 99 0 l 99 264 l 182 264 q 251 122 190 178 q 413 67 313 67 q 525 101 485 67 q 565 199 565 135 q 523 303 565 275 q 376 350 481 332 l 343 356 q 163 430 231 375 q 94 583 94 485 q 163 742 94 686 q 340 797 231 797 q 485 761 422 797 q 569 663 547 725 l 540 663 l 540 782 l 629 782 l 629 561 l 547 561 q 499 664 539 611 q 346 717 460 717 q 235 683 274 717 q 196 594 196 649 q 239 501 196 533 q 364 456 282 469 l 396 450 q 599 377 532 426 q 667 215 667 328 q 602 55 667 124 q 417 -14 538 -14 m 343 -328 l 343 -283 q 402 -253 383 -276 q 421 -190 421 -231 l 346 -190 l 346 -69 l 478 -69 l 478 -193 q 445 -292 478 -256 q 343 -328 413 -328 z "},"Ṡ":{"ha":725,"x_min":94,"x_max":667,"o":"m 417 -14 q 268 24 332 -14 q 171 125 204 61 l 189 125 l 189 0 l 99 0 l 99 264 l 182 264 q 251 122 190 178 q 413 67 313 67 q 525 101 485 67 q 565 199 565 135 q 523 303 565 275 q 376 350 481 332 l 343 356 q 163 430 231 375 q 94 583 94 485 q 163 742 94 686 q 340 797 231 797 q 485 761 422 797 q 569 663 547 725 l 540 663 l 540 782 l 629 782 l 629 561 l 547 561 q 499 664 539 611 q 346 717 460 717 q 235 683 274 717 q 196 594 196 649 q 239 501 196 533 q 364 456 282 469 l 396 450 q 599 377 532 426 q 667 215 667 328 q 602 55 667 124 q 417 -14 538 -14 z "},"Ṣ":{"ha":725,"x_min":94,"x_max":667,"o":"m 417 -14 q 268 24 332 -14 q 171 125 204 61 l 189 125 l 189 0 l 99 0 l 99 264 l 182 264 q 251 122 190 178 q 413 67 313 67 q 525 101 485 67 q 565 199 565 135 q 523 303 565 275 q 376 350 481 332 l 343 356 q 163 430 231 375 q 94 583 94 485 q 163 742 94 686 q 340 797 231 797 q 485 761 422 797 q 569 663 547 725 l 540 663 l 540 782 l 629 782 l 629 561 l 547 561 q 499 664 539 611 q 346 717 460 717 q 235 683 274 717 q 196 594 196 649 q 239 501 196 533 q 364 456 282 469 l 396 450 q 599 377 532 426 q 667 215 667 328 q 602 55 667 124 q 417 -14 538 -14 m 410 -194 q 363 -176 382 -194 q 343 -132 343 -157 q 410 -69 343 -69 q 456 -86 438 -69 q 475 -132 475 -103 q 458 -175 476 -156 q 410 -194 440 -194 z "},"Ṩ":{"ha":725,"x_min":94,"x_max":667,"o":"m 417 -14 q 268 24 332 -14 q 171 125 204 61 l 189 125 l 189 0 l 99 0 l 99 264 l 182 264 q 251 122 190 178 q 413 67 313 67 q 525 101 485 67 q 565 199 565 135 q 523 303 565 275 q 376 350 481 332 l 343 356 q 163 430 231 375 q 94 583 94 485 q 163 742 94 686 q 340 797 231 797 q 485 761 422 797 q 569 663 547 725 l 540 663 l 540 782 l 629 782 l 629 561 l 547 561 q 499 664 539 611 q 346 717 460 717 q 235 683 274 717 q 196 594 196 649 q 239 501 196 533 q 364 456 282 469 l 396 450 q 599 377 532 426 q 667 215 667 328 q 602 55 667 124 q 417 -14 538 -14 m 410 -194 q 363 -176 382 -194 q 343 -132 343 -157 q 410 -69 343 -69 q 456 -86 438 -69 q 475 -132 475 -103 q 458 -175 476 -156 q 410 -194 440 -194 m 379 875 q 332 894 351 875 q 313 938 313 913 q 331 982 313 964 q 379 1000 350 1000 q 426 983 407 1000 q 444 938 444 967 q 428 894 446 914 q 379 875 410 875 z "},"ẞ":{"ha":833,"x_min":50,"x_max":778,"o":"m 453 -14 l 453 69 q 656 219 656 69 q 600 334 656 297 q 439 371 544 371 l 439 449 l 610 685 q 534 706 575 699 q 440 713 493 713 q 289 665 344 713 q 233 518 233 618 l 233 74 l 311 74 l 311 0 l 50 0 l 50 74 l 119 74 l 119 515 q 201 722 119 647 q 439 796 283 796 q 583 778 522 796 q 693 736 643 761 l 693 658 l 539 446 q 716 377 654 433 q 778 224 778 321 q 694 47 778 107 q 453 -14 611 -14 z "},"Ə":{"ha":940,"x_min":61,"x_max":871,"o":"m 457 -15 q 167 92 272 -15 q 61 382 61 200 l 61 419 l 772 419 l 769 340 l 181 340 q 260 142 181 213 q 460 71 340 71 q 667 154 583 71 q 750 385 750 238 q 668 625 750 536 q 454 714 586 714 q 271 675 353 714 q 119 575 189 636 l 75 640 q 234 747 139 699 q 458 796 329 796 q 752 685 633 796 q 871 393 871 575 q 815 176 871 267 q 666 35 760 85 q 457 -15 572 -15 z "},"T":{"ha":776,"x_min":35,"x_max":740,"o":"m 225 0 l 225 74 l 333 74 l 333 708 l 119 708 l 119 510 l 35 510 l 35 782 l 740 782 l 740 510 l 656 510 l 656 708 l 446 708 l 446 74 l 554 74 l 554 0 l 225 0 z "},"Ŧ":{"ha":776,"x_min":35,"x_max":740,"o":"m 225 0 l 225 74 l 333 74 l 333 708 l 119 708 l 119 510 l 35 510 l 35 782 l 740 782 l 740 510 l 656 510 l 656 708 l 446 708 l 446 74 l 554 74 l 554 0 l 225 0 m 242 363 l 242 425 l 533 425 l 533 363 l 242 363 z "},"Ť":{"ha":776,"x_min":35,"x_max":740,"o":"m 225 0 l 225 74 l 333 74 l 333 708 l 119 708 l 119 510 l 35 510 l 35 782 l 740 782 l 740 510 l 656 510 l 656 708 l 446 708 l 446 74 l 554 74 l 554 0 l 225 0 m 338 858 l 225 1068 l 299 1068 l 388 917 l 474 1068 l 546 1068 l 436 858 l 338 858 z "},"Ţ":{"ha":776,"x_min":35,"x_max":740,"o":"m 225 0 l 225 74 l 333 74 l 333 708 l 119 708 l 119 510 l 35 510 l 35 782 l 740 782 l 740 510 l 656 510 l 656 708 l 446 708 l 446 74 l 554 74 l 554 0 l 225 0 m 393 -243 q 272 -217 333 -243 l 272 -176 q 315 -187 294 -183 q 351 -190 335 -190 q 404 -154 404 -190 q 385 -125 404 -136 q 325 -111 367 -114 l 368 0 l 414 0 l 392 -81 q 468 -110 444 -86 q 492 -164 492 -133 q 463 -225 492 -207 q 393 -243 433 -243 z "},"Ț":{"ha":776,"x_min":35,"x_max":740,"o":"m 225 0 l 225 74 l 333 74 l 333 708 l 119 708 l 119 510 l 35 510 l 35 782 l 740 782 l 740 510 l 656 510 l 656 708 l 446 708 l 446 74 l 554 74 l 554 0 l 225 0 m 324 -328 l 324 -283 q 383 -253 364 -276 q 401 -190 401 -231 l 326 -190 l 326 -69 l 458 -69 l 458 -193 q 426 -292 458 -256 q 324 -328 393 -328 z "},"Ṫ":{"ha":776,"x_min":35,"x_max":740,"o":"m 225 0 l 225 74 l 333 74 l 333 708 l 119 708 l 119 510 l 35 510 l 35 782 l 740 782 l 740 510 l 656 510 l 656 708 l 446 708 l 446 74 l 554 74 l 554 0 l 225 0 z "},"Ṭ":{"ha":776,"x_min":35,"x_max":740,"o":"m 225 0 l 225 74 l 333 74 l 333 708 l 119 708 l 119 510 l 35 510 l 35 782 l 740 782 l 740 510 l 656 510 l 656 708 l 446 708 l 446 74 l 554 74 l 554 0 l 225 0 m 390 -194 q 343 -176 363 -194 q 324 -132 324 -157 q 390 -69 324 -69 q 437 -86 418 -69 q 456 -132 456 -103 q 439 -175 457 -156 q 390 -194 421 -194 z "},"Ṯ":{"ha":776,"x_min":35,"x_max":740,"o":"m 225 0 l 225 74 l 333 74 l 333 708 l 119 708 l 119 510 l 35 510 l 35 782 l 740 782 l 740 510 l 656 510 l 656 708 l 446 708 l 446 74 l 554 74 l 554 0 l 225 0 z "},"U":{"ha":931,"x_min":38,"x_max":903,"o":"m 468 -14 q 217 71 293 -14 q 142 283 142 156 l 142 708 l 38 708 l 38 782 l 358 782 l 358 708 l 254 708 l 254 268 q 312 122 254 175 q 471 69 369 69 q 641 122 581 69 q 701 269 701 175 l 701 708 l 599 708 l 599 782 l 903 782 l 903 708 l 797 708 l 797 274 q 705 58 797 129 q 468 -14 613 -14 z "},"Ú":{"ha":931,"x_min":38,"x_max":903,"o":"m 468 -14 q 217 71 293 -14 q 142 283 142 156 l 142 708 l 38 708 l 38 782 l 358 782 l 358 708 l 254 708 l 254 268 q 312 122 254 175 q 471 69 369 69 q 641 122 581 69 q 701 269 701 175 l 701 708 l 599 708 l 599 782 l 903 782 l 903 708 l 797 708 l 797 274 q 705 58 797 129 q 468 -14 613 -14 m 446 899 l 519 1100 l 636 1100 l 511 899 l 446 899 z "},"Ŭ":{"ha":931,"x_min":38,"x_max":903,"o":"m 468 -14 q 217 71 293 -14 q 142 283 142 156 l 142 708 l 38 708 l 38 782 l 358 782 l 358 708 l 254 708 l 254 268 q 312 122 254 175 q 471 69 369 69 q 641 122 581 69 q 701 269 701 175 l 701 708 l 599 708 l 599 782 l 903 782 l 903 708 l 797 708 l 797 274 q 705 58 797 129 q 468 -14 613 -14 m 478 861 q 374 898 415 860 q 325 1000 332 936 l 393 1000 q 478 924 408 924 q 561 1000 549 924 l 631 1000 q 478 861 615 864 z "},"Ǔ":{"ha":931,"x_min":38,"x_max":903,"o":"m 468 -14 q 217 71 293 -14 q 142 283 142 156 l 142 708 l 38 708 l 38 782 l 358 782 l 358 708 l 254 708 l 254 268 q 312 122 254 175 q 471 69 369 69 q 641 122 581 69 q 701 269 701 175 l 701 708 l 599 708 l 599 782 l 903 782 l 903 708 l 797 708 l 797 274 q 705 58 797 129 q 468 -14 613 -14 m 429 858 l 317 1068 l 390 1068 l 479 917 l 565 1068 l 638 1068 l 528 858 l 429 858 z "},"Û":{"ha":931,"x_min":38,"x_max":903,"o":"m 468 -14 q 217 71 293 -14 q 142 283 142 156 l 142 708 l 38 708 l 38 782 l 358 782 l 358 708 l 254 708 l 254 268 q 312 122 254 175 q 471 69 369 69 q 641 122 581 69 q 701 269 701 175 l 701 708 l 599 708 l 599 782 l 903 782 l 903 708 l 797 708 l 797 274 q 705 58 797 129 q 468 -14 613 -14 m 308 860 l 424 1078 l 532 1078 l 647 860 l 569 860 l 478 1033 l 386 860 l 308 860 z "},"Ȕ":{"ha":931,"x_min":38,"x_max":903,"o":"m 468 -14 q 217 71 293 -14 q 142 283 142 156 l 142 708 l 38 708 l 38 782 l 358 782 l 358 708 l 254 708 l 254 268 q 312 122 254 175 q 471 69 369 69 q 641 122 581 69 q 701 269 701 175 l 701 708 l 599 708 l 599 782 l 903 782 l 903 708 l 797 708 l 797 274 q 705 58 797 129 q 468 -14 613 -14 m 335 899 l 204 1110 l 321 1110 l 400 899 l 335 899 m 522 899 l 393 1110 l 510 1110 l 588 899 l 522 899 z "},"Ü":{"ha":931,"x_min":38,"x_max":903,"o":"m 468 -14 q 217 71 293 -14 q 142 283 142 156 l 142 708 l 38 708 l 38 782 l 358 782 l 358 708 l 254 708 l 254 268 q 312 122 254 175 q 471 69 369 69 q 641 122 581 69 q 701 269 701 175 l 701 708 l 599 708 l 599 782 l 903 782 l 903 708 l 797 708 l 797 274 q 705 58 797 129 q 468 -14 613 -14 m 344 871 q 299 887 317 871 q 282 931 282 903 q 299 974 282 958 q 344 990 317 990 q 390 974 372 990 q 407 931 407 958 q 390 887 407 903 q 344 871 372 871 m 611 871 q 567 887 583 871 q 550 931 550 903 q 567 974 550 958 q 611 990 583 990 q 656 974 639 990 q 674 931 674 958 q 656 887 674 903 q 611 871 639 871 z "},"Ụ":{"ha":931,"x_min":38,"x_max":903,"o":"m 468 -14 q 217 71 293 -14 q 142 283 142 156 l 142 708 l 38 708 l 38 782 l 358 782 l 358 708 l 254 708 l 254 268 q 312 122 254 175 q 471 69 369 69 q 641 122 581 69 q 701 269 701 175 l 701 708 l 599 708 l 599 782 l 903 782 l 903 708 l 797 708 l 797 274 q 705 58 797 129 q 468 -14 613 -14 m 469 -194 q 422 -176 442 -194 q 403 -132 403 -157 q 469 -69 403 -69 q 516 -86 497 -69 q 535 -132 535 -103 q 518 -175 536 -156 q 469 -194 500 -194 z "},"Ù":{"ha":931,"x_min":38,"x_max":903,"o":"m 468 -14 q 217 71 293 -14 q 142 283 142 156 l 142 708 l 38 708 l 38 782 l 358 782 l 358 708 l 254 708 l 254 268 q 312 122 254 175 q 471 69 369 69 q 641 122 581 69 q 701 269 701 175 l 701 708 l 599 708 l 599 782 l 903 782 l 903 708 l 797 708 l 797 274 q 705 58 797 129 q 468 -14 613 -14 m 444 899 l 319 1100 l 436 1100 l 510 899 l 444 899 z "},"Ủ":{"ha":931,"x_min":38,"x_max":903,"o":"m 468 -14 q 217 71 293 -14 q 142 283 142 156 l 142 708 l 38 708 l 38 782 l 358 782 l 358 708 l 254 708 l 254 268 q 312 122 254 175 q 471 69 369 69 q 641 122 581 69 q 701 269 701 175 l 701 708 l 599 708 l 599 782 l 903 782 l 903 708 l 797 708 l 797 274 q 705 58 797 129 q 468 -14 613 -14 m 478 842 l 458 903 q 506 953 506 918 q 458 990 506 990 q 399 972 431 990 l 378 1031 q 417 1047 394 1040 q 465 1054 439 1054 q 548 1026 517 1054 q 579 956 579 999 q 478 842 579 869 z "},"Ư":{"ha":931,"x_min":38,"x_max":926,"o":"m 468 -14 q 217 71 293 -14 q 142 283 142 156 l 142 708 l 38 708 l 38 782 l 358 782 l 358 708 l 254 708 l 254 268 q 312 122 254 175 q 471 69 369 69 q 641 122 581 69 q 701 269 701 175 l 701 708 l 599 708 l 599 782 l 797 782 l 797 274 q 705 58 797 129 q 468 -14 613 -14 m 699 717 l 699 782 l 715 782 q 782 803 754 782 q 814 878 810 825 l 926 878 q 867 760 917 804 q 739 717 817 717 l 699 717 z "},"Ứ":{"ha":931,"x_min":38,"x_max":926,"o":"m 468 -14 q 217 71 293 -14 q 142 283 142 156 l 142 708 l 38 708 l 38 782 l 358 782 l 358 708 l 254 708 l 254 268 q 312 122 254 175 q 471 69 369 69 q 641 122 581 69 q 701 269 701 175 l 701 708 l 599 708 l 599 782 l 797 782 l 797 274 q 705 58 797 129 q 468 -14 613 -14 m 699 717 l 699 782 l 715 782 q 782 803 754 782 q 814 878 810 825 l 926 878 q 867 760 917 804 q 739 717 817 717 l 699 717 m 446 899 l 519 1100 l 636 1100 l 511 899 l 446 899 z "},"Ự":{"ha":931,"x_min":38,"x_max":926,"o":"m 468 -14 q 217 71 293 -14 q 142 283 142 156 l 142 708 l 38 708 l 38 782 l 358 782 l 358 708 l 254 708 l 254 268 q 312 122 254 175 q 471 69 369 69 q 641 122 581 69 q 701 269 701 175 l 701 708 l 599 708 l 599 782 l 797 782 l 797 274 q 705 58 797 129 q 468 -14 613 -14 m 699 717 l 699 782 l 715 782 q 782 803 754 782 q 814 878 810 825 l 926 878 q 867 760 917 804 q 739 717 817 717 l 699 717 m 469 -194 q 422 -176 442 -194 q 403 -132 403 -157 q 469 -69 403 -69 q 516 -86 497 -69 q 535 -132 535 -103 q 518 -175 536 -156 q 469 -194 500 -194 z "},"Ừ":{"ha":931,"x_min":38,"x_max":926,"o":"m 468 -14 q 217 71 293 -14 q 142 283 142 156 l 142 708 l 38 708 l 38 782 l 358 782 l 358 708 l 254 708 l 254 268 q 312 122 254 175 q 471 69 369 69 q 641 122 581 69 q 701 269 701 175 l 701 708 l 599 708 l 599 782 l 797 782 l 797 274 q 705 58 797 129 q 468 -14 613 -14 m 699 717 l 699 782 l 715 782 q 782 803 754 782 q 814 878 810 825 l 926 878 q 867 760 917 804 q 739 717 817 717 l 699 717 m 444 899 l 319 1100 l 436 1100 l 510 899 l 444 899 z "},"Ử":{"ha":931,"x_min":38,"x_max":926,"o":"m 468 -14 q 217 71 293 -14 q 142 283 142 156 l 142 708 l 38 708 l 38 782 l 358 782 l 358 708 l 254 708 l 254 268 q 312 122 254 175 q 471 69 369 69 q 641 122 581 69 q 701 269 701 175 l 701 708 l 599 708 l 599 782 l 797 782 l 797 274 q 705 58 797 129 q 468 -14 613 -14 m 699 717 l 699 782 l 715 782 q 782 803 754 782 q 814 878 810 825 l 926 878 q 867 760 917 804 q 739 717 817 717 l 699 717 m 478 842 l 458 903 q 506 953 506 918 q 458 990 506 990 q 399 972 431 990 l 378 1031 q 417 1047 394 1040 q 465 1054 439 1054 q 548 1026 517 1054 q 579 956 579 999 q 478 842 579 869 z "},"Ữ":{"ha":931,"x_min":38,"x_max":926,"o":"m 468 -14 q 217 71 293 -14 q 142 283 142 156 l 142 708 l 38 708 l 38 782 l 358 782 l 358 708 l 254 708 l 254 268 q 312 122 254 175 q 471 69 369 69 q 641 122 581 69 q 701 269 701 175 l 701 708 l 599 708 l 599 782 l 797 782 l 797 274 q 705 58 797 129 q 468 -14 613 -14 m 699 717 l 699 782 l 715 782 q 782 803 754 782 q 814 878 810 825 l 926 878 q 867 760 917 804 q 739 717 817 717 l 699 717 m 565 889 q 467 915 518 889 q 381 940 417 940 q 338 894 344 940 l 294 894 q 327 988 300 958 q 396 1017 354 1017 q 488 991 436 1017 q 571 965 539 965 q 622 1014 611 965 l 663 1014 q 636 925 658 961 q 565 889 614 889 z "},"Ű":{"ha":931,"x_min":38,"x_max":903,"o":"m 468 -14 q 217 71 293 -14 q 142 283 142 156 l 142 708 l 38 708 l 38 782 l 358 782 l 358 708 l 254 708 l 254 268 q 312 122 254 175 q 471 69 369 69 q 641 122 581 69 q 701 269 701 175 l 701 708 l 599 708 l 599 782 l 903 782 l 903 708 l 797 708 l 797 274 q 705 58 797 129 q 468 -14 613 -14 m 354 899 l 432 1110 l 549 1110 l 418 899 l 354 899 m 542 899 l 619 1110 l 736 1110 l 607 899 l 542 899 z "},"Ȗ":{"ha":931,"x_min":38,"x_max":903,"o":"m 468 -14 q 217 71 293 -14 q 142 283 142 156 l 142 708 l 38 708 l 38 782 l 358 782 l 358 708 l 254 708 l 254 268 q 312 122 254 175 q 471 69 369 69 q 641 122 581 69 q 701 269 701 175 l 701 708 l 599 708 l 599 782 l 903 782 l 903 708 l 797 708 l 797 274 q 705 58 797 129 q 468 -14 613 -14 m 315 861 q 366 969 322 929 q 478 1010 410 1010 q 588 969 544 1010 q 639 861 632 929 l 557 861 q 478 932 544 932 q 397 861 410 932 l 315 861 z "},"Ū":{"ha":931,"x_min":38,"x_max":903,"o":"m 468 -14 q 217 71 293 -14 q 142 283 142 156 l 142 708 l 38 708 l 38 782 l 358 782 l 358 708 l 254 708 l 254 268 q 312 122 254 175 q 471 69 369 69 q 641 122 581 69 q 701 269 701 175 l 701 708 l 599 708 l 599 782 l 903 782 l 903 708 l 797 708 l 797 274 q 705 58 797 129 q 468 -14 613 -14 m 332 893 l 332 956 l 624 956 l 624 893 l 332 893 z "},"Ṻ":{"ha":931,"x_min":38,"x_max":903,"o":"m 468 -14 q 217 71 293 -14 q 142 283 142 156 l 142 708 l 38 708 l 38 782 l 358 782 l 358 708 l 254 708 l 254 268 q 312 122 254 175 q 471 69 369 69 q 641 122 581 69 q 701 269 701 175 l 701 708 l 599 708 l 599 782 l 903 782 l 903 708 l 797 708 l 797 274 q 705 58 797 129 q 468 -14 613 -14 m 332 893 l 332 956 l 624 956 l 624 893 l 332 893 m 344 1029 q 299 1045 317 1029 q 282 1089 282 1061 q 299 1133 282 1117 q 344 1149 317 1149 q 390 1133 372 1149 q 407 1089 407 1117 q 390 1045 407 1061 q 344 1029 372 1029 m 611 1029 q 567 1045 583 1029 q 550 1089 550 1061 q 567 1133 550 1117 q 611 1149 583 1149 q 656 1133 639 1149 q 674 1089 674 1117 q 656 1045 674 1061 q 611 1029 639 1029 z "},"Ų":{"ha":931,"x_min":38,"x_max":903,"o":"m 468 -14 q 217 71 293 -14 q 142 283 142 156 l 142 708 l 38 708 l 38 782 l 358 782 l 358 708 l 254 708 l 254 268 q 312 122 254 175 q 471 69 369 69 q 641 122 581 69 q 701 269 701 175 l 701 708 l 599 708 l 599 782 l 903 782 l 903 708 l 797 708 l 797 274 q 705 58 797 129 q 468 -14 613 -14 m 482 -235 q 403 -206 435 -235 q 371 -132 371 -178 q 444 0 371 -69 l 504 0 q 458 -58 475 -31 q 442 -111 442 -86 q 507 -171 442 -171 q 568 -153 538 -171 l 568 -208 q 482 -235 525 -235 z "},"Ů":{"ha":931,"x_min":38,"x_max":903,"o":"m 468 -14 q 217 71 293 -14 q 142 283 142 156 l 142 708 l 38 708 l 38 782 l 358 782 l 358 708 l 254 708 l 254 268 q 312 122 254 175 q 471 69 369 69 q 641 122 581 69 q 701 269 701 175 l 701 708 l 599 708 l 599 782 l 903 782 l 903 708 l 797 708 l 797 274 q 705 58 797 129 q 468 -14 613 -14 m 478 831 q 397 861 426 831 q 368 935 368 892 q 397 1007 368 978 q 478 1036 425 1036 q 559 1007 531 1036 q 588 935 588 978 q 558 861 588 892 q 478 831 529 831 m 478 874 q 539 935 539 874 q 478 994 539 994 q 415 935 415 994 q 478 874 415 874 z "},"Ũ":{"ha":931,"x_min":38,"x_max":903,"o":"m 468 -14 q 217 71 293 -14 q 142 283 142 156 l 142 708 l 38 708 l 38 782 l 358 782 l 358 708 l 254 708 l 254 268 q 312 122 254 175 q 471 69 369 69 q 641 122 581 69 q 701 269 701 175 l 701 708 l 599 708 l 599 782 l 903 782 l 903 708 l 797 708 l 797 274 q 705 58 797 129 q 468 -14 613 -14 m 565 889 q 467 915 518 889 q 381 940 417 940 q 338 894 344 940 l 294 894 q 327 988 300 958 q 396 1017 354 1017 q 488 991 436 1017 q 571 965 539 965 q 622 1014 611 965 l 663 1014 q 636 925 658 961 q 565 889 614 889 z "},"Ṹ":{"ha":931,"x_min":38,"x_max":903,"o":"m 468 -14 q 217 71 293 -14 q 142 283 142 156 l 142 708 l 38 708 l 38 782 l 358 782 l 358 708 l 254 708 l 254 268 q 312 122 254 175 q 471 69 369 69 q 641 122 581 69 q 701 269 701 175 l 701 708 l 599 708 l 599 782 l 903 782 l 903 708 l 797 708 l 797 274 q 705 58 797 129 q 468 -14 613 -14 m 565 889 q 467 915 518 889 q 381 940 417 940 q 338 894 344 940 l 294 894 q 327 988 300 958 q 396 1017 354 1017 q 488 991 436 1017 q 571 965 539 965 q 622 1014 611 965 l 663 1014 q 636 925 658 961 q 565 889 614 889 m 447 1106 l 521 1307 l 638 1307 l 513 1106 l 447 1106 z "},"V":{"ha":897,"x_min":22,"x_max":874,"o":"m 401 0 l 121 708 l 22 708 l 22 782 l 340 782 l 340 708 l 238 708 l 458 124 l 676 708 l 576 708 l 576 782 l 874 782 l 874 708 l 778 708 l 500 0 l 401 0 z "},"W":{"ha":1281,"x_min":33,"x_max":1249,"o":"m 351 0 l 129 708 l 33 708 l 33 782 l 339 782 l 339 708 l 238 708 l 407 144 l 608 768 l 690 768 l 893 144 l 1058 708 l 957 708 l 957 782 l 1249 782 l 1249 708 l 1151 708 l 936 0 l 839 0 l 643 592 l 449 0 l 351 0 z "},"Ẃ":{"ha":1281,"x_min":33,"x_max":1249,"o":"m 351 0 l 129 708 l 33 708 l 33 782 l 339 782 l 339 708 l 238 708 l 407 144 l 608 768 l 690 768 l 893 144 l 1058 708 l 957 708 l 957 782 l 1249 782 l 1249 708 l 1151 708 l 936 0 l 839 0 l 643 592 l 449 0 l 351 0 m 618 885 l 692 1086 l 808 1086 l 683 885 l 618 885 z "},"Ŵ":{"ha":1281,"x_min":33,"x_max":1249,"o":"m 351 0 l 129 708 l 33 708 l 33 782 l 339 782 l 339 708 l 238 708 l 407 144 l 608 768 l 690 768 l 893 144 l 1058 708 l 957 708 l 957 782 l 1249 782 l 1249 708 l 1151 708 l 936 0 l 839 0 l 643 592 l 449 0 l 351 0 m 481 846 l 596 1064 l 704 1064 l 819 846 l 742 846 l 650 1019 l 558 846 l 481 846 z "},"Ẅ":{"ha":1281,"x_min":33,"x_max":1249,"o":"m 351 0 l 129 708 l 33 708 l 33 782 l 339 782 l 339 708 l 238 708 l 407 144 l 608 768 l 690 768 l 893 144 l 1058 708 l 957 708 l 957 782 l 1249 782 l 1249 708 l 1151 708 l 936 0 l 839 0 l 643 592 l 449 0 l 351 0 m 517 857 q 472 873 489 857 q 454 917 454 889 q 472 960 454 944 q 517 976 489 976 q 562 960 544 976 q 579 917 579 944 q 562 873 579 889 q 517 857 544 857 m 783 857 q 739 873 756 857 q 722 917 722 889 q 739 960 722 944 q 783 976 756 976 q 828 960 811 976 q 846 917 846 944 q 828 873 846 889 q 783 857 811 857 z "},"Ẁ":{"ha":1281,"x_min":33,"x_max":1249,"o":"m 351 0 l 129 708 l 33 708 l 33 782 l 339 782 l 339 708 l 238 708 l 407 144 l 608 768 l 690 768 l 893 144 l 1058 708 l 957 708 l 957 782 l 1249 782 l 1249 708 l 1151 708 l 936 0 l 839 0 l 643 592 l 449 0 l 351 0 m 617 885 l 492 1086 l 608 1086 l 682 885 l 617 885 z "},"X":{"ha":885,"x_min":42,"x_max":843,"o":"m 42 0 l 42 69 l 150 69 l 379 400 l 158 711 l 51 711 l 51 782 l 372 782 l 372 711 l 278 711 l 449 464 l 617 711 l 521 711 l 521 782 l 825 782 l 825 711 l 718 711 l 499 401 l 733 69 l 843 69 l 843 0 l 515 0 l 515 69 l 613 69 l 432 338 l 253 69 l 351 69 l 351 0 l 42 0 z "},"Y":{"ha":878,"x_min":19,"x_max":858,"o":"m 271 0 l 271 74 l 385 74 l 385 335 l 124 708 l 19 708 l 19 782 l 344 782 l 344 708 l 246 708 l 451 408 l 650 708 l 550 708 l 550 782 l 858 782 l 858 708 l 751 708 l 497 336 l 497 74 l 613 74 l 613 0 l 271 0 z "},"Ý":{"ha":878,"x_min":19,"x_max":858,"o":"m 271 0 l 271 74 l 385 74 l 385 335 l 124 708 l 19 708 l 19 782 l 344 782 l 344 708 l 246 708 l 451 408 l 650 708 l 550 708 l 550 782 l 858 782 l 858 708 l 751 708 l 497 336 l 497 74 l 613 74 l 613 0 l 271 0 m 415 899 l 489 1100 l 606 1100 l 481 899 l 415 899 z "},"Ŷ":{"ha":878,"x_min":19,"x_max":858,"o":"m 271 0 l 271 74 l 385 74 l 385 335 l 124 708 l 19 708 l 19 782 l 344 782 l 344 708 l 246 708 l 451 408 l 650 708 l 550 708 l 550 782 l 858 782 l 858 708 l 751 708 l 497 336 l 497 74 l 613 74 l 613 0 l 271 0 m 278 860 l 393 1078 l 501 1078 l 617 860 l 539 860 l 447 1033 l 356 860 l 278 860 z "},"Ÿ":{"ha":878,"x_min":19,"x_max":858,"o":"m 271 0 l 271 74 l 385 74 l 385 335 l 124 708 l 19 708 l 19 782 l 344 782 l 344 708 l 246 708 l 451 408 l 650 708 l 550 708 l 550 782 l 858 782 l 858 708 l 751 708 l 497 336 l 497 74 l 613 74 l 613 0 l 271 0 m 314 871 q 269 887 286 871 q 251 931 251 903 q 269 974 251 958 q 314 990 286 990 q 359 974 342 990 q 376 931 376 958 q 359 887 376 903 q 314 871 342 871 m 581 871 q 536 887 553 871 q 519 931 519 903 q 536 974 519 958 q 581 990 553 990 q 626 974 608 990 q 643 931 643 958 q 626 887 643 903 q 581 871 608 871 z "},"Ẏ":{"ha":878,"x_min":19,"x_max":858,"o":"m 271 0 l 271 74 l 385 74 l 385 335 l 124 708 l 19 708 l 19 782 l 344 782 l 344 708 l 246 708 l 451 408 l 650 708 l 550 708 l 550 782 l 858 782 l 858 708 l 751 708 l 497 336 l 497 74 l 613 74 l 613 0 l 271 0 m 447 875 q 400 894 419 875 q 381 938 381 913 q 399 982 381 964 q 447 1000 418 1000 q 494 983 475 1000 q 513 938 513 967 q 496 894 514 914 q 447 875 478 875 z "},"Ỵ":{"ha":878,"x_min":19,"x_max":858,"o":"m 271 0 l 271 74 l 385 74 l 385 335 l 124 708 l 19 708 l 19 782 l 344 782 l 344 708 l 246 708 l 451 408 l 650 708 l 550 708 l 550 782 l 858 782 l 858 708 l 751 708 l 497 336 l 497 74 l 613 74 l 613 0 l 271 0 m 442 -194 q 394 -176 414 -194 q 375 -132 375 -157 q 442 -69 375 -69 q 488 -86 469 -69 q 507 -132 507 -103 q 490 -175 508 -156 q 442 -194 472 -194 z "},"Ỳ":{"ha":878,"x_min":19,"x_max":858,"o":"m 271 0 l 271 74 l 385 74 l 385 335 l 124 708 l 19 708 l 19 782 l 344 782 l 344 708 l 246 708 l 451 408 l 650 708 l 550 708 l 550 782 l 858 782 l 858 708 l 751 708 l 497 336 l 497 74 l 613 74 l 613 0 l 271 0 m 414 899 l 289 1100 l 406 1100 l 479 899 l 414 899 z "},"Ỷ":{"ha":878,"x_min":19,"x_max":858,"o":"m 271 0 l 271 74 l 385 74 l 385 335 l 124 708 l 19 708 l 19 782 l 344 782 l 344 708 l 246 708 l 451 408 l 650 708 l 550 708 l 550 782 l 858 782 l 858 708 l 751 708 l 497 336 l 497 74 l 613 74 l 613 0 l 271 0 m 447 842 l 428 903 q 475 953 475 918 q 428 990 475 990 q 368 972 400 990 l 347 1031 q 386 1047 364 1040 q 435 1054 408 1054 q 517 1026 486 1054 q 549 956 549 999 q 447 842 549 869 z "},"Ȳ":{"ha":878,"x_min":19,"x_max":858,"o":"m 271 0 l 271 74 l 385 74 l 385 335 l 124 708 l 19 708 l 19 782 l 344 782 l 344 708 l 246 708 l 451 408 l 650 708 l 550 708 l 550 782 l 858 782 l 858 708 l 751 708 l 497 336 l 497 74 l 613 74 l 613 0 l 271 0 m 301 893 l 301 956 l 593 956 l 593 893 l 301 893 z "},"Ỹ":{"ha":878,"x_min":19,"x_max":858,"o":"m 271 0 l 271 74 l 385 74 l 385 335 l 124 708 l 19 708 l 19 782 l 344 782 l 344 708 l 246 708 l 451 408 l 650 708 l 550 708 l 550 782 l 858 782 l 858 708 l 751 708 l 497 336 l 497 74 l 613 74 l 613 0 l 271 0 m 535 889 q 437 915 488 889 q 350 940 386 940 q 307 894 314 940 l 264 894 q 297 988 269 958 q 365 1017 324 1017 q 457 991 406 1017 q 540 965 508 965 q 592 1014 581 965 l 632 1014 q 606 925 628 961 q 535 889 583 889 z "},"Z":{"ha":800,"x_min":86,"x_max":726,"o":"m 86 0 l 86 79 l 579 708 l 190 708 l 190 524 l 107 524 l 107 782 l 717 782 l 717 711 l 219 74 l 643 74 l 643 271 l 726 271 l 726 0 l 86 0 z "},"Ź":{"ha":800,"x_min":86,"x_max":726,"o":"m 86 0 l 86 79 l 579 708 l 190 708 l 190 524 l 107 524 l 107 782 l 717 782 l 717 711 l 219 74 l 643 74 l 643 271 l 726 271 l 726 0 l 86 0 m 381 899 l 454 1100 l 571 1100 l 446 899 l 381 899 z "},"Ž":{"ha":800,"x_min":86,"x_max":726,"o":"m 86 0 l 86 79 l 579 708 l 190 708 l 190 524 l 107 524 l 107 782 l 717 782 l 717 711 l 219 74 l 643 74 l 643 271 l 726 271 l 726 0 l 86 0 m 364 858 l 251 1068 l 325 1068 l 414 917 l 500 1068 l 572 1068 l 463 858 l 364 858 z "},"Ż":{"ha":800,"x_min":86,"x_max":726,"o":"m 86 0 l 86 79 l 579 708 l 190 708 l 190 524 l 107 524 l 107 782 l 717 782 l 717 711 l 219 74 l 643 74 l 643 271 l 726 271 l 726 0 l 86 0 z "},"Ẓ":{"ha":800,"x_min":86,"x_max":726,"o":"m 86 0 l 86 79 l 579 708 l 190 708 l 190 524 l 107 524 l 107 782 l 717 782 l 717 711 l 219 74 l 643 74 l 643 271 l 726 271 l 726 0 l 86 0 m 407 -194 q 360 -176 379 -194 q 340 -132 340 -157 q 407 -69 340 -69 q 453 -86 435 -69 q 472 -132 472 -103 q 456 -175 474 -156 q 407 -194 438 -194 z "},"a":{"ha":633,"x_min":54,"x_max":613,"o":"m 242 -15 q 105 32 156 -15 q 54 147 54 79 q 119 280 54 242 q 274 318 183 318 q 370 310 321 318 q 467 290 419 303 l 425 283 l 425 357 q 390 453 425 422 q 296 483 356 483 q 205 470 257 483 q 108 433 153 457 l 78 500 q 187 545 125 531 q 297 560 249 560 q 466 507 406 560 q 526 367 526 454 l 526 74 l 613 74 l 613 0 l 436 0 l 428 78 l 467 78 q 361 8 413 31 q 242 -15 310 -15 m 257 56 q 360 78 308 56 q 467 146 411 100 l 425 96 l 425 257 l 457 232 q 375 249 421 242 q 281 257 329 257 q 192 235 232 257 q 151 153 151 214 q 179 83 151 111 q 257 56 207 56 z "},"á":{"ha":633,"x_min":54,"x_max":613,"o":"m 242 -15 q 105 32 156 -15 q 54 147 54 79 q 119 280 54 242 q 274 318 183 318 q 370 310 321 318 q 467 290 419 303 l 425 283 l 425 357 q 390 453 425 422 q 296 483 356 483 q 205 470 257 483 q 108 433 153 457 l 78 500 q 187 545 125 531 q 297 560 249 560 q 466 507 406 560 q 526 367 526 454 l 526 74 l 613 74 l 613 0 l 436 0 l 428 78 l 467 78 q 361 8 413 31 q 242 -15 310 -15 m 257 56 q 360 78 308 56 q 467 146 411 100 l 425 96 l 425 257 l 457 232 q 375 249 421 242 q 281 257 329 257 q 192 235 232 257 q 151 153 151 214 q 179 83 151 111 q 257 56 207 56 m 269 663 l 343 864 l 460 864 l 335 663 l 269 663 z "},"ă":{"ha":633,"x_min":54,"x_max":613,"o":"m 242 -15 q 105 32 156 -15 q 54 147 54 79 q 119 280 54 242 q 274 318 183 318 q 370 310 321 318 q 467 290 419 303 l 425 283 l 425 357 q 390 453 425 422 q 296 483 356 483 q 205 470 257 483 q 108 433 153 457 l 78 500 q 187 545 125 531 q 297 560 249 560 q 466 507 406 560 q 526 367 526 454 l 526 74 l 613 74 l 613 0 l 436 0 l 428 78 l 467 78 q 361 8 413 31 q 242 -15 310 -15 m 257 56 q 360 78 308 56 q 467 146 411 100 l 425 96 l 425 257 l 457 232 q 375 249 421 242 q 281 257 329 257 q 192 235 232 257 q 151 153 151 214 q 179 83 151 111 q 257 56 207 56 m 301 625 q 197 662 239 624 q 149 764 156 700 l 217 764 q 301 688 232 688 q 385 764 372 688 l 454 764 q 301 625 439 628 z "},"ắ":{"ha":633,"x_min":54,"x_max":613,"o":"m 242 -15 q 105 32 156 -15 q 54 147 54 79 q 119 280 54 242 q 274 318 183 318 q 370 310 321 318 q 467 290 419 303 l 425 283 l 425 357 q 390 453 425 422 q 296 483 356 483 q 205 470 257 483 q 108 433 153 457 l 78 500 q 187 545 125 531 q 297 560 249 560 q 466 507 406 560 q 526 367 526 454 l 526 74 l 613 74 l 613 0 l 436 0 l 428 78 l 467 78 q 361 8 413 31 q 242 -15 310 -15 m 257 56 q 360 78 308 56 q 467 146 411 100 l 425 96 l 425 257 l 457 232 q 375 249 421 242 q 281 257 329 257 q 192 235 232 257 q 151 153 151 214 q 179 83 151 111 q 257 56 207 56 m 301 625 q 197 662 239 624 q 149 764 156 700 l 217 764 q 301 688 232 688 q 385 764 372 688 l 454 764 q 301 625 439 628 m 261 783 l 315 929 l 432 929 l 326 783 l 261 783 z "},"ặ":{"ha":633,"x_min":54,"x_max":613,"o":"m 242 -15 q 105 32 156 -15 q 54 147 54 79 q 119 280 54 242 q 274 318 183 318 q 370 310 321 318 q 467 290 419 303 l 425 283 l 425 357 q 390 453 425 422 q 296 483 356 483 q 205 470 257 483 q 108 433 153 457 l 78 500 q 187 545 125 531 q 297 560 249 560 q 466 507 406 560 q 526 367 526 454 l 526 74 l 613 74 l 613 0 l 436 0 l 428 78 l 467 78 q 361 8 413 31 q 242 -15 310 -15 m 257 56 q 360 78 308 56 q 467 146 411 100 l 425 96 l 425 257 l 457 232 q 375 249 421 242 q 281 257 329 257 q 192 235 232 257 q 151 153 151 214 q 179 83 151 111 q 257 56 207 56 m 336 -194 q 289 -176 308 -194 q 269 -132 269 -157 q 336 -69 269 -69 q 383 -86 364 -69 q 401 -132 401 -103 q 385 -175 403 -156 q 336 -194 367 -194 m 301 625 q 197 662 239 624 q 149 764 156 700 l 217 764 q 301 688 232 688 q 385 764 372 688 l 454 764 q 301 625 439 628 z "},"ằ":{"ha":633,"x_min":54,"x_max":613,"o":"m 242 -15 q 105 32 156 -15 q 54 147 54 79 q 119 280 54 242 q 274 318 183 318 q 370 310 321 318 q 467 290 419 303 l 425 283 l 425 357 q 390 453 425 422 q 296 483 356 483 q 205 470 257 483 q 108 433 153 457 l 78 500 q 187 545 125 531 q 297 560 249 560 q 466 507 406 560 q 526 367 526 454 l 526 74 l 613 74 l 613 0 l 436 0 l 428 78 l 467 78 q 361 8 413 31 q 242 -15 310 -15 m 257 56 q 360 78 308 56 q 467 146 411 100 l 425 96 l 425 257 l 457 232 q 375 249 421 242 q 281 257 329 257 q 192 235 232 257 q 151 153 151 214 q 179 83 151 111 q 257 56 207 56 m 301 625 q 197 662 239 624 q 149 764 156 700 l 217 764 q 301 688 232 688 q 385 764 372 688 l 454 764 q 301 625 439 628 m 275 783 l 169 929 l 286 929 l 340 783 l 275 783 z "},"ẳ":{"ha":633,"x_min":54,"x_max":613,"o":"m 242 -15 q 105 32 156 -15 q 54 147 54 79 q 119 280 54 242 q 274 318 183 318 q 370 310 321 318 q 467 290 419 303 l 425 283 l 425 357 q 390 453 425 422 q 296 483 356 483 q 205 470 257 483 q 108 433 153 457 l 78 500 q 187 545 125 531 q 297 560 249 560 q 466 507 406 560 q 526 367 526 454 l 526 74 l 613 74 l 613 0 l 436 0 l 428 78 l 467 78 q 361 8 413 31 q 242 -15 310 -15 m 257 56 q 360 78 308 56 q 467 146 411 100 l 425 96 l 425 257 l 457 232 q 375 249 421 242 q 281 257 329 257 q 192 235 232 257 q 151 153 151 214 q 179 83 151 111 q 257 56 207 56 m 292 763 l 272 824 q 319 874 319 839 q 272 911 319 911 q 213 893 244 911 l 192 951 q 230 968 208 961 q 279 975 251 975 q 362 947 331 975 q 393 876 393 919 q 292 763 393 790 m 301 625 q 197 662 239 624 q 149 764 156 700 l 217 764 q 301 688 232 688 q 385 764 372 688 l 454 764 q 301 625 439 628 z "},"ẵ":{"ha":633,"x_min":54,"x_max":613,"o":"m 242 -15 q 105 32 156 -15 q 54 147 54 79 q 119 280 54 242 q 274 318 183 318 q 370 310 321 318 q 467 290 419 303 l 425 283 l 425 357 q 390 453 425 422 q 296 483 356 483 q 205 470 257 483 q 108 433 153 457 l 78 500 q 187 545 125 531 q 297 560 249 560 q 466 507 406 560 q 526 367 526 454 l 526 74 l 613 74 l 613 0 l 436 0 l 428 78 l 467 78 q 361 8 413 31 q 242 -15 310 -15 m 257 56 q 360 78 308 56 q 467 146 411 100 l 425 96 l 425 257 l 457 232 q 375 249 421 242 q 281 257 329 257 q 192 235 232 257 q 151 153 151 214 q 179 83 151 111 q 257 56 207 56 m 389 815 q 291 841 342 815 q 204 867 240 867 q 161 821 168 867 l 118 821 q 151 914 124 885 q 219 943 178 943 q 311 917 260 943 q 394 892 363 892 q 446 940 435 892 l 486 940 q 460 852 482 889 q 389 815 438 815 m 301 625 q 197 662 239 624 q 149 764 156 700 l 217 764 q 301 688 232 688 q 385 764 372 688 l 454 764 q 301 625 439 628 z "},"ǎ":{"ha":633,"x_min":54,"x_max":613,"o":"m 242 -15 q 105 32 156 -15 q 54 147 54 79 q 119 280 54 242 q 274 318 183 318 q 370 310 321 318 q 467 290 419 303 l 425 283 l 425 357 q 390 453 425 422 q 296 483 356 483 q 205 470 257 483 q 108 433 153 457 l 78 500 q 187 545 125 531 q 297 560 249 560 q 466 507 406 560 q 526 367 526 454 l 526 74 l 613 74 l 613 0 l 436 0 l 428 78 l 467 78 q 361 8 413 31 q 242 -15 310 -15 m 257 56 q 360 78 308 56 q 467 146 411 100 l 425 96 l 425 257 l 457 232 q 375 249 421 242 q 281 257 329 257 q 192 235 232 257 q 151 153 151 214 q 179 83 151 111 q 257 56 207 56 m 253 622 l 140 832 l 214 832 l 303 681 l 389 832 l 461 832 l 351 622 l 253 622 z "},"â":{"ha":633,"x_min":54,"x_max":613,"o":"m 242 -15 q 105 32 156 -15 q 54 147 54 79 q 119 280 54 242 q 274 318 183 318 q 370 310 321 318 q 467 290 419 303 l 425 283 l 425 357 q 390 453 425 422 q 296 483 356 483 q 205 470 257 483 q 108 433 153 457 l 78 500 q 187 545 125 531 q 297 560 249 560 q 466 507 406 560 q 526 367 526 454 l 526 74 l 613 74 l 613 0 l 436 0 l 428 78 l 467 78 q 361 8 413 31 q 242 -15 310 -15 m 257 56 q 360 78 308 56 q 467 146 411 100 l 425 96 l 425 257 l 457 232 q 375 249 421 242 q 281 257 329 257 q 192 235 232 257 q 151 153 151 214 q 179 83 151 111 q 257 56 207 56 m 132 624 l 247 842 l 356 842 l 471 624 l 393 624 l 301 797 l 210 624 l 132 624 z "},"ấ":{"ha":633,"x_min":54,"x_max":613,"o":"m 242 -15 q 105 32 156 -15 q 54 147 54 79 q 119 280 54 242 q 274 318 183 318 q 370 310 321 318 q 467 290 419 303 l 425 283 l 425 357 q 390 453 425 422 q 296 483 356 483 q 205 470 257 483 q 108 433 153 457 l 78 500 q 187 545 125 531 q 297 560 249 560 q 466 507 406 560 q 526 367 526 454 l 526 74 l 613 74 l 613 0 l 436 0 l 428 78 l 467 78 q 361 8 413 31 q 242 -15 310 -15 m 257 56 q 360 78 308 56 q 467 146 411 100 l 425 96 l 425 257 l 457 232 q 375 249 421 242 q 281 257 329 257 q 192 235 232 257 q 151 153 151 214 q 179 83 151 111 q 257 56 207 56 m 132 624 l 247 800 l 356 800 l 471 624 l 393 624 l 301 756 l 210 624 l 132 624 m 432 750 l 492 910 l 594 910 l 497 750 l 432 750 z "},"ậ":{"ha":633,"x_min":54,"x_max":613,"o":"m 242 -15 q 105 32 156 -15 q 54 147 54 79 q 119 280 54 242 q 274 318 183 318 q 370 310 321 318 q 467 290 419 303 l 425 283 l 425 357 q 390 453 425 422 q 296 483 356 483 q 205 470 257 483 q 108 433 153 457 l 78 500 q 187 545 125 531 q 297 560 249 560 q 466 507 406 560 q 526 367 526 454 l 526 74 l 613 74 l 613 0 l 436 0 l 428 78 l 467 78 q 361 8 413 31 q 242 -15 310 -15 m 257 56 q 360 78 308 56 q 467 146 411 100 l 425 96 l 425 257 l 457 232 q 375 249 421 242 q 281 257 329 257 q 192 235 232 257 q 151 153 151 214 q 179 83 151 111 q 257 56 207 56 m 336 -194 q 289 -176 308 -194 q 269 -132 269 -157 q 336 -69 269 -69 q 383 -86 364 -69 q 401 -132 401 -103 q 385 -175 403 -156 q 336 -194 367 -194 m 132 624 l 247 842 l 356 842 l 471 624 l 393 624 l 301 797 l 210 624 l 132 624 z "},"ầ":{"ha":633,"x_min":54,"x_max":613,"o":"m 242 -15 q 105 32 156 -15 q 54 147 54 79 q 119 280 54 242 q 274 318 183 318 q 370 310 321 318 q 467 290 419 303 l 425 283 l 425 357 q 390 453 425 422 q 296 483 356 483 q 205 470 257 483 q 108 433 153 457 l 78 500 q 187 545 125 531 q 297 560 249 560 q 466 507 406 560 q 526 367 526 454 l 526 74 l 613 74 l 613 0 l 436 0 l 428 78 l 467 78 q 361 8 413 31 q 242 -15 310 -15 m 257 56 q 360 78 308 56 q 467 146 411 100 l 425 96 l 425 257 l 457 232 q 375 249 421 242 q 281 257 329 257 q 192 235 232 257 q 151 153 151 214 q 179 83 151 111 q 257 56 207 56 m 132 624 l 247 800 l 356 800 l 471 624 l 393 624 l 301 756 l 210 624 l 132 624 m 525 750 l 460 750 l 363 910 l 465 910 l 525 750 z "},"ẩ":{"ha":633,"x_min":54,"x_max":613,"o":"m 242 -15 q 105 32 156 -15 q 54 147 54 79 q 119 280 54 242 q 274 318 183 318 q 370 310 321 318 q 467 290 419 303 l 425 283 l 425 357 q 390 453 425 422 q 296 483 356 483 q 205 470 257 483 q 108 433 153 457 l 78 500 q 187 545 125 531 q 297 560 249 560 q 466 507 406 560 q 526 367 526 454 l 526 74 l 613 74 l 613 0 l 436 0 l 428 78 l 467 78 q 361 8 413 31 q 242 -15 310 -15 m 257 56 q 360 78 308 56 q 467 146 411 100 l 425 96 l 425 257 l 457 232 q 375 249 421 242 q 281 257 329 257 q 192 235 232 257 q 151 153 151 214 q 179 83 151 111 q 257 56 207 56 m 132 624 l 247 800 l 356 800 l 471 624 l 393 624 l 301 756 l 210 624 l 132 624 m 438 736 l 418 797 q 465 847 465 813 q 418 885 465 885 q 358 867 390 885 l 338 925 q 376 942 354 935 q 425 949 399 949 q 508 921 476 949 q 539 850 539 893 q 438 736 539 764 z "},"ẫ":{"ha":633,"x_min":54,"x_max":613,"o":"m 242 -15 q 105 32 156 -15 q 54 147 54 79 q 119 280 54 242 q 274 318 183 318 q 370 310 321 318 q 467 290 419 303 l 425 283 l 425 357 q 390 453 425 422 q 296 483 356 483 q 205 470 257 483 q 108 433 153 457 l 78 500 q 187 545 125 531 q 297 560 249 560 q 466 507 406 560 q 526 367 526 454 l 526 74 l 613 74 l 613 0 l 436 0 l 428 78 l 467 78 q 361 8 413 31 q 242 -15 310 -15 m 257 56 q 360 78 308 56 q 467 146 411 100 l 425 96 l 425 257 l 457 232 q 375 249 421 242 q 281 257 329 257 q 192 235 232 257 q 151 153 151 214 q 179 83 151 111 q 257 56 207 56 m 132 624 l 247 800 l 356 800 l 471 624 l 393 624 l 301 756 l 210 624 l 132 624 m 389 836 q 291 862 342 836 q 204 888 240 888 q 161 842 168 888 l 118 842 q 151 935 124 906 q 219 964 178 964 q 311 938 260 964 q 394 913 363 913 q 446 961 435 913 l 486 961 q 460 872 482 908 q 389 836 438 836 z "},"ȁ":{"ha":633,"x_min":28,"x_max":613,"o":"m 242 -15 q 105 32 156 -15 q 54 147 54 79 q 119 280 54 242 q 274 318 183 318 q 370 310 321 318 q 467 290 419 303 l 425 283 l 425 357 q 390 453 425 422 q 296 483 356 483 q 205 470 257 483 q 108 433 153 457 l 78 500 q 187 545 125 531 q 297 560 249 560 q 466 507 406 560 q 526 367 526 454 l 526 74 l 613 74 l 613 0 l 436 0 l 428 78 l 467 78 q 361 8 413 31 q 242 -15 310 -15 m 257 56 q 360 78 308 56 q 467 146 411 100 l 425 96 l 425 257 l 457 232 q 375 249 421 242 q 281 257 329 257 q 192 235 232 257 q 151 153 151 214 q 179 83 151 111 q 257 56 207 56 m 158 663 l 28 874 l 144 874 l 224 663 l 158 663 m 346 663 l 217 874 l 333 874 l 411 663 l 346 663 z "},"ä":{"ha":633,"x_min":54,"x_max":613,"o":"m 242 -15 q 105 32 156 -15 q 54 147 54 79 q 119 280 54 242 q 274 318 183 318 q 370 310 321 318 q 467 290 419 303 l 425 283 l 425 357 q 390 453 425 422 q 296 483 356 483 q 205 470 257 483 q 108 433 153 457 l 78 500 q 187 545 125 531 q 297 560 249 560 q 466 507 406 560 q 526 367 526 454 l 526 74 l 613 74 l 613 0 l 436 0 l 428 78 l 467 78 q 361 8 413 31 q 242 -15 310 -15 m 257 56 q 360 78 308 56 q 467 146 411 100 l 425 96 l 425 257 l 457 232 q 375 249 421 242 q 281 257 329 257 q 192 235 232 257 q 151 153 151 214 q 179 83 151 111 q 257 56 207 56 m 168 635 q 123 651 140 635 q 106 694 106 667 q 123 738 106 722 q 168 754 140 754 q 213 738 196 754 q 231 694 231 722 q 213 651 231 667 q 168 635 196 635 m 435 635 q 390 651 407 635 q 374 694 374 667 q 390 738 374 722 q 435 754 407 754 q 480 738 463 754 q 497 694 497 722 q 480 651 497 667 q 435 635 463 635 z "},"ȧ":{"ha":633,"x_min":54,"x_max":613,"o":"m 242 -15 q 105 32 156 -15 q 54 147 54 79 q 119 280 54 242 q 274 318 183 318 q 370 310 321 318 q 467 290 419 303 l 425 283 l 425 357 q 390 453 425 422 q 296 483 356 483 q 205 470 257 483 q 108 433 153 457 l 78 500 q 187 545 125 531 q 297 560 249 560 q 466 507 406 560 q 526 367 526 454 l 526 74 l 613 74 l 613 0 l 436 0 l 428 78 l 467 78 q 361 8 413 31 q 242 -15 310 -15 m 257 56 q 360 78 308 56 q 467 146 411 100 l 425 96 l 425 257 l 457 232 q 375 249 421 242 q 281 257 329 257 q 192 235 232 257 q 151 153 151 214 q 179 83 151 111 q 257 56 207 56 z "},"ạ":{"ha":633,"x_min":54,"x_max":613,"o":"m 242 -15 q 105 32 156 -15 q 54 147 54 79 q 119 280 54 242 q 274 318 183 318 q 370 310 321 318 q 467 290 419 303 l 425 283 l 425 357 q 390 453 425 422 q 296 483 356 483 q 205 470 257 483 q 108 433 153 457 l 78 500 q 187 545 125 531 q 297 560 249 560 q 466 507 406 560 q 526 367 526 454 l 526 74 l 613 74 l 613 0 l 436 0 l 428 78 l 467 78 q 361 8 413 31 q 242 -15 310 -15 m 257 56 q 360 78 308 56 q 467 146 411 100 l 425 96 l 425 257 l 457 232 q 375 249 421 242 q 281 257 329 257 q 192 235 232 257 q 151 153 151 214 q 179 83 151 111 q 257 56 207 56 m 336 -194 q 289 -176 308 -194 q 269 -132 269 -157 q 336 -69 269 -69 q 383 -86 364 -69 q 401 -132 401 -103 q 385 -175 403 -156 q 336 -194 367 -194 z "},"à":{"ha":633,"x_min":54,"x_max":613,"o":"m 242 -15 q 105 32 156 -15 q 54 147 54 79 q 119 280 54 242 q 274 318 183 318 q 370 310 321 318 q 467 290 419 303 l 425 283 l 425 357 q 390 453 425 422 q 296 483 356 483 q 205 470 257 483 q 108 433 153 457 l 78 500 q 187 545 125 531 q 297 560 249 560 q 466 507 406 560 q 526 367 526 454 l 526 74 l 613 74 l 613 0 l 436 0 l 428 78 l 467 78 q 361 8 413 31 q 242 -15 310 -15 m 257 56 q 360 78 308 56 q 467 146 411 100 l 425 96 l 425 257 l 457 232 q 375 249 421 242 q 281 257 329 257 q 192 235 232 257 q 151 153 151 214 q 179 83 151 111 q 257 56 207 56 m 268 663 l 143 864 l 260 864 l 333 663 l 268 663 z "},"ả":{"ha":633,"x_min":54,"x_max":613,"o":"m 242 -15 q 105 32 156 -15 q 54 147 54 79 q 119 280 54 242 q 274 318 183 318 q 370 310 321 318 q 467 290 419 303 l 425 283 l 425 357 q 390 453 425 422 q 296 483 356 483 q 205 470 257 483 q 108 433 153 457 l 78 500 q 187 545 125 531 q 297 560 249 560 q 466 507 406 560 q 526 367 526 454 l 526 74 l 613 74 l 613 0 l 436 0 l 428 78 l 467 78 q 361 8 413 31 q 242 -15 310 -15 m 257 56 q 360 78 308 56 q 467 146 411 100 l 425 96 l 425 257 l 457 232 q 375 249 421 242 q 281 257 329 257 q 192 235 232 257 q 151 153 151 214 q 179 83 151 111 q 257 56 207 56 m 301 606 l 282 667 q 329 717 329 682 q 282 754 329 754 q 222 736 254 754 l 201 794 q 240 811 218 804 q 289 818 263 818 q 372 790 340 818 q 403 719 403 763 q 301 606 403 633 z "},"ȃ":{"ha":633,"x_min":54,"x_max":613,"o":"m 242 -15 q 105 32 156 -15 q 54 147 54 79 q 119 280 54 242 q 274 318 183 318 q 370 310 321 318 q 467 290 419 303 l 425 283 l 425 357 q 390 453 425 422 q 296 483 356 483 q 205 470 257 483 q 108 433 153 457 l 78 500 q 187 545 125 531 q 297 560 249 560 q 466 507 406 560 q 526 367 526 454 l 526 74 l 613 74 l 613 0 l 436 0 l 428 78 l 467 78 q 361 8 413 31 q 242 -15 310 -15 m 257 56 q 360 78 308 56 q 467 146 411 100 l 425 96 l 425 257 l 457 232 q 375 249 421 242 q 281 257 329 257 q 192 235 232 257 q 151 153 151 214 q 179 83 151 111 q 257 56 207 56 m 139 625 q 190 733 146 693 q 301 774 233 774 q 412 733 368 774 q 463 625 456 693 l 381 625 q 301 696 368 696 q 221 625 233 696 l 139 625 z "},"ā":{"ha":633,"x_min":54,"x_max":613,"o":"m 242 -15 q 105 32 156 -15 q 54 147 54 79 q 119 280 54 242 q 274 318 183 318 q 370 310 321 318 q 467 290 419 303 l 425 283 l 425 357 q 390 453 425 422 q 296 483 356 483 q 205 470 257 483 q 108 433 153 457 l 78 500 q 187 545 125 531 q 297 560 249 560 q 466 507 406 560 q 526 367 526 454 l 526 74 l 613 74 l 613 0 l 436 0 l 428 78 l 467 78 q 361 8 413 31 q 242 -15 310 -15 m 257 56 q 360 78 308 56 q 467 146 411 100 l 425 96 l 425 257 l 457 232 q 375 249 421 242 q 281 257 329 257 q 192 235 232 257 q 151 153 151 214 q 179 83 151 111 q 257 56 207 56 m 156 657 l 156 719 l 447 719 l 447 657 l 156 657 z "},"ą":{"ha":633,"x_min":54,"x_max":640,"o":"m 242 -15 q 105 32 156 -15 q 54 147 54 79 q 119 280 54 242 q 274 318 183 318 q 370 310 321 318 q 467 290 419 303 l 425 283 l 425 357 q 390 453 425 422 q 296 483 356 483 q 205 470 257 483 q 108 433 153 457 l 78 500 q 187 545 125 531 q 297 560 249 560 q 466 507 406 560 q 526 367 526 454 l 526 74 l 613 74 l 613 0 l 436 0 l 428 78 l 467 78 q 361 8 413 31 q 242 -15 310 -15 m 257 56 q 360 78 308 56 q 467 146 411 100 l 425 96 l 425 257 l 457 232 q 375 249 421 242 q 281 257 329 257 q 192 235 232 257 q 151 153 151 214 q 179 83 151 111 q 257 56 207 56 m 554 -235 q 475 -206 507 -235 q 443 -132 443 -178 q 517 0 443 -69 l 576 0 q 531 -58 547 -31 q 514 -111 514 -86 q 579 -171 514 -171 q 640 -153 610 -171 l 640 -208 q 554 -235 597 -235 z "},"å":{"ha":633,"x_min":54,"x_max":613,"o":"m 242 -15 q 105 32 156 -15 q 54 147 54 79 q 119 280 54 242 q 274 318 183 318 q 370 310 321 318 q 467 290 419 303 l 425 283 l 425 357 q 390 453 425 422 q 296 483 356 483 q 205 470 257 483 q 108 433 153 457 l 78 500 q 187 545 125 531 q 297 560 249 560 q 466 507 406 560 q 526 367 526 454 l 526 74 l 613 74 l 613 0 l 436 0 l 428 78 l 467 78 q 361 8 413 31 q 242 -15 310 -15 m 257 56 q 360 78 308 56 q 467 146 411 100 l 425 96 l 425 257 l 457 232 q 375 249 421 242 q 281 257 329 257 q 192 235 232 257 q 151 153 151 214 q 179 83 151 111 q 257 56 207 56 m 301 594 q 221 625 250 594 q 192 699 192 656 q 220 771 192 742 q 301 800 249 800 q 383 771 354 800 q 411 699 411 742 q 382 625 411 656 q 301 594 353 594 m 301 638 q 363 699 363 638 q 301 758 363 758 q 239 699 239 758 q 301 638 239 638 z "},"ǻ":{"ha":633,"x_min":54,"x_max":613,"o":"m 242 -15 q 105 32 156 -15 q 54 147 54 79 q 119 280 54 242 q 274 318 183 318 q 370 310 321 318 q 467 290 419 303 l 425 283 l 425 357 q 390 453 425 422 q 296 483 356 483 q 205 470 257 483 q 108 433 153 457 l 78 500 q 187 545 125 531 q 297 560 249 560 q 466 507 406 560 q 526 367 526 454 l 526 74 l 613 74 l 613 0 l 436 0 l 428 78 l 467 78 q 361 8 413 31 q 242 -15 310 -15 m 257 56 q 360 78 308 56 q 467 146 411 100 l 425 96 l 425 257 l 457 232 q 375 249 421 242 q 281 257 329 257 q 192 235 232 257 q 151 153 151 214 q 179 83 151 111 q 257 56 207 56 m 301 594 q 221 625 250 594 q 192 699 192 656 q 220 771 192 742 q 301 800 249 800 q 383 771 354 800 q 411 699 411 742 q 382 625 411 656 q 301 594 353 594 m 301 638 q 363 699 363 638 q 301 758 363 758 q 239 699 239 758 q 301 638 239 638 m 269 850 l 343 1051 l 460 1051 l 335 850 l 269 850 z "},"ã":{"ha":633,"x_min":54,"x_max":613,"o":"m 242 -15 q 105 32 156 -15 q 54 147 54 79 q 119 280 54 242 q 274 318 183 318 q 370 310 321 318 q 467 290 419 303 l 425 283 l 425 357 q 390 453 425 422 q 296 483 356 483 q 205 470 257 483 q 108 433 153 457 l 78 500 q 187 545 125 531 q 297 560 249 560 q 466 507 406 560 q 526 367 526 454 l 526 74 l 613 74 l 613 0 l 436 0 l 428 78 l 467 78 q 361 8 413 31 q 242 -15 310 -15 m 257 56 q 360 78 308 56 q 467 146 411 100 l 425 96 l 425 257 l 457 232 q 375 249 421 242 q 281 257 329 257 q 192 235 232 257 q 151 153 151 214 q 179 83 151 111 q 257 56 207 56 m 389 653 q 291 678 342 653 q 204 704 240 704 q 161 658 168 704 l 118 658 q 151 751 124 722 q 219 781 178 781 q 311 755 260 781 q 394 729 363 729 q 446 778 435 729 l 486 778 q 460 689 482 725 q 389 653 438 653 z "},"æ":{"ha":1031,"x_min":54,"x_max":982,"o":"m 249 -15 q 107 32 160 -15 q 54 147 54 79 q 122 278 54 240 q 286 315 190 315 l 425 315 l 425 357 q 390 453 425 422 q 296 483 356 483 q 205 470 257 483 q 108 433 153 457 l 78 500 q 187 545 125 531 q 297 560 249 560 q 419 536 368 560 q 497 471 471 513 q 593 538 538 514 q 714 561 649 561 q 910 484 839 561 q 982 278 982 407 l 982 251 l 532 251 q 594 113 540 164 q 729 63 647 63 q 844 88 792 63 q 936 150 897 113 l 972 88 q 874 14 935 44 q 733 -17 814 -17 q 596 10 658 -17 q 492 86 533 38 q 377 9 435 33 q 249 -15 319 -15 m 264 56 q 360 76 315 56 q 457 138 406 96 q 425 251 429 190 l 293 251 q 195 231 239 251 q 151 153 151 210 q 181 83 151 111 q 264 56 211 56 m 532 315 l 881 315 q 833 442 881 397 q 714 486 786 486 q 592 441 643 486 q 532 315 542 396 z "},"ǽ":{"ha":1031,"x_min":54,"x_max":982,"o":"m 249 -15 q 107 32 160 -15 q 54 147 54 79 q 122 278 54 240 q 286 315 190 315 l 425 315 l 425 357 q 390 453 425 422 q 296 483 356 483 q 205 470 257 483 q 108 433 153 457 l 78 500 q 187 545 125 531 q 297 560 249 560 q 419 536 368 560 q 497 471 471 513 q 593 538 538 514 q 714 561 649 561 q 910 484 839 561 q 982 278 982 407 l 982 251 l 532 251 q 594 113 540 164 q 729 63 647 63 q 844 88 792 63 q 936 150 897 113 l 972 88 q 874 14 935 44 q 733 -17 814 -17 q 596 10 658 -17 q 492 86 533 38 q 377 9 435 33 q 249 -15 319 -15 m 264 56 q 360 76 315 56 q 457 138 406 96 q 425 251 429 190 l 293 251 q 195 231 239 251 q 151 153 151 210 q 181 83 151 111 q 264 56 211 56 m 532 315 l 881 315 q 833 442 881 397 q 714 486 786 486 q 592 441 643 486 q 532 315 542 396 m 465 663 l 539 864 l 656 864 l 531 663 l 465 663 z "},"ǣ":{"ha":1031,"x_min":54,"x_max":982,"o":"m 249 -15 q 107 32 160 -15 q 54 147 54 79 q 122 278 54 240 q 286 315 190 315 l 425 315 l 425 357 q 390 453 425 422 q 296 483 356 483 q 205 470 257 483 q 108 433 153 457 l 78 500 q 187 545 125 531 q 297 560 249 560 q 419 536 368 560 q 497 471 471 513 q 593 538 538 514 q 714 561 649 561 q 910 484 839 561 q 982 278 982 407 l 982 251 l 532 251 q 594 113 540 164 q 729 63 647 63 q 844 88 792 63 q 936 150 897 113 l 972 88 q 874 14 935 44 q 733 -17 814 -17 q 596 10 658 -17 q 492 86 533 38 q 377 9 435 33 q 249 -15 319 -15 m 264 56 q 360 76 315 56 q 457 138 406 96 q 425 251 429 190 l 293 251 q 195 231 239 251 q 151 153 151 210 q 181 83 151 111 q 264 56 211 56 m 532 315 l 881 315 q 833 442 881 397 q 714 486 786 486 q 592 441 643 486 q 532 315 542 396 m 351 657 l 351 719 l 643 719 l 643 657 l 351 657 z "},"b":{"ha":725,"x_min":35,"x_max":690,"o":"m 407 -14 q 297 8 347 -14 q 210 76 247 31 l 239 63 l 239 0 l 35 0 l 35 74 l 136 74 l 136 724 l 38 724 l 38 796 l 239 796 l 239 469 l 206 469 q 310 537 250 514 q 425 560 369 560 q 613 488 536 560 q 690 281 690 417 q 606 63 690 140 q 407 -14 521 -14 m 389 63 q 527 116 471 63 q 583 272 583 169 q 531 426 583 372 q 397 481 478 481 q 299 458 350 481 q 204 388 247 435 l 239 443 l 239 90 l 207 147 q 292 85 242 108 q 389 63 342 63 z "},"ḃ":{"ha":725,"x_min":35,"x_max":690,"o":"m 407 -14 q 297 8 347 -14 q 210 76 247 31 l 239 63 l 239 0 l 35 0 l 35 74 l 136 74 l 136 724 l 38 724 l 38 796 l 239 796 l 239 469 l 206 469 q 310 537 250 514 q 425 560 369 560 q 613 488 536 560 q 690 281 690 417 q 606 63 690 140 q 407 -14 521 -14 m 389 63 q 527 116 471 63 q 583 272 583 169 q 531 426 583 372 q 397 481 478 481 q 299 458 350 481 q 204 388 247 435 l 239 443 l 239 90 l 207 147 q 292 85 242 108 q 389 63 342 63 z "},"c":{"ha":651,"x_min":36,"x_max":589,"o":"m 333 -14 q 119 68 203 -14 q 36 276 36 150 q 117 482 36 403 q 322 561 197 561 q 456 525 403 561 q 522 436 508 489 l 503 436 l 503 549 l 589 549 l 589 353 l 511 353 q 455 447 499 413 q 346 481 411 481 q 199 424 256 481 q 143 279 143 367 q 199 126 143 186 q 343 67 254 67 q 462 95 417 67 q 544 167 507 124 l 588 104 q 483 19 547 51 q 333 -14 419 -14 z "},"ć":{"ha":651,"x_min":36,"x_max":589,"o":"m 333 -14 q 119 68 203 -14 q 36 276 36 150 q 117 482 36 403 q 322 561 197 561 q 456 525 403 561 q 522 436 508 489 l 503 436 l 503 549 l 589 549 l 589 353 l 511 353 q 455 447 499 413 q 346 481 411 481 q 199 424 256 481 q 143 279 143 367 q 199 126 143 186 q 343 67 254 67 q 462 95 417 67 q 544 167 507 124 l 588 104 q 483 19 547 51 q 333 -14 419 -14 m 307 663 l 381 864 l 497 864 l 372 663 l 307 663 z "},"č":{"ha":651,"x_min":36,"x_max":589,"o":"m 333 -14 q 119 68 203 -14 q 36 276 36 150 q 117 482 36 403 q 322 561 197 561 q 456 525 403 561 q 522 436 508 489 l 503 436 l 503 549 l 589 549 l 589 353 l 511 353 q 455 447 499 413 q 346 481 411 481 q 199 424 256 481 q 143 279 143 367 q 199 126 143 186 q 343 67 254 67 q 462 95 417 67 q 544 167 507 124 l 588 104 q 483 19 547 51 q 333 -14 419 -14 m 290 622 l 178 832 l 251 832 l 340 681 l 426 832 l 499 832 l 389 622 l 290 622 z "},"ç":{"ha":651,"x_min":36,"x_max":589,"o":"m 333 -14 q 119 68 203 -14 q 36 276 36 150 q 117 482 36 403 q 322 561 197 561 q 456 525 403 561 q 522 436 508 489 l 503 436 l 503 549 l 589 549 l 589 353 l 511 353 q 455 447 499 413 q 346 481 411 481 q 199 424 256 481 q 143 279 143 367 q 199 126 143 186 q 343 67 254 67 q 462 95 417 67 q 544 167 507 124 l 588 104 q 483 19 547 51 q 333 -14 419 -14 m 336 -243 q 215 -217 276 -243 l 215 -176 q 258 -187 238 -183 q 294 -190 278 -190 q 347 -154 347 -190 q 328 -125 347 -136 q 268 -111 310 -114 l 311 0 l 357 0 l 335 -81 q 411 -110 388 -86 q 435 -164 435 -133 q 406 -225 435 -207 q 336 -243 376 -243 z "},"ḉ":{"ha":651,"x_min":36,"x_max":589,"o":"m 333 -14 q 119 68 203 -14 q 36 276 36 150 q 117 482 36 403 q 322 561 197 561 q 456 525 403 561 q 522 436 508 489 l 503 436 l 503 549 l 589 549 l 589 353 l 511 353 q 455 447 499 413 q 346 481 411 481 q 199 424 256 481 q 143 279 143 367 q 199 126 143 186 q 343 67 254 67 q 462 95 417 67 q 544 167 507 124 l 588 104 q 483 19 547 51 q 333 -14 419 -14 m 336 -243 q 215 -217 276 -243 l 215 -176 q 258 -187 238 -183 q 294 -190 278 -190 q 347 -154 347 -190 q 328 -125 347 -136 q 268 -111 310 -114 l 311 0 l 357 0 l 335 -81 q 411 -110 388 -86 q 435 -164 435 -133 q 406 -225 435 -207 q 336 -243 376 -243 m 307 663 l 381 864 l 497 864 l 372 663 l 307 663 z "},"ĉ":{"ha":651,"x_min":36,"x_max":589,"o":"m 333 -14 q 119 68 203 -14 q 36 276 36 150 q 117 482 36 403 q 322 561 197 561 q 456 525 403 561 q 522 436 508 489 l 503 436 l 503 549 l 589 549 l 589 353 l 511 353 q 455 447 499 413 q 346 481 411 481 q 199 424 256 481 q 143 279 143 367 q 199 126 143 186 q 343 67 254 67 q 462 95 417 67 q 544 167 507 124 l 588 104 q 483 19 547 51 q 333 -14 419 -14 m 169 624 l 285 842 l 393 842 l 508 624 l 431 624 l 339 797 l 247 624 l 169 624 z "},"ċ":{"ha":651,"x_min":36,"x_max":589,"o":"m 333 -14 q 119 68 203 -14 q 36 276 36 150 q 117 482 36 403 q 322 561 197 561 q 456 525 403 561 q 522 436 508 489 l 503 436 l 503 549 l 589 549 l 589 353 l 511 353 q 455 447 499 413 q 346 481 411 481 q 199 424 256 481 q 143 279 143 367 q 199 126 143 186 q 343 67 254 67 q 462 95 417 67 q 544 167 507 124 l 588 104 q 483 19 547 51 q 333 -14 419 -14 z "},"d":{"ha":713,"x_min":39,"x_max":681,"o":"m 318 -15 q 122 61 206 -15 q 39 274 39 138 q 119 486 39 413 q 307 560 199 560 q 423 538 365 560 q 525 478 481 517 l 492 465 l 492 724 l 394 724 l 394 796 l 594 796 l 594 74 l 681 74 l 681 0 l 492 0 l 492 72 l 524 67 q 433 6 483 28 q 318 -15 382 -15 m 340 63 q 440 83 394 63 q 526 139 486 104 l 492 92 l 492 453 l 526 403 q 328 482 436 482 q 197 426 249 482 q 146 265 146 371 q 202 115 146 167 q 340 63 258 63 z "},"ð":{"ha":665,"x_min":58,"x_max":614,"o":"m 336 -14 q 129 66 200 -14 q 58 258 58 146 q 129 456 58 378 q 325 535 200 535 q 425 516 386 535 q 475 486 464 497 q 323 685 426 589 q 108 867 219 782 l 158 929 q 313 802 233 869 q 461 656 393 735 q 572 481 529 576 q 614 271 614 386 q 535 66 614 146 q 336 -14 456 -14 m 336 68 q 476 131 433 68 q 519 271 519 194 q 471 408 519 357 q 336 460 422 460 q 204 404 251 460 q 157 260 157 349 q 203 126 157 185 q 336 68 250 68 m 154 600 l 124 663 l 532 844 l 564 783 l 154 600 z "},"ď":{"ha":769,"x_min":39,"x_max":783,"o":"m 318 -15 q 122 61 206 -15 q 39 274 39 138 q 119 486 39 413 q 307 560 199 560 q 423 538 365 560 q 525 478 481 517 l 492 465 l 492 724 l 394 724 l 394 796 l 594 796 l 594 74 l 681 74 l 681 0 l 492 0 l 492 72 l 524 67 q 433 6 483 28 q 318 -15 382 -15 m 340 63 q 440 83 394 63 q 526 139 486 104 l 492 92 l 492 453 l 526 403 q 328 482 436 482 q 197 426 249 482 q 146 265 146 371 q 202 115 146 167 q 340 63 258 63 z "},"đ":{"ha":713,"x_min":39,"x_max":681,"o":"m 318 -15 q 122 61 206 -15 q 39 274 39 138 q 119 486 39 413 q 307 560 199 560 q 423 538 365 560 q 525 478 481 517 l 492 465 l 492 797 l 594 797 l 594 74 l 681 74 l 681 0 l 492 0 l 492 72 l 524 67 q 433 6 483 28 q 318 -15 382 -15 m 340 63 q 440 83 394 63 q 526 139 486 104 l 492 92 l 492 453 l 526 403 q 328 482 436 482 q 197 426 249 482 q 146 265 146 371 q 202 115 146 167 q 340 63 258 63 m 333 639 l 333 701 l 681 701 l 681 639 l 333 639 z "},"ḋ":{"ha":713,"x_min":39,"x_max":681,"o":"m 318 -15 q 122 61 206 -15 q 39 274 39 138 q 119 486 39 413 q 307 560 199 560 q 423 538 365 560 q 525 478 481 517 l 492 465 l 492 724 l 394 724 l 394 796 l 594 796 l 594 74 l 681 74 l 681 0 l 492 0 l 492 72 l 524 67 q 433 6 483 28 q 318 -15 382 -15 m 340 63 q 440 83 394 63 q 526 139 486 104 l 492 92 l 492 453 l 526 403 q 328 482 436 482 q 197 426 249 482 q 146 265 146 371 q 202 115 146 167 q 340 63 258 63 z "},"ḍ":{"ha":713,"x_min":39,"x_max":681,"o":"m 318 -15 q 122 61 206 -15 q 39 274 39 138 q 119 486 39 413 q 307 560 199 560 q 423 538 365 560 q 525 478 481 517 l 492 465 l 492 724 l 394 724 l 394 796 l 594 796 l 594 74 l 681 74 l 681 0 l 492 0 l 492 72 l 524 67 q 433 6 483 28 q 318 -15 382 -15 m 340 63 q 440 83 394 63 q 526 139 486 104 l 492 92 l 492 453 l 526 403 q 328 482 436 482 q 197 426 249 482 q 146 265 146 371 q 202 115 146 167 q 340 63 258 63 m 368 -194 q 321 -176 340 -194 q 301 -132 301 -157 q 368 -69 301 -69 q 415 -86 396 -69 q 433 -132 433 -103 q 417 -175 435 -156 q 368 -194 399 -194 z "},"ḏ":{"ha":713,"x_min":39,"x_max":681,"o":"m 318 -15 q 122 61 206 -15 q 39 274 39 138 q 119 486 39 413 q 307 560 199 560 q 423 538 365 560 q 525 478 481 517 l 492 465 l 492 724 l 394 724 l 394 796 l 594 796 l 594 74 l 681 74 l 681 0 l 492 0 l 492 72 l 524 67 q 433 6 483 28 q 318 -15 382 -15 m 340 63 q 440 83 394 63 q 526 139 486 104 l 492 92 l 492 453 l 526 403 q 328 482 436 482 q 197 426 249 482 q 146 265 146 371 q 202 115 146 167 q 340 63 258 63 z "},"ǳ":{"ha":1321,"x_min":39,"x_max":1263,"o":"m 318 -15 q 122 61 206 -15 q 39 274 39 138 q 119 486 39 413 q 307 560 199 560 q 423 538 365 560 q 525 478 481 517 l 492 465 l 492 724 l 394 724 l 394 796 l 594 796 l 594 74 l 681 74 l 681 0 l 492 0 l 492 72 l 524 67 q 433 6 483 28 q 318 -15 382 -15 m 340 63 q 440 83 394 63 q 526 139 486 104 l 492 92 l 492 453 l 526 403 q 328 482 436 482 q 197 426 249 482 q 146 265 146 371 q 202 115 146 167 q 340 63 258 63 m 783 0 l 783 72 l 1135 475 l 868 475 l 868 363 l 790 363 l 790 546 l 1254 546 l 1254 469 l 903 69 l 1182 69 l 1182 194 l 1263 194 l 1263 0 l 783 0 z "},"ǆ":{"ha":1321,"x_min":39,"x_max":1263,"o":"m 318 -15 q 122 61 206 -15 q 39 274 39 138 q 119 486 39 413 q 307 560 199 560 q 423 538 365 560 q 525 478 481 517 l 492 465 l 492 724 l 394 724 l 394 796 l 594 796 l 594 74 l 681 74 l 681 0 l 492 0 l 492 72 l 524 67 q 433 6 483 28 q 318 -15 382 -15 m 340 63 q 440 83 394 63 q 526 139 486 104 l 492 92 l 492 453 l 526 403 q 328 482 436 482 q 197 426 249 482 q 146 265 146 371 q 202 115 146 167 q 340 63 258 63 z "},"e":{"ha":640,"x_min":35,"x_max":592,"o":"m 343 -17 q 124 63 213 -17 q 35 272 35 142 q 119 483 35 406 q 324 561 203 561 q 520 484 449 561 q 592 278 592 407 l 592 251 l 125 251 l 126 315 l 490 315 q 443 442 490 397 q 324 486 396 486 q 193 432 246 486 q 140 283 140 378 q 195 122 140 181 q 339 63 250 63 q 453 88 401 63 q 546 150 506 113 l 582 88 q 485 14 544 44 q 343 -17 425 -17 z "},"é":{"ha":640,"x_min":35,"x_max":592,"o":"m 343 -17 q 124 63 213 -17 q 35 272 35 142 q 119 483 35 406 q 324 561 203 561 q 520 484 449 561 q 592 278 592 407 l 592 251 l 125 251 l 126 315 l 490 315 q 443 442 490 397 q 324 486 396 486 q 193 432 246 486 q 140 283 140 378 q 195 122 140 181 q 339 63 250 63 q 453 88 401 63 q 546 150 506 113 l 582 88 q 485 14 544 44 q 343 -17 425 -17 m 296 663 l 369 864 l 486 864 l 361 663 l 296 663 z "},"ĕ":{"ha":640,"x_min":35,"x_max":592,"o":"m 343 -17 q 124 63 213 -17 q 35 272 35 142 q 119 483 35 406 q 324 561 203 561 q 520 484 449 561 q 592 278 592 407 l 592 251 l 125 251 l 126 315 l 490 315 q 443 442 490 397 q 324 486 396 486 q 193 432 246 486 q 140 283 140 378 q 195 122 140 181 q 339 63 250 63 q 453 88 401 63 q 546 150 506 113 l 582 88 q 485 14 544 44 q 343 -17 425 -17 m 328 625 q 224 662 265 624 q 175 764 182 700 l 243 764 q 328 688 258 688 q 411 764 399 688 l 481 764 q 328 625 465 628 z "},"ě":{"ha":640,"x_min":35,"x_max":592,"o":"m 343 -17 q 124 63 213 -17 q 35 272 35 142 q 119 483 35 406 q 324 561 203 561 q 520 484 449 561 q 592 278 592 407 l 592 251 l 125 251 l 126 315 l 490 315 q 443 442 490 397 q 324 486 396 486 q 193 432 246 486 q 140 283 140 378 q 195 122 140 181 q 339 63 250 63 q 453 88 401 63 q 546 150 506 113 l 582 88 q 485 14 544 44 q 343 -17 425 -17 m 279 622 l 167 832 l 240 832 l 329 681 l 415 832 l 488 832 l 378 622 l 279 622 z "},"ȩ":{"ha":640,"x_min":35,"x_max":592,"o":"m 343 -17 q 124 63 213 -17 q 35 272 35 142 q 119 483 35 406 q 324 561 203 561 q 520 484 449 561 q 592 278 592 407 l 592 251 l 125 251 l 126 315 l 490 315 q 443 442 490 397 q 324 486 396 486 q 193 432 246 486 q 140 283 140 378 q 195 122 140 181 q 339 63 250 63 q 453 88 401 63 q 546 150 506 113 l 582 88 q 485 14 544 44 q 343 -17 425 -17 m 332 -243 q 211 -217 272 -243 l 211 -176 q 253 -187 233 -183 q 290 -190 274 -190 q 343 -154 343 -190 q 324 -125 343 -136 q 264 -111 306 -114 l 307 0 l 353 0 l 331 -81 q 407 -110 383 -86 q 431 -164 431 -133 q 401 -225 431 -207 q 332 -243 372 -243 z "},"ḝ":{"ha":640,"x_min":35,"x_max":592,"o":"m 343 -17 q 124 63 213 -17 q 35 272 35 142 q 119 483 35 406 q 324 561 203 561 q 520 484 449 561 q 592 278 592 407 l 592 251 l 125 251 l 126 315 l 490 315 q 443 442 490 397 q 324 486 396 486 q 193 432 246 486 q 140 283 140 378 q 195 122 140 181 q 339 63 250 63 q 453 88 401 63 q 546 150 506 113 l 582 88 q 485 14 544 44 q 343 -17 425 -17 m 332 -243 q 211 -217 272 -243 l 211 -176 q 253 -187 233 -183 q 290 -190 274 -190 q 343 -154 343 -190 q 324 -125 343 -136 q 264 -111 306 -114 l 307 0 l 353 0 l 331 -81 q 407 -110 383 -86 q 431 -164 431 -133 q 401 -225 431 -207 q 332 -243 372 -243 m 328 625 q 224 662 265 624 q 175 764 182 700 l 243 764 q 328 688 258 688 q 411 764 399 688 l 481 764 q 328 625 465 628 z "},"ê":{"ha":640,"x_min":35,"x_max":592,"o":"m 343 -17 q 124 63 213 -17 q 35 272 35 142 q 119 483 35 406 q 324 561 203 561 q 520 484 449 561 q 592 278 592 407 l 592 251 l 125 251 l 126 315 l 490 315 q 443 442 490 397 q 324 486 396 486 q 193 432 246 486 q 140 283 140 378 q 195 122 140 181 q 339 63 250 63 q 453 88 401 63 q 546 150 506 113 l 582 88 q 485 14 544 44 q 343 -17 425 -17 m 158 624 l 274 842 l 382 842 l 497 624 l 419 624 l 328 797 l 236 624 l 158 624 z "},"ế":{"ha":640,"x_min":35,"x_max":621,"o":"m 343 -17 q 124 63 213 -17 q 35 272 35 142 q 119 483 35 406 q 324 561 203 561 q 520 484 449 561 q 592 278 592 407 l 592 251 l 125 251 l 126 315 l 490 315 q 443 442 490 397 q 324 486 396 486 q 193 432 246 486 q 140 283 140 378 q 195 122 140 181 q 339 63 250 63 q 453 88 401 63 q 546 150 506 113 l 582 88 q 485 14 544 44 q 343 -17 425 -17 m 158 624 l 274 800 l 382 800 l 497 624 l 419 624 l 328 756 l 236 624 l 158 624 m 458 750 l 518 910 l 621 910 l 524 750 l 458 750 z "},"ệ":{"ha":640,"x_min":35,"x_max":592,"o":"m 343 -17 q 124 63 213 -17 q 35 272 35 142 q 119 483 35 406 q 324 561 203 561 q 520 484 449 561 q 592 278 592 407 l 592 251 l 125 251 l 126 315 l 490 315 q 443 442 490 397 q 324 486 396 486 q 193 432 246 486 q 140 283 140 378 q 195 122 140 181 q 339 63 250 63 q 453 88 401 63 q 546 150 506 113 l 582 88 q 485 14 544 44 q 343 -17 425 -17 m 329 -194 q 282 -176 301 -194 q 263 -132 263 -157 q 329 -69 263 -69 q 376 -86 357 -69 q 394 -132 394 -103 q 378 -175 396 -156 q 329 -194 360 -194 m 158 624 l 274 842 l 382 842 l 497 624 l 419 624 l 328 797 l 236 624 l 158 624 z "},"ề":{"ha":640,"x_min":35,"x_max":592,"o":"m 343 -17 q 124 63 213 -17 q 35 272 35 142 q 119 483 35 406 q 324 561 203 561 q 520 484 449 561 q 592 278 592 407 l 592 251 l 125 251 l 126 315 l 490 315 q 443 442 490 397 q 324 486 396 486 q 193 432 246 486 q 140 283 140 378 q 195 122 140 181 q 339 63 250 63 q 453 88 401 63 q 546 150 506 113 l 582 88 q 485 14 544 44 q 343 -17 425 -17 m 158 624 l 274 800 l 382 800 l 497 624 l 419 624 l 328 756 l 236 624 l 158 624 m 551 750 l 486 750 l 389 910 l 492 910 l 551 750 z "},"ể":{"ha":640,"x_min":35,"x_max":592,"o":"m 343 -17 q 124 63 213 -17 q 35 272 35 142 q 119 483 35 406 q 324 561 203 561 q 520 484 449 561 q 592 278 592 407 l 592 251 l 125 251 l 126 315 l 490 315 q 443 442 490 397 q 324 486 396 486 q 193 432 246 486 q 140 283 140 378 q 195 122 140 181 q 339 63 250 63 q 453 88 401 63 q 546 150 506 113 l 582 88 q 485 14 544 44 q 343 -17 425 -17 m 158 624 l 274 800 l 382 800 l 497 624 l 419 624 l 328 756 l 236 624 l 158 624 m 464 736 l 444 797 q 492 847 492 813 q 444 885 492 885 q 385 867 417 885 l 364 925 q 403 942 381 935 q 451 949 425 949 q 534 921 503 949 q 565 850 565 893 q 464 736 565 764 z "},"ễ":{"ha":640,"x_min":35,"x_max":592,"o":"m 343 -17 q 124 63 213 -17 q 35 272 35 142 q 119 483 35 406 q 324 561 203 561 q 520 484 449 561 q 592 278 592 407 l 592 251 l 125 251 l 126 315 l 490 315 q 443 442 490 397 q 324 486 396 486 q 193 432 246 486 q 140 283 140 378 q 195 122 140 181 q 339 63 250 63 q 453 88 401 63 q 546 150 506 113 l 582 88 q 485 14 544 44 q 343 -17 425 -17 m 158 624 l 274 800 l 382 800 l 497 624 l 419 624 l 328 756 l 236 624 l 158 624 m 415 836 q 317 862 368 836 q 231 888 267 888 q 188 842 194 888 l 144 842 q 177 935 150 906 q 246 964 204 964 q 338 938 286 964 q 421 913 389 913 q 472 961 461 913 l 513 961 q 486 872 508 908 q 415 836 464 836 z "},"ȅ":{"ha":640,"x_min":35,"x_max":592,"o":"m 343 -17 q 124 63 213 -17 q 35 272 35 142 q 119 483 35 406 q 324 561 203 561 q 520 484 449 561 q 592 278 592 407 l 592 251 l 125 251 l 126 315 l 490 315 q 443 442 490 397 q 324 486 396 486 q 193 432 246 486 q 140 283 140 378 q 195 122 140 181 q 339 63 250 63 q 453 88 401 63 q 546 150 506 113 l 582 88 q 485 14 544 44 q 343 -17 425 -17 m 185 663 l 54 874 l 171 874 l 250 663 l 185 663 m 372 663 l 243 874 l 360 874 l 438 663 l 372 663 z "},"ë":{"ha":640,"x_min":35,"x_max":592,"o":"m 343 -17 q 124 63 213 -17 q 35 272 35 142 q 119 483 35 406 q 324 561 203 561 q 520 484 449 561 q 592 278 592 407 l 592 251 l 125 251 l 126 315 l 490 315 q 443 442 490 397 q 324 486 396 486 q 193 432 246 486 q 140 283 140 378 q 195 122 140 181 q 339 63 250 63 q 453 88 401 63 q 546 150 506 113 l 582 88 q 485 14 544 44 q 343 -17 425 -17 m 194 635 q 149 651 167 635 q 132 694 132 667 q 149 738 132 722 q 194 754 167 754 q 240 738 222 754 q 257 694 257 722 q 240 651 257 667 q 194 635 222 635 m 461 635 q 417 651 433 635 q 400 694 400 667 q 417 738 400 722 q 461 754 433 754 q 506 738 489 754 q 524 694 524 722 q 506 651 524 667 q 461 635 489 635 z "},"ė":{"ha":640,"x_min":35,"x_max":592,"o":"m 343 -17 q 124 63 213 -17 q 35 272 35 142 q 119 483 35 406 q 324 561 203 561 q 520 484 449 561 q 592 278 592 407 l 592 251 l 125 251 l 126 315 l 490 315 q 443 442 490 397 q 324 486 396 486 q 193 432 246 486 q 140 283 140 378 q 195 122 140 181 q 339 63 250 63 q 453 88 401 63 q 546 150 506 113 l 582 88 q 485 14 544 44 q 343 -17 425 -17 z "},"ẹ":{"ha":640,"x_min":35,"x_max":592,"o":"m 343 -17 q 124 63 213 -17 q 35 272 35 142 q 119 483 35 406 q 324 561 203 561 q 520 484 449 561 q 592 278 592 407 l 592 251 l 125 251 l 126 315 l 490 315 q 443 442 490 397 q 324 486 396 486 q 193 432 246 486 q 140 283 140 378 q 195 122 140 181 q 339 63 250 63 q 453 88 401 63 q 546 150 506 113 l 582 88 q 485 14 544 44 q 343 -17 425 -17 m 329 -194 q 282 -176 301 -194 q 263 -132 263 -157 q 329 -69 263 -69 q 376 -86 357 -69 q 394 -132 394 -103 q 378 -175 396 -156 q 329 -194 360 -194 z "},"è":{"ha":640,"x_min":35,"x_max":592,"o":"m 343 -17 q 124 63 213 -17 q 35 272 35 142 q 119 483 35 406 q 324 561 203 561 q 520 484 449 561 q 592 278 592 407 l 592 251 l 125 251 l 126 315 l 490 315 q 443 442 490 397 q 324 486 396 486 q 193 432 246 486 q 140 283 140 378 q 195 122 140 181 q 339 63 250 63 q 453 88 401 63 q 546 150 506 113 l 582 88 q 485 14 544 44 q 343 -17 425 -17 m 294 663 l 169 864 l 286 864 l 360 663 l 294 663 z "},"ẻ":{"ha":640,"x_min":35,"x_max":592,"o":"m 343 -17 q 124 63 213 -17 q 35 272 35 142 q 119 483 35 406 q 324 561 203 561 q 520 484 449 561 q 592 278 592 407 l 592 251 l 125 251 l 126 315 l 490 315 q 443 442 490 397 q 324 486 396 486 q 193 432 246 486 q 140 283 140 378 q 195 122 140 181 q 339 63 250 63 q 453 88 401 63 q 546 150 506 113 l 582 88 q 485 14 544 44 q 343 -17 425 -17 m 328 606 l 308 667 q 356 717 356 682 q 308 754 356 754 q 249 736 281 754 l 228 794 q 267 811 244 804 q 315 818 289 818 q 398 790 367 818 q 429 719 429 763 q 328 606 429 633 z "},"ȇ":{"ha":640,"x_min":35,"x_max":592,"o":"m 343 -17 q 124 63 213 -17 q 35 272 35 142 q 119 483 35 406 q 324 561 203 561 q 520 484 449 561 q 592 278 592 407 l 592 251 l 125 251 l 126 315 l 490 315 q 443 442 490 397 q 324 486 396 486 q 193 432 246 486 q 140 283 140 378 q 195 122 140 181 q 339 63 250 63 q 453 88 401 63 q 546 150 506 113 l 582 88 q 485 14 544 44 q 343 -17 425 -17 m 165 625 q 216 733 172 693 q 328 774 260 774 q 438 733 394 774 q 489 625 482 693 l 407 625 q 328 696 394 696 q 247 625 260 696 l 165 625 z "},"ē":{"ha":640,"x_min":35,"x_max":592,"o":"m 343 -17 q 124 63 213 -17 q 35 272 35 142 q 119 483 35 406 q 324 561 203 561 q 520 484 449 561 q 592 278 592 407 l 592 251 l 125 251 l 126 315 l 490 315 q 443 442 490 397 q 324 486 396 486 q 193 432 246 486 q 140 283 140 378 q 195 122 140 181 q 339 63 250 63 q 453 88 401 63 q 546 150 506 113 l 582 88 q 485 14 544 44 q 343 -17 425 -17 m 182 657 l 182 719 l 474 719 l 474 657 l 182 657 z "},"ḗ":{"ha":640,"x_min":35,"x_max":592,"o":"m 343 -17 q 124 63 213 -17 q 35 272 35 142 q 119 483 35 406 q 324 561 203 561 q 520 484 449 561 q 592 278 592 407 l 592 251 l 125 251 l 126 315 l 490 315 q 443 442 490 397 q 324 486 396 486 q 193 432 246 486 q 140 283 140 378 q 195 122 140 181 q 339 63 250 63 q 453 88 401 63 q 546 150 506 113 l 582 88 q 485 14 544 44 q 343 -17 425 -17 m 182 657 l 182 719 l 474 719 l 474 657 l 182 657 m 296 821 l 369 1022 l 486 1022 l 361 821 l 296 821 z "},"ḕ":{"ha":640,"x_min":35,"x_max":592,"o":"m 343 -17 q 124 63 213 -17 q 35 272 35 142 q 119 483 35 406 q 324 561 203 561 q 520 484 449 561 q 592 278 592 407 l 592 251 l 125 251 l 126 315 l 490 315 q 443 442 490 397 q 324 486 396 486 q 193 432 246 486 q 140 283 140 378 q 195 122 140 181 q 339 63 250 63 q 453 88 401 63 q 546 150 506 113 l 582 88 q 485 14 544 44 q 343 -17 425 -17 m 182 657 l 182 719 l 474 719 l 474 657 l 182 657 m 294 821 l 169 1022 l 286 1022 l 360 821 l 294 821 z "},"ę":{"ha":640,"x_min":35,"x_max":592,"o":"m 343 -17 q 124 63 213 -17 q 35 272 35 142 q 119 483 35 406 q 324 561 203 561 q 520 484 449 561 q 592 278 592 407 l 592 251 l 125 251 l 126 315 l 490 315 q 443 442 490 397 q 324 486 396 486 q 193 432 246 486 q 140 283 140 378 q 195 122 140 181 q 339 63 250 63 q 453 88 401 63 q 546 150 506 113 l 582 88 q 485 14 544 44 q 343 -17 425 -17 m 367 -226 q 288 -198 319 -226 q 256 -124 256 -169 q 329 8 256 -61 l 389 8 q 343 -50 360 -22 q 326 -103 326 -78 q 392 -162 326 -162 q 453 -144 422 -162 l 453 -200 q 367 -226 410 -226 z "},"ẽ":{"ha":640,"x_min":35,"x_max":592,"o":"m 343 -17 q 124 63 213 -17 q 35 272 35 142 q 119 483 35 406 q 324 561 203 561 q 520 484 449 561 q 592 278 592 407 l 592 251 l 125 251 l 126 315 l 490 315 q 443 442 490 397 q 324 486 396 486 q 193 432 246 486 q 140 283 140 378 q 195 122 140 181 q 339 63 250 63 q 453 88 401 63 q 546 150 506 113 l 582 88 q 485 14 544 44 q 343 -17 425 -17 m 415 653 q 317 678 368 653 q 231 704 267 704 q 188 658 194 704 l 144 658 q 177 751 150 722 q 246 781 204 781 q 338 755 286 781 q 421 729 389 729 q 472 778 461 729 l 513 778 q 486 689 508 725 q 415 653 464 653 z "},"ə":{"ha":640,"x_min":49,"x_max":606,"o":"m 322 -15 q 122 62 194 -15 q 49 268 49 139 l 49 294 l 515 294 l 514 231 l 150 231 q 200 105 150 150 q 326 60 250 60 q 450 115 400 60 q 500 267 500 169 q 449 425 500 367 q 314 483 397 483 q 192 458 247 483 q 94 396 136 433 l 58 458 q 161 531 97 499 q 310 563 225 563 q 520 484 435 563 q 606 278 606 406 q 524 63 606 142 q 322 -15 442 -15 z "},"f":{"ha":439,"x_min":57,"x_max":481,"o":"m 57 0 l 57 74 l 165 74 l 165 472 l 58 472 l 58 546 l 165 546 l 165 663 q 205 783 165 738 q 329 828 244 828 q 431 800 386 828 q 481 700 475 772 l 401 678 q 381 735 394 714 q 333 756 367 756 q 285 733 303 756 q 268 661 268 710 l 268 546 l 435 546 l 435 472 l 268 472 l 268 74 l 408 74 l 408 0 l 57 0 z "},"ḟ":{"ha":439,"x_min":57,"x_max":481,"o":"m 57 0 l 57 74 l 165 74 l 165 472 l 58 472 l 58 546 l 165 546 l 165 663 q 205 783 165 738 q 329 828 244 828 q 431 800 386 828 q 481 700 475 772 l 401 678 q 381 735 394 714 q 333 756 367 756 q 285 733 303 756 q 268 661 268 710 l 268 546 l 435 546 l 435 472 l 268 472 l 268 74 l 408 74 l 408 0 l 57 0 z "},"g":{"ha":713,"x_min":43,"x_max":699,"o":"m 326 -261 q 225 -252 278 -261 q 121 -228 172 -243 l 142 -147 q 236 -170 189 -161 q 324 -179 283 -179 q 456 -140 408 -179 q 504 -19 504 -101 l 504 78 l 536 83 q 437 18 494 40 q 322 -4 379 -4 q 125 70 207 -4 q 43 278 43 144 q 124 486 43 414 q 319 558 204 558 q 436 535 375 558 q 531 471 497 511 l 503 471 l 503 546 l 699 546 l 699 472 l 607 472 l 607 -12 q 526 -203 607 -146 q 326 -261 446 -261 m 343 72 q 444 94 392 72 q 538 154 497 115 l 504 103 l 503 446 l 538 401 q 439 460 494 438 q 332 483 383 483 q 201 428 253 483 q 150 271 150 374 q 206 124 150 175 q 343 72 261 72 z "},"ǵ":{"ha":713,"x_min":43,"x_max":699,"o":"m 326 -261 q 225 -252 278 -261 q 121 -228 172 -243 l 142 -147 q 236 -170 189 -161 q 324 -179 283 -179 q 456 -140 408 -179 q 504 -19 504 -101 l 504 78 l 536 83 q 437 18 494 40 q 322 -4 379 -4 q 125 70 207 -4 q 43 278 43 144 q 124 486 43 414 q 319 558 204 558 q 436 535 375 558 q 531 471 497 511 l 503 471 l 503 546 l 699 546 l 699 472 l 607 472 l 607 -12 q 526 -203 607 -146 q 326 -261 446 -261 m 343 72 q 444 94 392 72 q 538 154 497 115 l 504 103 l 503 446 l 538 401 q 439 460 494 438 q 332 483 383 483 q 201 428 253 483 q 150 271 150 374 q 206 124 150 175 q 343 72 261 72 m 310 663 l 383 864 l 500 864 l 375 663 l 310 663 z "},"ğ":{"ha":713,"x_min":43,"x_max":699,"o":"m 326 -261 q 225 -252 278 -261 q 121 -228 172 -243 l 142 -147 q 236 -170 189 -161 q 324 -179 283 -179 q 456 -140 408 -179 q 504 -19 504 -101 l 504 78 l 536 83 q 437 18 494 40 q 322 -4 379 -4 q 125 70 207 -4 q 43 278 43 144 q 124 486 43 414 q 319 558 204 558 q 436 535 375 558 q 531 471 497 511 l 503 471 l 503 546 l 699 546 l 699 472 l 607 472 l 607 -12 q 526 -203 607 -146 q 326 -261 446 -261 m 343 72 q 444 94 392 72 q 538 154 497 115 l 504 103 l 503 446 l 538 401 q 439 460 494 438 q 332 483 383 483 q 201 428 253 483 q 150 271 150 374 q 206 124 150 175 q 343 72 261 72 m 342 625 q 238 662 279 624 q 189 764 196 700 l 257 764 q 342 688 272 688 q 425 764 413 688 l 494 764 q 342 625 479 628 z "},"ǧ":{"ha":713,"x_min":43,"x_max":699,"o":"m 326 -261 q 225 -252 278 -261 q 121 -228 172 -243 l 142 -147 q 236 -170 189 -161 q 324 -179 283 -179 q 456 -140 408 -179 q 504 -19 504 -101 l 504 78 l 536 83 q 437 18 494 40 q 322 -4 379 -4 q 125 70 207 -4 q 43 278 43 144 q 124 486 43 414 q 319 558 204 558 q 436 535 375 558 q 531 471 497 511 l 503 471 l 503 546 l 699 546 l 699 472 l 607 472 l 607 -12 q 526 -203 607 -146 q 326 -261 446 -261 m 343 72 q 444 94 392 72 q 538 154 497 115 l 504 103 l 503 446 l 538 401 q 439 460 494 438 q 332 483 383 483 q 201 428 253 483 q 150 271 150 374 q 206 124 150 175 q 343 72 261 72 m 293 622 l 181 832 l 254 832 l 343 681 l 429 832 l 501 832 l 392 622 l 293 622 z "},"ĝ":{"ha":713,"x_min":43,"x_max":699,"o":"m 326 -261 q 225 -252 278 -261 q 121 -228 172 -243 l 142 -147 q 236 -170 189 -161 q 324 -179 283 -179 q 456 -140 408 -179 q 504 -19 504 -101 l 504 78 l 536 83 q 437 18 494 40 q 322 -4 379 -4 q 125 70 207 -4 q 43 278 43 144 q 124 486 43 414 q 319 558 204 558 q 436 535 375 558 q 531 471 497 511 l 503 471 l 503 546 l 699 546 l 699 472 l 607 472 l 607 -12 q 526 -203 607 -146 q 326 -261 446 -261 m 343 72 q 444 94 392 72 q 538 154 497 115 l 504 103 l 503 446 l 538 401 q 439 460 494 438 q 332 483 383 483 q 201 428 253 483 q 150 271 150 374 q 206 124 150 175 q 343 72 261 72 m 172 624 l 288 842 l 396 842 l 511 624 l 433 624 l 342 797 l 250 624 l 172 624 z "},"ģ":{"ha":713,"x_min":43,"x_max":699,"o":"m 326 -261 q 225 -252 278 -261 q 121 -228 172 -243 l 142 -147 q 236 -170 189 -161 q 324 -179 283 -179 q 456 -140 408 -179 q 504 -19 504 -101 l 504 78 l 536 83 q 437 18 494 40 q 322 -4 379 -4 q 125 70 207 -4 q 43 278 43 144 q 124 486 43 414 q 319 558 204 558 q 436 535 375 558 q 531 471 497 511 l 503 471 l 503 546 l 699 546 l 699 472 l 607 472 l 607 -12 q 526 -203 607 -146 q 326 -261 446 -261 m 343 72 q 444 94 392 72 q 538 154 497 115 l 504 103 l 503 446 l 538 401 q 439 460 494 438 q 332 483 383 483 q 201 428 253 483 q 150 271 150 374 q 206 124 150 175 q 343 72 261 72 z "},"ġ":{"ha":713,"x_min":43,"x_max":699,"o":"m 326 -261 q 225 -252 278 -261 q 121 -228 172 -243 l 142 -147 q 236 -170 189 -161 q 324 -179 283 -179 q 456 -140 408 -179 q 504 -19 504 -101 l 504 78 l 536 83 q 437 18 494 40 q 322 -4 379 -4 q 125 70 207 -4 q 43 278 43 144 q 124 486 43 414 q 319 558 204 558 q 436 535 375 558 q 531 471 497 511 l 503 471 l 503 546 l 699 546 l 699 472 l 607 472 l 607 -12 q 526 -203 607 -146 q 326 -261 446 -261 m 343 72 q 444 94 392 72 q 538 154 497 115 l 504 103 l 503 446 l 538 401 q 439 460 494 438 q 332 483 383 483 q 201 428 253 483 q 150 271 150 374 q 206 124 150 175 q 343 72 261 72 z "},"ḡ":{"ha":713,"x_min":43,"x_max":699,"o":"m 326 -261 q 225 -252 278 -261 q 121 -228 172 -243 l 142 -147 q 236 -170 189 -161 q 324 -179 283 -179 q 456 -140 408 -179 q 504 -19 504 -101 l 504 78 l 536 83 q 437 18 494 40 q 322 -4 379 -4 q 125 70 207 -4 q 43 278 43 144 q 124 486 43 414 q 319 558 204 558 q 436 535 375 558 q 531 471 497 511 l 503 471 l 503 546 l 699 546 l 699 472 l 607 472 l 607 -12 q 526 -203 607 -146 q 326 -261 446 -261 m 343 72 q 444 94 392 72 q 538 154 497 115 l 504 103 l 503 446 l 538 401 q 439 460 494 438 q 332 483 383 483 q 201 428 253 483 q 150 271 150 374 q 206 124 150 175 q 343 72 261 72 m 196 657 l 196 719 l 488 719 l 488 657 l 196 657 z "},"h":{"ha":724,"x_min":17,"x_max":707,"o":"m 17 0 l 17 74 l 118 74 l 118 724 l 18 724 l 18 796 l 221 796 l 221 465 l 183 458 q 302 531 243 503 q 426 560 361 560 q 554 513 501 560 q 607 378 607 467 l 607 74 l 707 74 l 707 0 l 414 0 l 414 74 l 504 74 l 504 358 q 477 447 504 415 q 401 479 450 479 q 291 453 349 479 q 186 390 233 428 l 221 440 l 221 74 l 310 74 l 310 0 l 17 0 z "},"ħ":{"ha":724,"x_min":17,"x_max":707,"o":"m 17 0 l 17 74 l 118 74 l 118 724 l 18 724 l 18 796 l 221 796 l 221 465 l 183 458 q 302 531 243 503 q 426 560 361 560 q 554 513 501 560 q 607 378 607 467 l 607 74 l 707 74 l 707 0 l 414 0 l 414 74 l 504 74 l 504 358 q 477 447 504 415 q 401 479 450 479 q 291 453 349 479 q 186 390 233 428 l 221 440 l 221 74 l 310 74 l 310 0 l 17 0 m 24 908 l 24 971 l 315 971 l 315 908 l 24 908 z "},"ḫ":{"ha":724,"x_min":17,"x_max":707,"o":"m 17 0 l 17 74 l 118 74 l 118 724 l 18 724 l 18 796 l 221 796 l 221 465 l 183 458 q 302 531 243 503 q 426 560 361 560 q 554 513 501 560 q 607 378 607 467 l 607 74 l 707 74 l 707 0 l 414 0 l 414 74 l 504 74 l 504 358 q 477 447 504 415 q 401 479 450 479 q 291 453 349 479 q 186 390 233 428 l 221 440 l 221 74 l 310 74 l 310 0 l 17 0 z "},"ȟ":{"ha":724,"x_min":8,"x_max":707,"o":"m 17 0 l 17 74 l 118 74 l 118 724 l 18 724 l 18 796 l 221 796 l 221 465 l 183 458 q 302 531 243 503 q 426 560 361 560 q 554 513 501 560 q 607 378 607 467 l 607 74 l 707 74 l 707 0 l 414 0 l 414 74 l 504 74 l 504 358 q 477 447 504 415 q 401 479 450 479 q 291 453 349 479 q 186 390 233 428 l 221 440 l 221 74 l 310 74 l 310 0 l 17 0 m 121 874 l 8 1083 l 82 1083 l 171 932 l 257 1083 l 329 1083 l 219 874 l 121 874 z "},"ĥ":{"ha":724,"x_min":0,"x_max":707,"o":"m 17 0 l 17 74 l 118 74 l 118 724 l 18 724 l 18 796 l 221 796 l 221 465 l 183 458 q 302 531 243 503 q 426 560 361 560 q 554 513 501 560 q 607 378 607 467 l 607 74 l 707 74 l 707 0 l 414 0 l 414 74 l 504 74 l 504 358 q 477 447 504 415 q 401 479 450 479 q 291 453 349 479 q 186 390 233 428 l 221 440 l 221 74 l 310 74 l 310 0 l 17 0 m 0 875 l 115 1093 l 224 1093 l 339 875 l 261 875 l 169 1049 l 78 875 l 0 875 z "},"ḥ":{"ha":724,"x_min":17,"x_max":707,"o":"m 17 0 l 17 74 l 118 74 l 118 724 l 18 724 l 18 796 l 221 796 l 221 465 l 183 458 q 302 531 243 503 q 426 560 361 560 q 554 513 501 560 q 607 378 607 467 l 607 74 l 707 74 l 707 0 l 414 0 l 414 74 l 504 74 l 504 358 q 477 447 504 415 q 401 479 450 479 q 291 453 349 479 q 186 390 233 428 l 221 440 l 221 74 l 310 74 l 310 0 l 17 0 m 363 -194 q 315 -176 335 -194 q 296 -132 296 -157 q 363 -69 296 -69 q 409 -86 390 -69 q 428 -132 428 -103 q 411 -175 429 -156 q 363 -194 393 -194 z "},"i":{"ha":371,"x_min":31,"x_max":336,"o":"m 31 0 l 31 74 l 136 74 l 136 472 l 32 472 l 32 546 l 238 546 l 238 74 l 336 74 l 336 0 l 31 0 m 174 665 q 120 685 142 665 q 99 736 99 706 q 120 787 99 767 q 174 807 142 807 q 227 787 206 807 q 249 736 249 767 q 227 685 249 706 q 174 665 206 665 z "},"ı":{"ha":371,"x_min":31,"x_max":336,"o":"m 31 0 l 31 74 l 136 74 l 136 472 l 32 472 l 32 546 l 238 546 l 238 74 l 336 74 l 336 0 l 31 0 z "},"í":{"ha":371,"x_min":31,"x_max":336,"o":"m 31 0 l 31 74 l 136 74 l 136 472 l 32 472 l 32 546 l 238 546 l 238 74 l 336 74 l 336 0 l 31 0 m 142 663 l 215 864 l 332 864 l 207 663 l 142 663 z "},"ĭ":{"ha":371,"x_min":21,"x_max":336,"o":"m 31 0 l 31 74 l 136 74 l 136 472 l 32 472 l 32 546 l 238 546 l 238 74 l 336 74 l 336 0 l 31 0 m 174 625 q 69 662 111 624 q 21 764 28 700 l 89 764 q 174 688 104 688 q 257 764 244 688 l 326 764 q 174 625 311 628 z "},"ǐ":{"ha":371,"x_min":13,"x_max":336,"o":"m 31 0 l 31 74 l 136 74 l 136 472 l 32 472 l 32 546 l 238 546 l 238 74 l 336 74 l 336 0 l 31 0 m 125 622 l 13 832 l 86 832 l 175 681 l 261 832 l 333 832 l 224 622 l 125 622 z "},"î":{"ha":371,"x_min":4,"x_max":343,"o":"m 31 0 l 31 74 l 136 74 l 136 472 l 32 472 l 32 546 l 238 546 l 238 74 l 336 74 l 336 0 l 31 0 m 4 624 l 119 842 l 228 842 l 343 624 l 265 624 l 174 797 l 82 624 l 4 624 z "},"ȉ":{"ha":371,"x_min":-100,"x_max":336,"o":"m 31 0 l 31 74 l 136 74 l 136 472 l 32 472 l 32 546 l 238 546 l 238 74 l 336 74 l 336 0 l 31 0 m 31 663 l -100 874 l 17 874 l 96 663 l 31 663 m 218 663 l 89 874 l 206 874 l 283 663 l 218 663 z "},"ï":{"ha":371,"x_min":-22,"x_max":369,"o":"m 31 0 l 31 74 l 136 74 l 136 472 l 32 472 l 32 546 l 238 546 l 238 74 l 336 74 l 336 0 l 31 0 m 40 635 q -5 651 13 635 q -22 694 -22 667 q -5 738 -22 722 q 40 754 13 754 q 85 738 68 754 q 103 694 103 722 q 85 651 103 667 q 40 635 68 635 m 307 635 q 263 651 279 635 q 246 694 246 667 q 263 738 246 722 q 307 754 279 754 q 352 738 335 754 q 369 694 369 722 q 352 651 369 667 q 307 635 335 635 z "},"ḯ":{"ha":371,"x_min":-22,"x_max":369,"o":"m 31 0 l 31 74 l 136 74 l 136 472 l 32 472 l 32 546 l 238 546 l 238 74 l 336 74 l 336 0 l 31 0 m 40 635 q -5 651 13 635 q -22 694 -22 667 q -5 738 -22 722 q 40 754 13 754 q 85 738 68 754 q 103 694 103 722 q 85 651 103 667 q 40 635 68 635 m 307 635 q 263 651 279 635 q 246 694 246 667 q 263 738 246 722 q 307 754 279 754 q 352 738 335 754 q 369 694 369 722 q 352 651 369 667 q 307 635 335 635 m 142 871 l 215 1072 l 332 1072 l 207 871 l 142 871 z "},"ị":{"ha":371,"x_min":31,"x_max":336,"o":"m 31 0 l 31 74 l 136 74 l 136 472 l 32 472 l 32 546 l 238 546 l 238 74 l 336 74 l 336 0 l 31 0 m 174 665 q 120 685 142 665 q 99 736 99 706 q 120 787 99 767 q 174 807 142 807 q 227 787 206 807 q 249 736 249 767 q 227 685 249 706 q 174 665 206 665 m 188 -194 q 140 -176 160 -194 q 121 -132 121 -157 q 188 -69 121 -69 q 234 -86 215 -69 q 253 -132 253 -103 q 236 -175 254 -156 q 188 -194 218 -194 z "},"ì":{"ha":371,"x_min":15,"x_max":336,"o":"m 31 0 l 31 74 l 136 74 l 136 472 l 32 472 l 32 546 l 238 546 l 238 74 l 336 74 l 336 0 l 31 0 m 140 663 l 15 864 l 132 864 l 206 663 l 140 663 z "},"ỉ":{"ha":371,"x_min":31,"x_max":336,"o":"m 31 0 l 31 74 l 136 74 l 136 472 l 32 472 l 32 546 l 238 546 l 238 74 l 336 74 l 336 0 l 31 0 m 174 606 l 154 667 q 201 717 201 682 q 154 754 201 754 q 94 736 126 754 l 74 794 q 113 811 90 804 q 161 818 135 818 q 244 790 213 818 q 275 719 275 763 q 174 606 275 633 z "},"ȋ":{"ha":371,"x_min":11,"x_max":336,"o":"m 31 0 l 31 74 l 136 74 l 136 472 l 32 472 l 32 546 l 238 546 l 238 74 l 336 74 l 336 0 l 31 0 m 11 625 q 62 733 18 693 q 174 774 106 774 q 284 733 240 774 q 335 625 328 693 l 253 625 q 174 696 240 696 q 93 625 106 696 l 11 625 z "},"ĳ":{"ha":717,"x_min":31,"x_max":632,"o":"m 31 0 l 31 74 l 136 74 l 136 472 l 32 472 l 32 546 l 238 546 l 238 74 l 336 74 l 336 0 l 31 0 m 174 665 q 120 685 142 665 q 99 736 99 706 q 120 787 99 767 q 174 807 142 807 q 227 787 206 807 q 249 736 249 767 q 227 685 249 706 q 174 665 206 665 m 378 -211 l 378 -131 l 436 -131 q 510 -103 493 -131 q 526 -19 526 -76 l 526 472 l 415 472 l 415 546 l 631 546 l 631 6 q 600 -149 631 -87 q 438 -211 569 -211 l 378 -211 m 557 665 q 504 685 526 665 q 482 738 482 706 q 504 787 482 767 q 557 807 526 807 q 610 787 589 807 q 632 738 632 767 q 610 685 632 706 q 557 665 589 665 z "},"ī":{"ha":371,"x_min":28,"x_max":336,"o":"m 31 0 l 31 74 l 136 74 l 136 472 l 32 472 l 32 546 l 238 546 l 238 74 l 336 74 l 336 0 l 31 0 m 28 657 l 28 719 l 319 719 l 319 657 l 28 657 z "},"į":{"ha":371,"x_min":31,"x_max":336,"o":"m 31 0 l 31 74 l 136 74 l 136 472 l 32 472 l 32 546 l 238 546 l 238 74 l 336 74 l 336 0 l 31 0 m 165 -235 q 86 -206 118 -235 q 54 -132 54 -178 q 128 0 54 -69 l 188 0 q 142 -58 158 -31 q 125 -111 125 -86 q 190 -171 125 -171 q 251 -153 221 -171 l 251 -208 q 165 -235 208 -235 z "},"ĩ":{"ha":371,"x_min":-10,"x_max":358,"o":"m 31 0 l 31 74 l 136 74 l 136 472 l 32 472 l 32 546 l 238 546 l 238 74 l 336 74 l 336 0 l 31 0 m 261 653 q 163 678 214 653 q 76 704 113 704 q 33 658 40 704 l -10 658 q 23 751 -4 722 q 92 781 50 781 q 183 755 132 781 q 267 729 235 729 q 318 778 307 729 l 358 778 q 332 689 354 725 q 261 653 310 653 z "},"j":{"ha":346,"x_min":7,"x_max":261,"o":"m 7 -211 l 7 -131 l 65 -131 q 139 -103 122 -131 q 156 -19 156 -76 l 156 472 l 44 472 l 44 546 l 260 546 l 260 6 q 229 -149 260 -87 q 67 -211 199 -211 l 7 -211 m 186 665 q 133 685 156 665 q 111 738 111 706 q 133 787 111 767 q 186 807 156 807 q 240 787 218 807 q 261 738 261 767 q 240 685 261 706 q 186 665 218 665 z "},"ȷ":{"ha":343,"x_min":7,"x_max":258,"o":"m 7 -211 l 7 -131 l 65 -131 q 140 -103 124 -131 q 156 -14 156 -75 l 156 472 l 42 472 l 42 546 l 258 546 l 258 15 q 249 -99 258 -47 q 199 -181 239 -150 q 67 -211 158 -211 l 7 -211 z "},"ǰ":{"ha":343,"x_min":3,"x_max":324,"o":"m 7 -211 l 7 -131 l 65 -131 q 140 -103 124 -131 q 156 -14 156 -75 l 156 472 l 42 472 l 42 546 l 258 546 l 258 15 q 249 -99 258 -47 q 199 -181 239 -150 q 67 -211 158 -211 l 7 -211 m 115 622 l 3 832 l 76 832 l 165 681 l 251 832 l 324 832 l 214 622 l 115 622 z "},"ĵ":{"ha":343,"x_min":-6,"x_max":333,"o":"m 7 -211 l 7 -131 l 65 -131 q 140 -103 124 -131 q 156 -14 156 -75 l 156 472 l 42 472 l 42 546 l 258 546 l 258 15 q 249 -99 258 -47 q 199 -181 239 -150 q 67 -211 158 -211 l 7 -211 m -6 624 l 110 842 l 218 842 l 333 624 l 256 624 l 164 797 l 72 624 l -6 624 z "},"k":{"ha":692,"x_min":36,"x_max":669,"o":"m 36 0 l 36 74 l 139 74 l 139 724 l 39 724 l 39 796 l 242 796 l 242 292 l 478 472 l 376 472 l 376 546 l 667 546 l 667 472 l 583 472 l 347 285 l 561 74 l 669 74 l 669 0 l 510 0 l 242 268 l 242 74 l 331 74 l 331 0 l 36 0 z "},"ǩ":{"ha":692,"x_min":29,"x_max":669,"o":"m 36 0 l 36 74 l 139 74 l 139 724 l 39 724 l 39 796 l 242 796 l 242 292 l 478 472 l 376 472 l 376 546 l 667 546 l 667 472 l 583 472 l 347 285 l 561 74 l 669 74 l 669 0 l 510 0 l 242 268 l 242 74 l 331 74 l 331 0 l 36 0 m 142 872 l 29 1082 l 103 1082 l 192 931 l 278 1082 l 350 1082 l 240 872 l 142 872 z "},"ķ":{"ha":692,"x_min":36,"x_max":669,"o":"m 36 0 l 36 74 l 139 74 l 139 724 l 39 724 l 39 796 l 242 796 l 242 292 l 478 472 l 376 472 l 376 546 l 667 546 l 667 472 l 583 472 l 347 285 l 561 74 l 669 74 l 669 0 l 510 0 l 242 268 l 242 74 l 331 74 l 331 0 l 36 0 m 304 -328 l 304 -283 q 363 -253 344 -276 q 382 -190 382 -231 l 307 -190 l 307 -69 l 439 -69 l 439 -193 q 406 -292 439 -256 q 304 -328 374 -328 z "},"ĸ":{"ha":724,"x_min":53,"x_max":700,"o":"m 554 0 l 246 268 l 486 472 l 392 472 l 392 546 l 694 546 l 694 472 l 600 472 l 365 274 l 601 74 l 700 74 l 700 0 l 554 0 m 53 0 l 53 74 l 153 74 l 153 472 l 54 472 l 54 546 l 256 546 l 256 74 l 335 74 l 335 0 l 53 0 z "},"l":{"ha":361,"x_min":38,"x_max":331,"o":"m 38 0 l 38 74 l 139 74 l 139 724 l 40 724 l 40 796 l 242 796 l 242 74 l 331 74 l 331 0 l 38 0 z "},"ĺ":{"ha":361,"x_min":38,"x_max":349,"o":"m 38 0 l 38 74 l 139 74 l 139 724 l 40 724 l 40 796 l 242 796 l 242 74 l 331 74 l 331 0 l 38 0 m 158 914 l 232 1115 l 349 1115 l 224 914 l 158 914 z "},"ľ":{"ha":436,"x_min":38,"x_max":431,"o":"m 38 0 l 38 74 l 139 74 l 139 724 l 40 724 l 40 796 l 242 796 l 242 74 l 331 74 l 331 0 l 38 0 z "},"ļ":{"ha":361,"x_min":38,"x_max":331,"o":"m 38 0 l 38 74 l 139 74 l 139 724 l 40 724 l 40 796 l 242 796 l 242 74 l 331 74 l 331 0 l 38 0 m 121 -328 l 121 -283 q 180 -253 161 -276 q 199 -190 199 -231 l 124 -190 l 124 -69 l 256 -69 l 256 -193 q 223 -292 256 -256 q 121 -328 190 -328 z "},"ŀ":{"ha":361,"x_min":38,"x_max":449,"o":"m 38 0 l 38 74 l 139 74 l 139 724 l 40 724 l 40 796 l 242 796 l 242 74 l 331 74 l 331 0 l 38 0 m 374 381 q 320 401 342 381 q 299 451 299 422 q 320 501 299 481 q 374 521 342 521 q 427 501 406 521 q 449 451 449 481 q 427 401 449 422 q 374 381 406 381 z "},"ḷ":{"ha":361,"x_min":38,"x_max":331,"o":"m 38 0 l 38 74 l 139 74 l 139 724 l 40 724 l 40 796 l 242 796 l 242 74 l 331 74 l 331 0 l 38 0 m 188 -194 q 140 -176 160 -194 q 121 -132 121 -157 q 188 -69 121 -69 q 234 -86 215 -69 q 253 -132 253 -103 q 236 -175 254 -156 q 188 -194 218 -194 z "},"ǉ":{"ha":707,"x_min":38,"x_max":622,"o":"m 38 0 l 38 74 l 139 74 l 139 724 l 40 724 l 40 796 l 242 796 l 242 74 l 331 74 l 331 0 l 38 0 m 368 -211 l 368 -131 l 426 -131 q 500 -103 483 -131 q 517 -19 517 -76 l 517 472 l 406 472 l 406 546 l 621 546 l 621 6 q 590 -149 621 -87 q 428 -211 560 -211 l 368 -211 m 547 665 q 494 685 517 665 q 472 738 472 706 q 494 787 472 767 q 547 807 517 807 q 601 787 579 807 q 622 738 622 767 q 601 685 622 706 q 547 665 579 665 z "},"ḻ":{"ha":361,"x_min":38,"x_max":333,"o":"m 38 0 l 38 74 l 139 74 l 139 724 l 40 724 l 40 796 l 242 796 l 242 74 l 331 74 l 331 0 l 38 0 z "},"ł":{"ha":353,"x_min":33,"x_max":342,"o":"m 33 267 l 33 351 l 342 515 l 342 426 l 33 267 m 38 0 l 38 74 l 139 74 l 139 724 l 40 724 l 40 796 l 242 796 l 242 74 l 331 74 l 331 0 l 38 0 z "},"m":{"ha":1093,"x_min":31,"x_max":1090,"o":"m 31 0 l 31 74 l 136 74 l 136 472 l 31 472 l 31 546 l 238 546 l 238 478 l 200 467 q 315 534 256 508 q 432 560 375 560 q 564 508 517 560 q 611 375 611 456 l 611 74 l 711 74 l 711 0 l 418 0 l 418 74 l 510 74 l 510 358 q 406 479 510 479 q 305 456 360 479 q 197 399 250 433 l 238 439 l 238 74 l 336 74 l 336 0 l 31 0 m 797 0 l 797 74 l 889 74 l 889 358 q 861 447 889 415 q 785 479 833 479 q 688 459 736 479 q 594 407 639 439 l 574 464 q 689 533 632 506 q 811 560 746 560 q 938 513 885 560 q 990 378 990 467 l 990 74 l 1090 74 l 1090 0 l 797 0 z "},"ṁ":{"ha":1093,"x_min":31,"x_max":1090,"o":"m 31 0 l 31 74 l 136 74 l 136 472 l 31 472 l 31 546 l 238 546 l 238 478 l 200 467 q 315 534 256 508 q 432 560 375 560 q 564 508 517 560 q 611 375 611 456 l 611 74 l 711 74 l 711 0 l 418 0 l 418 74 l 510 74 l 510 358 q 406 479 510 479 q 305 456 360 479 q 197 399 250 433 l 238 439 l 238 74 l 336 74 l 336 0 l 31 0 m 797 0 l 797 74 l 889 74 l 889 358 q 861 447 889 415 q 785 479 833 479 q 688 459 736 479 q 594 407 639 439 l 574 464 q 689 533 632 506 q 811 560 746 560 q 938 513 885 560 q 990 378 990 467 l 990 74 l 1090 74 l 1090 0 l 797 0 z "},"ṃ":{"ha":1093,"x_min":31,"x_max":1090,"o":"m 31 0 l 31 74 l 136 74 l 136 472 l 31 472 l 31 546 l 238 546 l 238 478 l 200 467 q 315 534 256 508 q 432 560 375 560 q 564 508 517 560 q 611 375 611 456 l 611 74 l 711 74 l 711 0 l 418 0 l 418 74 l 510 74 l 510 358 q 406 479 510 479 q 305 456 360 479 q 197 399 250 433 l 238 439 l 238 74 l 336 74 l 336 0 l 31 0 m 797 0 l 797 74 l 889 74 l 889 358 q 861 447 889 415 q 785 479 833 479 q 688 459 736 479 q 594 407 639 439 l 574 464 q 689 533 632 506 q 811 560 746 560 q 938 513 885 560 q 990 378 990 467 l 990 74 l 1090 74 l 1090 0 l 797 0 m 561 -194 q 514 -176 533 -194 q 494 -132 494 -157 q 561 -69 494 -69 q 608 -86 589 -69 q 626 -132 626 -103 q 610 -175 628 -156 q 561 -194 592 -194 z "},"n":{"ha":718,"x_min":31,"x_max":715,"o":"m 31 0 l 31 74 l 136 74 l 136 472 l 31 472 l 31 546 l 238 546 l 238 471 l 199 467 q 315 533 257 506 q 435 560 374 560 q 562 513 510 560 q 614 378 614 467 l 614 74 l 715 74 l 715 0 l 422 0 l 422 74 l 513 74 l 513 358 q 408 479 513 479 q 307 457 358 479 q 197 396 256 435 l 238 440 l 238 74 l 336 74 l 336 0 l 31 0 z "},"ń":{"ha":718,"x_min":31,"x_max":715,"o":"m 31 0 l 31 74 l 136 74 l 136 472 l 31 472 l 31 546 l 238 546 l 238 471 l 199 467 q 315 533 257 506 q 435 560 374 560 q 562 513 510 560 q 614 378 614 467 l 614 74 l 715 74 l 715 0 l 422 0 l 422 74 l 513 74 l 513 358 q 408 479 513 479 q 307 457 358 479 q 197 396 256 435 l 238 440 l 238 74 l 336 74 l 336 0 l 31 0 m 360 663 l 433 864 l 550 864 l 425 663 l 360 663 z "},"ŉ":{"ha":1022,"x_min":139,"x_max":1019,"o":"m 139 615 l 139 661 q 197 686 178 667 q 215 749 215 706 l 140 749 l 140 872 l 274 872 l 272 747 q 241 651 274 686 q 139 615 208 615 m 335 0 l 335 74 l 440 74 l 440 472 l 335 472 l 335 546 l 542 546 l 542 471 l 503 467 q 619 533 561 506 q 739 560 678 560 q 866 513 814 560 q 918 378 918 467 l 918 74 l 1019 74 l 1019 0 l 726 0 l 726 74 l 817 74 l 817 358 q 713 479 817 479 q 611 457 663 479 q 501 396 560 435 l 542 440 l 542 74 l 640 74 l 640 0 l 335 0 z "},"ň":{"ha":718,"x_min":31,"x_max":715,"o":"m 31 0 l 31 74 l 136 74 l 136 472 l 31 472 l 31 546 l 238 546 l 238 471 l 199 467 q 315 533 257 506 q 435 560 374 560 q 562 513 510 560 q 614 378 614 467 l 614 74 l 715 74 l 715 0 l 422 0 l 422 74 l 513 74 l 513 358 q 408 479 513 479 q 307 457 358 479 q 197 396 256 435 l 238 440 l 238 74 l 336 74 l 336 0 l 31 0 m 343 622 l 231 832 l 304 832 l 393 681 l 479 832 l 551 832 l 442 622 l 343 622 z "},"ņ":{"ha":718,"x_min":31,"x_max":715,"o":"m 31 0 l 31 74 l 136 74 l 136 472 l 31 472 l 31 546 l 238 546 l 238 471 l 199 467 q 315 533 257 506 q 435 560 374 560 q 562 513 510 560 q 614 378 614 467 l 614 74 l 715 74 l 715 0 l 422 0 l 422 74 l 513 74 l 513 358 q 408 479 513 479 q 307 457 358 479 q 197 396 256 435 l 238 440 l 238 74 l 336 74 l 336 0 l 31 0 m 321 -328 l 321 -283 q 380 -253 361 -276 q 399 -190 399 -231 l 324 -190 l 324 -69 l 456 -69 l 456 -193 q 423 -292 456 -256 q 321 -328 390 -328 z "},"ṅ":{"ha":718,"x_min":31,"x_max":715,"o":"m 31 0 l 31 74 l 136 74 l 136 472 l 31 472 l 31 546 l 238 546 l 238 471 l 199 467 q 315 533 257 506 q 435 560 374 560 q 562 513 510 560 q 614 378 614 467 l 614 74 l 715 74 l 715 0 l 422 0 l 422 74 l 513 74 l 513 358 q 408 479 513 479 q 307 457 358 479 q 197 396 256 435 l 238 440 l 238 74 l 336 74 l 336 0 l 31 0 m 392 639 q 344 658 364 639 q 325 701 325 676 q 344 746 325 728 q 392 764 363 764 q 438 747 419 764 q 457 701 457 731 q 440 658 458 678 q 392 639 422 639 z "},"ṇ":{"ha":718,"x_min":31,"x_max":715,"o":"m 31 0 l 31 74 l 136 74 l 136 472 l 31 472 l 31 546 l 238 546 l 238 471 l 199 467 q 315 533 257 506 q 435 560 374 560 q 562 513 510 560 q 614 378 614 467 l 614 74 l 715 74 l 715 0 l 422 0 l 422 74 l 513 74 l 513 358 q 408 479 513 479 q 307 457 358 479 q 197 396 256 435 l 238 440 l 238 74 l 336 74 l 336 0 l 31 0 m 388 -194 q 340 -176 360 -194 q 321 -132 321 -157 q 388 -69 321 -69 q 434 -86 415 -69 q 453 -132 453 -103 q 436 -175 454 -156 q 388 -194 418 -194 z "},"ǹ":{"ha":718,"x_min":31,"x_max":715,"o":"m 31 0 l 31 74 l 136 74 l 136 472 l 31 472 l 31 546 l 238 546 l 238 471 l 199 467 q 315 533 257 506 q 435 560 374 560 q 562 513 510 560 q 614 378 614 467 l 614 74 l 715 74 l 715 0 l 422 0 l 422 74 l 513 74 l 513 358 q 408 479 513 479 q 307 457 358 479 q 197 396 256 435 l 238 440 l 238 74 l 336 74 l 336 0 l 31 0 m 358 663 l 233 864 l 350 864 l 424 663 l 358 663 z "},"ŋ":{"ha":718,"x_min":31,"x_max":614,"o":"m 326 -221 l 326 -147 q 469 -108 425 -147 q 513 13 513 -69 l 513 358 q 408 479 513 479 q 238 422 336 479 l 238 74 l 336 74 l 336 0 l 31 0 l 31 74 l 136 74 l 136 472 l 31 472 l 31 546 l 238 546 l 238 492 q 337 541 286 522 q 435 560 388 560 q 562 513 510 560 q 614 378 614 467 l 614 19 q 576 -122 614 -69 q 472 -198 538 -175 q 326 -221 407 -221 z "},"ǌ":{"ha":1064,"x_min":31,"x_max":979,"o":"m 31 0 l 31 74 l 136 74 l 136 472 l 31 472 l 31 546 l 238 546 l 238 471 l 199 467 q 315 533 257 506 q 435 560 374 560 q 562 513 510 560 q 614 378 614 467 l 614 74 l 715 74 l 715 0 l 422 0 l 422 74 l 513 74 l 513 358 q 408 479 513 479 q 307 457 358 479 q 197 396 256 435 l 238 440 l 238 74 l 336 74 l 336 0 l 31 0 m 725 -211 l 725 -131 l 783 -131 q 857 -103 840 -131 q 874 -19 874 -76 l 874 472 l 763 472 l 763 546 l 978 546 l 978 6 q 947 -149 978 -87 q 785 -211 917 -211 l 725 -211 m 904 665 q 851 685 874 665 q 829 738 829 706 q 851 787 829 767 q 904 807 874 807 q 958 787 936 807 q 979 738 979 767 q 958 685 979 706 q 904 665 936 665 z "},"ṉ":{"ha":718,"x_min":31,"x_max":715,"o":"m 31 0 l 31 74 l 136 74 l 136 472 l 31 472 l 31 546 l 238 546 l 238 471 l 199 467 q 315 533 257 506 q 435 560 374 560 q 562 513 510 560 q 614 378 614 467 l 614 74 l 715 74 l 715 0 l 422 0 l 422 74 l 513 74 l 513 358 q 408 479 513 479 q 307 457 358 479 q 197 396 256 435 l 238 440 l 238 74 l 336 74 l 336 0 l 31 0 z "},"ñ":{"ha":718,"x_min":31,"x_max":715,"o":"m 31 0 l 31 74 l 136 74 l 136 472 l 31 472 l 31 546 l 238 546 l 238 471 l 199 467 q 315 533 257 506 q 435 560 374 560 q 562 513 510 560 q 614 378 614 467 l 614 74 l 715 74 l 715 0 l 422 0 l 422 74 l 513 74 l 513 358 q 408 479 513 479 q 307 457 358 479 q 197 396 256 435 l 238 440 l 238 74 l 336 74 l 336 0 l 31 0 m 479 653 q 381 678 432 653 q 294 704 331 704 q 251 658 258 704 l 208 658 q 241 751 214 722 q 310 781 268 781 q 401 755 350 781 q 485 729 453 729 q 536 778 525 729 l 576 778 q 550 689 572 725 q 479 653 528 653 z "},"o":{"ha":661,"x_min":35,"x_max":626,"o":"m 329 -17 q 116 63 197 -17 q 35 274 35 142 q 116 483 35 404 q 329 561 197 561 q 544 483 463 561 q 626 275 626 404 q 544 64 626 144 q 329 -17 463 -17 m 329 64 q 468 122 415 64 q 521 275 521 179 q 468 424 521 368 q 329 481 415 481 q 192 424 244 481 q 140 274 140 367 q 192 122 140 179 q 329 64 244 64 z "},"ó":{"ha":661,"x_min":35,"x_max":626,"o":"m 329 -17 q 116 63 197 -17 q 35 274 35 142 q 116 483 35 404 q 329 561 197 561 q 544 483 463 561 q 626 275 626 404 q 544 64 626 144 q 329 -17 463 -17 m 329 64 q 468 122 415 64 q 521 275 521 179 q 468 424 521 368 q 329 481 415 481 q 192 424 244 481 q 140 274 140 367 q 192 122 140 179 q 329 64 244 64 m 297 663 l 371 864 l 488 864 l 363 663 l 297 663 z "},"ŏ":{"ha":661,"x_min":35,"x_max":626,"o":"m 329 -17 q 116 63 197 -17 q 35 274 35 142 q 116 483 35 404 q 329 561 197 561 q 544 483 463 561 q 626 275 626 404 q 544 64 626 144 q 329 -17 463 -17 m 329 64 q 468 122 415 64 q 521 275 521 179 q 468 424 521 368 q 329 481 415 481 q 192 424 244 481 q 140 274 140 367 q 192 122 140 179 q 329 64 244 64 m 329 625 q 225 662 267 624 q 176 764 183 700 l 244 764 q 329 688 260 688 q 413 764 400 688 l 482 764 q 329 625 467 628 z "},"ǒ":{"ha":661,"x_min":35,"x_max":626,"o":"m 329 -17 q 116 63 197 -17 q 35 274 35 142 q 116 483 35 404 q 329 561 197 561 q 544 483 463 561 q 626 275 626 404 q 544 64 626 144 q 329 -17 463 -17 m 329 64 q 468 122 415 64 q 521 275 521 179 q 468 424 521 368 q 329 481 415 481 q 192 424 244 481 q 140 274 140 367 q 192 122 140 179 q 329 64 244 64 m 281 622 l 168 832 l 242 832 l 331 681 l 417 832 l 489 832 l 379 622 l 281 622 z "},"ô":{"ha":661,"x_min":35,"x_max":626,"o":"m 329 -17 q 116 63 197 -17 q 35 274 35 142 q 116 483 35 404 q 329 561 197 561 q 544 483 463 561 q 626 275 626 404 q 544 64 626 144 q 329 -17 463 -17 m 329 64 q 468 122 415 64 q 521 275 521 179 q 468 424 521 368 q 329 481 415 481 q 192 424 244 481 q 140 274 140 367 q 192 122 140 179 q 329 64 244 64 m 160 624 l 275 842 l 383 842 l 499 624 l 421 624 l 329 797 l 238 624 l 160 624 z "},"ố":{"ha":661,"x_min":35,"x_max":626,"o":"m 329 -17 q 116 63 197 -17 q 35 274 35 142 q 116 483 35 404 q 329 561 197 561 q 544 483 463 561 q 626 275 626 404 q 544 64 626 144 q 329 -17 463 -17 m 329 64 q 468 122 415 64 q 521 275 521 179 q 468 424 521 368 q 329 481 415 481 q 192 424 244 481 q 140 274 140 367 q 192 122 140 179 q 329 64 244 64 m 160 624 l 275 800 l 383 800 l 499 624 l 421 624 l 329 756 l 238 624 l 160 624 m 460 750 l 519 910 l 622 910 l 525 750 l 460 750 z "},"ộ":{"ha":661,"x_min":35,"x_max":626,"o":"m 329 -17 q 116 63 197 -17 q 35 274 35 142 q 116 483 35 404 q 329 561 197 561 q 544 483 463 561 q 626 275 626 404 q 544 64 626 144 q 329 -17 463 -17 m 329 64 q 468 122 415 64 q 521 275 521 179 q 468 424 521 368 q 329 481 415 481 q 192 424 244 481 q 140 274 140 367 q 192 122 140 179 q 329 64 244 64 m 331 -194 q 283 -176 303 -194 q 264 -132 264 -157 q 331 -69 264 -69 q 377 -86 358 -69 q 396 -132 396 -103 q 379 -175 397 -156 q 331 -194 361 -194 m 160 624 l 275 842 l 383 842 l 499 624 l 421 624 l 329 797 l 238 624 l 160 624 z "},"ồ":{"ha":661,"x_min":35,"x_max":626,"o":"m 329 -17 q 116 63 197 -17 q 35 274 35 142 q 116 483 35 404 q 329 561 197 561 q 544 483 463 561 q 626 275 626 404 q 544 64 626 144 q 329 -17 463 -17 m 329 64 q 468 122 415 64 q 521 275 521 179 q 468 424 521 368 q 329 481 415 481 q 192 424 244 481 q 140 274 140 367 q 192 122 140 179 q 329 64 244 64 m 160 624 l 275 800 l 383 800 l 499 624 l 421 624 l 329 756 l 238 624 l 160 624 m 553 750 l 488 750 l 390 910 l 493 910 l 553 750 z "},"ổ":{"ha":661,"x_min":35,"x_max":626,"o":"m 329 -17 q 116 63 197 -17 q 35 274 35 142 q 116 483 35 404 q 329 561 197 561 q 544 483 463 561 q 626 275 626 404 q 544 64 626 144 q 329 -17 463 -17 m 329 64 q 468 122 415 64 q 521 275 521 179 q 468 424 521 368 q 329 481 415 481 q 192 424 244 481 q 140 274 140 367 q 192 122 140 179 q 329 64 244 64 m 160 624 l 275 800 l 383 800 l 499 624 l 421 624 l 329 756 l 238 624 l 160 624 m 465 736 l 446 797 q 493 847 493 813 q 446 885 493 885 q 386 867 418 885 l 365 925 q 404 942 382 935 q 453 949 426 949 q 535 921 504 949 q 567 850 567 893 q 465 736 567 764 z "},"ỗ":{"ha":661,"x_min":35,"x_max":626,"o":"m 329 -17 q 116 63 197 -17 q 35 274 35 142 q 116 483 35 404 q 329 561 197 561 q 544 483 463 561 q 626 275 626 404 q 544 64 626 144 q 329 -17 463 -17 m 329 64 q 468 122 415 64 q 521 275 521 179 q 468 424 521 368 q 329 481 415 481 q 192 424 244 481 q 140 274 140 367 q 192 122 140 179 q 329 64 244 64 m 160 624 l 275 800 l 383 800 l 499 624 l 421 624 l 329 756 l 238 624 l 160 624 m 417 836 q 319 862 369 836 q 232 888 268 888 q 189 842 196 888 l 146 842 q 178 935 151 906 q 247 964 206 964 q 339 938 288 964 q 422 913 390 913 q 474 961 463 913 l 514 961 q 488 872 510 908 q 417 836 465 836 z "},"ȍ":{"ha":661,"x_min":35,"x_max":626,"o":"m 329 -17 q 116 63 197 -17 q 35 274 35 142 q 116 483 35 404 q 329 561 197 561 q 544 483 463 561 q 626 275 626 404 q 544 64 626 144 q 329 -17 463 -17 m 329 64 q 468 122 415 64 q 521 275 521 179 q 468 424 521 368 q 329 481 415 481 q 192 424 244 481 q 140 274 140 367 q 192 122 140 179 q 329 64 244 64 m 186 663 l 56 874 l 172 874 l 251 663 l 186 663 m 374 663 l 244 874 l 361 874 l 439 663 l 374 663 z "},"ö":{"ha":661,"x_min":35,"x_max":626,"o":"m 329 -17 q 116 63 197 -17 q 35 274 35 142 q 116 483 35 404 q 329 561 197 561 q 544 483 463 561 q 626 275 626 404 q 544 64 626 144 q 329 -17 463 -17 m 329 64 q 468 122 415 64 q 521 275 521 179 q 468 424 521 368 q 329 481 415 481 q 192 424 244 481 q 140 274 140 367 q 192 122 140 179 q 329 64 244 64 m 196 635 q 151 651 168 635 q 133 694 133 667 q 151 738 133 722 q 196 754 168 754 q 241 738 224 754 q 258 694 258 722 q 241 651 258 667 q 196 635 224 635 m 463 635 q 418 651 435 635 q 401 694 401 667 q 418 738 401 722 q 463 754 435 754 q 508 738 490 754 q 525 694 525 722 q 508 651 525 667 q 463 635 490 635 z "},"ȫ":{"ha":661,"x_min":35,"x_max":626,"o":"m 329 -17 q 116 63 197 -17 q 35 274 35 142 q 116 483 35 404 q 329 561 197 561 q 544 483 463 561 q 626 275 626 404 q 544 64 626 144 q 329 -17 463 -17 m 329 64 q 468 122 415 64 q 521 275 521 179 q 468 424 521 368 q 329 481 415 481 q 192 424 244 481 q 140 274 140 367 q 192 122 140 179 q 329 64 244 64 m 196 635 q 151 651 168 635 q 133 694 133 667 q 151 738 133 722 q 196 754 168 754 q 241 738 224 754 q 258 694 258 722 q 241 651 258 667 q 196 635 224 635 m 463 635 q 418 651 435 635 q 401 694 401 667 q 418 738 401 722 q 463 754 435 754 q 508 738 490 754 q 525 694 525 722 q 508 651 525 667 q 463 635 490 635 m 183 865 l 183 928 l 475 928 l 475 865 l 183 865 z "},"ȯ":{"ha":661,"x_min":35,"x_max":626,"o":"m 329 -17 q 116 63 197 -17 q 35 274 35 142 q 116 483 35 404 q 329 561 197 561 q 544 483 463 561 q 626 275 626 404 q 544 64 626 144 q 329 -17 463 -17 m 329 64 q 468 122 415 64 q 521 275 521 179 q 468 424 521 368 q 329 481 415 481 q 192 424 244 481 q 140 274 140 367 q 192 122 140 179 q 329 64 244 64 z "},"ȱ":{"ha":661,"x_min":35,"x_max":626,"o":"m 329 -17 q 116 63 197 -17 q 35 274 35 142 q 116 483 35 404 q 329 561 197 561 q 544 483 463 561 q 626 275 626 404 q 544 64 626 144 q 329 -17 463 -17 m 329 64 q 468 122 415 64 q 521 275 521 179 q 468 424 521 368 q 329 481 415 481 q 192 424 244 481 q 140 274 140 367 q 192 122 140 179 q 329 64 244 64 m 329 639 q 282 658 301 639 q 263 701 263 676 q 281 746 263 728 q 329 764 300 764 q 376 747 357 764 q 394 701 394 731 q 378 658 396 678 q 329 639 360 639 m 183 861 l 183 924 l 475 924 l 475 861 l 183 861 z "},"ọ":{"ha":661,"x_min":35,"x_max":626,"o":"m 329 -17 q 116 63 197 -17 q 35 274 35 142 q 116 483 35 404 q 329 561 197 561 q 544 483 463 561 q 626 275 626 404 q 544 64 626 144 q 329 -17 463 -17 m 329 64 q 468 122 415 64 q 521 275 521 179 q 468 424 521 368 q 329 481 415 481 q 192 424 244 481 q 140 274 140 367 q 192 122 140 179 q 329 64 244 64 m 331 -194 q 283 -176 303 -194 q 264 -132 264 -157 q 331 -69 264 -69 q 377 -86 358 -69 q 396 -132 396 -103 q 379 -175 397 -156 q 331 -194 361 -194 z "},"ò":{"ha":661,"x_min":35,"x_max":626,"o":"m 329 -17 q 116 63 197 -17 q 35 274 35 142 q 116 483 35 404 q 329 561 197 561 q 544 483 463 561 q 626 275 626 404 q 544 64 626 144 q 329 -17 463 -17 m 329 64 q 468 122 415 64 q 521 275 521 179 q 468 424 521 368 q 329 481 415 481 q 192 424 244 481 q 140 274 140 367 q 192 122 140 179 q 329 64 244 64 m 296 663 l 171 864 l 288 864 l 361 663 l 296 663 z "},"ỏ":{"ha":661,"x_min":35,"x_max":626,"o":"m 329 -17 q 116 63 197 -17 q 35 274 35 142 q 116 483 35 404 q 329 561 197 561 q 544 483 463 561 q 626 275 626 404 q 544 64 626 144 q 329 -17 463 -17 m 329 64 q 468 122 415 64 q 521 275 521 179 q 468 424 521 368 q 329 481 415 481 q 192 424 244 481 q 140 274 140 367 q 192 122 140 179 q 329 64 244 64 m 329 606 l 310 667 q 357 717 357 682 q 310 754 357 754 q 250 736 282 754 l 229 794 q 268 811 246 804 q 317 818 290 818 q 399 790 368 818 q 431 719 431 763 q 329 606 431 633 z "},"ơ":{"ha":661,"x_min":35,"x_max":626,"o":"m 329 -17 q 116 63 197 -17 q 35 274 35 142 q 116 483 35 404 q 329 561 197 561 q 544 483 463 561 q 626 275 626 404 q 544 64 626 144 q 329 -17 463 -17 m 329 64 q 468 122 415 64 q 521 275 521 179 q 468 424 521 368 q 329 481 415 481 q 192 424 244 481 q 140 274 140 367 q 192 122 140 179 q 329 64 244 64 m 360 479 l 360 544 l 376 544 q 443 566 415 544 q 475 639 471 588 l 588 639 q 528 522 578 565 q 400 479 478 479 l 360 479 z "}}}
